<svg width="40" height="40" viewBox="0 0 40 40" xmlns="http://www.w3.org/2000/svg"><g fill="none"><path d="M23.225 39.663zm.4-.063l-.24.053.24-.054zm-1.349.195zm.384-.043zm1.51-.262zm1.35-.335l-.17.061.17-.06zm-.408.112l-.186.062.186-.062zm-.535.133a5.66 5.66 0 01-.197.057l.197-.056zm-2.895.459z" fill="#000"/><path d="M40 19.961C40 8.939 31.044 0 20 0S0 8.939 0 19.961c0 11.022 8.956 19.961 20 19.961.117 0 .234-.002.352-.005V24.38h-4.297v-5h4.297v-3.678c0-4.265 2.609-6.587 6.42-6.587 1.826 0 3.396.136 3.853.197v4.457h-2.629c-2.074 0-2.475.984-2.475 2.428v3.183h4.959l-.647 4.998h-4.312V39.15C33.88 36.759 40 29.072 40 19.96z" fill="#9B9B9B"/><path d="M21.321 39.884zm-.637.036z" fill="#000"/></g></svg>