<svg width="40" height="40" viewBox="0 0 40 40" xmlns="http://www.w3.org/2000/svg"><path d="M19.949 0C8.932 0 0 8.931 0 19.949c0 11.018 8.932 19.949 19.949 19.949 11.017 0 19.949-8.931 19.949-19.949C39.898 8.931 30.966 0 19.949 0zm2.295 26.575c-1.845 0-3.58-.997-4.175-2.13 0 0-.992 3.937-1.2 4.696-.74 2.686-2.918 5.372-3.087 5.592-.118.154-.379.106-.406-.097-.046-.343-.602-3.73.052-6.494l2.197-9.312s-.544-1.09-.544-2.704c0-2.533 1.468-4.423 3.295-4.423 1.554 0 2.304 1.167 2.304 2.566 0 1.562-.994 3.898-1.507 6.063-.429 1.813.908 3.292 2.696 3.292 3.238 0 5.417-4.159 5.417-9.086 0-3.745-2.52-6.549-7.11-6.549-5.182 0-8.414 3.866-8.414 8.184 0 1.489.44 2.54 1.129 3.351.315.374.36.524.245.953-.083.314-.27 1.071-.348 1.37-.114.434-.464.588-.857.429-2.386-.975-3.498-3.59-3.498-6.529 0-4.854 4.093-10.675 12.213-10.675 6.524 0 10.818 4.721 10.818 9.79 0 6.705-3.727 11.713-9.22 11.713z" fill="#9B9B9B"/></svg>