<svg xmlns="http://www.w3.org/2000/svg" xmlns:xlink="http://www.w3.org/1999/xlink" width="24" height="24" viewBox="0 0 24 24">
  <defs>
    <clipPath id="clip-Admin_Panel">
      <rect width="24" height="24"/>
    </clipPath>
  </defs>
  <g id="Admin_Panel" data-name="Admin Panel" clip-path="url(#clip-Admin_Panel)">
    <rect id="Rectangle" width="24" height="24" fill="none"/>
    <g id="Layer_2" data-name="Layer 2" transform="translate(5 5)">
      <g id="Layer_1" data-name="Layer 1">
        <path id="Path_64496" data-name="Path 64496" d="M14.5,9.68l-.58-.1A3.88,3.88,0,0,0,13.69,9L14,8.54a.52.52,0,0,0,0-.66l-.51-.52a.55.55,0,0,0-.36-.15.54.54,0,0,0-.3.1l-.48.34a3,3,0,0,0-.59-.24l-.09-.57a.52.52,0,0,0-.51-.43H10.4a.51.51,0,0,0-.5.43l-.1.58a2.78,2.78,0,0,0-.56.24l-.48-.34a.54.54,0,0,0-.3-.1.55.55,0,0,0-.36.15l-.52.52a.51.51,0,0,0,0,.66L7.87,9a3.88,3.88,0,0,0-.23.56l-.57.1a.51.51,0,0,0-.43.5v.73a.52.52,0,0,0,.43.51l.59.1a3,3,0,0,0,.24.56l-.35.47a.51.51,0,0,0,.06.66l.52.52a.51.51,0,0,0,.36.15.45.45,0,0,0,.29-.1l.49-.34a3.116,3.116,0,0,0,.53.22l.1.732c.044.248.268.277.52.278h.73a.51.51,0,0,0,.5-.43l.1-.58a3.039,3.039,0,0,0,.54-.17l.54.39c.084.062.155-.013.26-.01h0a.51.51,0,0,0,.36-.15l.52-.52a.52.52,0,0,0,.06-.66l-.35-.48a3,3,0,0,0,.24-.56l.58-.1a.52.52,0,0,0,.43-.51v-.72A.51.51,0,0,0,14.5,9.68ZM14.3,11h-.075l-.442.08c-.091.016-.264-.018-.29.07a2.638,2.638,0,0,1-.218.691c-.049.076-.151.236-.1.313l.42.638s-.1.252-.1.262l-.32.237h-.211l-.409-.31a.532.532,0,0,0-.37-.02c-.224.138-.176.152-.43.22-.09.017-.4.149-.416.24l-.184.8-.61-.02a.07.07,0,0,1-.05,0l-.12-.73a.21.21,0,0,0-.17-.18,3.36,3.36,0,0,1-.71-.3.81.81,0,0,0-.22-.03.364.364,0,0,0-.18.03h0v-.01l-.66.44-.32-.46V12.9l.42-.6a.23.23,0,0,0,0-.25,2.74,2.74,0,0,1-.3-.73.25.25,0,0,0-.19-.17L7.15,11a.07.07,0,0,1,0-.05V10.2l.72-.2a.25.25,0,0,0,.19-.18,2.65,2.65,0,0,1,.29-.72.23.23,0,0,0,0-.26l-.43-.6V8.18l.51-.52h.06l.6.43a.25.25,0,0,0,.25,0,2.77,2.77,0,0,1,.73-.31.24.24,0,0,0,.17-.19l.12-.73a.07.07,0,0,1,.05,0h.73l.12.72a.24.24,0,0,0,.18.19,2.83,2.83,0,0,1,.74.31.528.528,0,0,0,.37.01l.48-.44h.06l.51.52v.06l-.43.6a.23.23,0,0,0,0,.25,2.45,2.45,0,0,1,.3.73.24.24,0,0,0,.19.17l.73.12h0v.72Z" fill="#ffffff"/>
        <path id="Path_64497" data-name="Path 64497" d="M11.15,14.74h-.73a.57.57,0,0,1-.56-.47l-.09-.55a3.07,3.07,0,0,1-.5-.2l-.46.32a.56.56,0,0,1-.72-.06l-.51-.51a.56.56,0,0,1-.07-.73l.33-.44a3.38,3.38,0,0,1-.22-.52l-.56-.09a.57.57,0,0,1-.47-.56V10.2a.56.56,0,0,1,.47-.55l.55-.09A2.36,2.36,0,0,1,7.82,9l-.33-.46a.56.56,0,0,1,.06-.73l.52-.51a.52.52,0,0,1,.39-.17.57.57,0,0,1,.33.11l.45.32a3.66,3.66,0,0,1,.51-.21l.1-.56a.57.57,0,0,1,.55-.47h.73a.57.57,0,0,1,.56.47l.09.54a4.08,4.08,0,0,1,.54.22l.45-.32a.57.57,0,0,1,.33-.11.52.52,0,0,1,.39.17l.52.51a.57.57,0,0,1,.06.73L13.75,9a4.71,4.71,0,0,1,.21.52l.55.09a.55.55,0,0,1,.46.56v.72a.56.56,0,0,1-.46.56l-.55.09a3.85,3.85,0,0,1-.22.52l.33.45a.56.56,0,0,1-.07.73l-.51.51a.56.56,0,0,1-.4.17.52.52,0,0,1-.32-.11l-.46-.32a4.55,4.55,0,0,1-.51.21l-.1.55a.56.56,0,0,1-.55.49ZM9.27,13.4h0a2.55,2.55,0,0,0,.54.22h0l.09.59a.46.46,0,0,0,.46.38h.73a.44.44,0,0,0,.45-.38l.11-.62h0a2.66,2.66,0,0,0,.55-.23h0l.5.36a.47.47,0,0,0,.6-.05l.51-.51a.46.46,0,0,0,.05-.6l-.36-.51h0a4.41,4.41,0,0,0,.23-.56h0l.61-.1a.47.47,0,0,0,.39-.46v-.72a.46.46,0,0,0-.39-.46l-.61-.1h0A3,3,0,0,0,13.64,9h0L14,8.51a.45.45,0,0,0-.05-.59l-.52-.52a.46.46,0,0,0-.59-.05l-.51.36h0a3.23,3.23,0,0,0-.58-.24h0l-.1-.61a.46.46,0,0,0-.46-.38H10.4a.46.46,0,0,0-.45.38l-.11.62h0a3,3,0,0,0-.55.24h0l-.5-.36a.46.46,0,0,0-.59,0l-.52.52a.46.46,0,0,0,0,.59L7.93,9h0a3.13,3.13,0,0,0-.23.56h0l-.6.1a.45.45,0,0,0-.39.45v.73a.46.46,0,0,0,.39.46l.62.1h0a2.45,2.45,0,0,0,.23.56v.05l-.34.47a.45.45,0,0,0,.05.6l.51.51a.46.46,0,0,0,.59,0Zm1.88.88h-.73a.09.09,0,0,1-.09-.08l-.13-.73a.18.18,0,0,0-.13-.15A2.79,2.79,0,0,1,9.35,13a.18.18,0,0,0-.2,0l-.61.43a.11.11,0,0,1-.12,0l-.51-.52a.09.09,0,0,1,0-.12l.43-.6a.18.18,0,0,0,0-.2A2.53,2.53,0,0,1,8,11.28a.18.18,0,0,0-.15-.13L7.14,11a.1.1,0,0,1-.08-.1v-.7a.09.09,0,0,1,.08-.09L7.86,10A.19.19,0,0,0,8,9.85a3.19,3.19,0,0,1,.3-.74.18.18,0,0,0,0-.2l-.43-.6a.09.09,0,0,1,0-.12l.52-.52a.09.09,0,0,1,.12,0l.6.42a.16.16,0,0,0,.2,0,2.92,2.92,0,0,1,.73-.31.18.18,0,0,0,.14-.14l.12-.74a.11.11,0,0,1,.1-.08h.73a.11.11,0,0,1,.09.09l.12.72a.17.17,0,0,0,.14.14,3.29,3.29,0,0,1,.75.31.18.18,0,0,0,.2,0l.6-.43a.09.09,0,0,1,.12,0l.52.51a.11.11,0,0,1,0,.12l-.43.61a.2.2,0,0,0,0,.2,2.63,2.63,0,0,1,.31.73.18.18,0,0,0,.15.14l.72.12a.1.1,0,0,1,.08.1V11h0a.12.12,0,0,1-.07,0l-.73.12a.17.17,0,0,0-.14.13,2.83,2.83,0,0,1-.31.74.18.18,0,0,0,0,.2l.43.6a.12.12,0,0,1,0,.13l-.52.51a.08.08,0,0,1-.12,0l-.6-.42a.17.17,0,0,0-.2,0,2.81,2.81,0,0,1-.74.3.18.18,0,0,0-.13.15l-.13.73a.1.1,0,0,1-.09.09ZM9.26,12.9a.43.43,0,0,1,.14,0,2.74,2.74,0,0,0,.69.29.27.27,0,0,1,.21.22l.12.73h.73l.12-.73a.26.26,0,0,1,.2-.22,2.88,2.88,0,0,0,.72-.3.31.31,0,0,1,.31,0l.6.43.51-.51-.43-.6a.27.27,0,0,1,0-.31,2.59,2.59,0,0,0,.29-.71.29.29,0,0,1,.23-.21l.72-.12v-.72l-.72-.12a.29.29,0,0,1-.23-.21,2.59,2.59,0,0,0-.29-.71.29.29,0,0,1,0-.31l.43-.6-.52-.51-.59.43a.29.29,0,0,1-.31,0,3.12,3.12,0,0,0-.73-.3.29.29,0,0,1-.21-.23l-.12-.72h-.72l-.12.73a.29.29,0,0,1-.21.23,2.34,2.34,0,0,0-.71.3.29.29,0,0,1-.31,0l-.6-.43L8,8.26l.43.6a.27.27,0,0,1,0,.3,2.53,2.53,0,0,0-.29.72.31.31,0,0,1-.23.21l-.72.12v.72l.73.12a.27.27,0,0,1,.22.21,3,3,0,0,0,.3.71.27.27,0,0,1,0,.31l-.42.6.51.51.6-.43a.27.27,0,0,1,.13-.06Z" fill="#ffffff"/>
        <path id="Path_64498" data-name="Path 64498" d="M10.78,8.76a1.79,1.79,0,1,0,1.79,1.79A1.79,1.79,0,0,0,10.78,8.76Zm0,3.11a1.32,1.32,0,1,1,1.33-1.32,1.32,1.32,0,0,1-1.33,1.32Z" fill="#ffffff"/>
        <path id="Path_64499" data-name="Path 64499" d="M10.79,12.39a1.84,1.84,0,1,1,1.83-1.84,1.84,1.84,0,0,1-1.83,1.84Zm0-3.58a1.74,1.74,0,1,0,1.73,1.74,1.74,1.74,0,0,0-1.73-1.74Zm0,3.11a1.37,1.37,0,1,1,1.37-1.37,1.37,1.37,0,0,1-1.37,1.37Zm0-2.64a1.27,1.27,0,1,0,1.27,1.27,1.27,1.27,0,0,0-1.27-1.27Z" fill="#ffffff"/>
        <g id="Oval">
          <path id="Path_64500" data-name="Path 64500" d="M7.19,6.5a3.25,3.25,0,1,1,3.25-3.25A3.25,3.25,0,0,1,7.19,6.5Zm0-5.5A2.25,2.25,0,1,0,9.44,3.25,2.25,2.25,0,0,0,7.19,1Z" fill="#ffffff"/>
        </g>
        <g id="Oval-2" data-name="Oval">
          <path id="Path_64501" data-name="Path 64501" d="M1,13.56H0A6.53,6.53,0,0,1,6.51,7V8A5.52,5.52,0,0,0,1,13.56Z" fill="#ffffff"/>
        </g>
      </g>
    </g>
  </g>
</svg>
