<svg width="22" height="14" viewBox="0 0 22 14" fill="none" xmlns="http://www.w3.org/2000/svg">
<path d="M16.6 4.79139L18.44 1.61139C18.6 1.30139 18.48 0.921391 18.18 0.761391C17.89 0.611391 17.53 0.701391 17.35 0.981391L15.47 4.22139C12.61 3.01139 9.39 3.01139 6.53 4.22139L4.65 0.981391C4.46 0.691391 4.07 0.601391 3.78 0.781391C3.5 0.961391 3.41 1.32139 3.56 1.61139L5.4 4.79139C2.3 6.56139 0.28 9.75139 0 13.3114H22C21.72 9.75139 19.7 6.56139 16.6 4.79139ZM6 10.5614C5.31 10.5614 4.75 10.0014 4.75 9.31139C4.75 8.62139 5.31 8.06139 6 8.06139C6.69 8.06139 7.25 8.62139 7.25 9.31139C7.25 10.0014 6.69 10.5614 6 10.5614ZM16 10.5614C15.31 10.5614 14.75 10.0014 14.75 9.31139C14.75 8.62139 15.31 8.06139 16 8.06139C16.69 8.06139 17.25 8.62139 17.25 9.31139C17.25 10.0014 16.69 10.5614 16 10.5614Z" fill="#8F8F8F"/>
</svg>
