<?xml version="1.0" encoding="UTF-8"?>
<svg width="22px" height="22px" viewBox="0 0 22 22" version="1.1" xmlns="http://www.w3.org/2000/svg" xmlns:xlink="http://www.w3.org/1999/xlink">
    <!-- Generator: sketchtool 63.1 (101010) - https://sketch.com -->
    <title>9DD03DB1-BF86-46C6-AD00-EA1D3239F167</title>
    <desc>Created with sketchtool.</desc>
    <g id="Dashboard" stroke="none" stroke-width="1" fill="none" fill-rule="evenodd">
        <g transform="translate(-23.000000, -341.000000)" id="Side_Menu">
            <g transform="translate(0.000000, 64.000000)">
                <g id="orders" transform="translate(0.000000, 264.000000)">
                    <g id="Group-23" transform="translate(24.000000, 14.000000)">
                        <rect id="Rectangle-Copy-8" fill-opacity="0.01" fill="#FFFFFF" x="0" y="0" width="20" height="20"></rect>
                        <g id="Group-19" stroke="#4D4D4E" stroke-linecap="round" stroke-linejoin="round">
                            <path d="M14.35875,11.40825 L18.2504167,15.2999167 C18.8995833,15.95825 18.8995833,17.00825 18.2504167,17.65825 L17.65875,18.2499167 C17.00875,18.8999167 15.95875,18.8999167 15.3004167,18.2499167 L11.40875,14.35825" id="Stroke-1"></path>
                            <path d="M5.64125,8.59175 L1.74958333,4.70008333 C1.10041667,4.04175 1.10041667,2.99175 1.74958333,2.34175 L2.34125,1.75008333 C2.99125,1.10008333 4.04125,1.10008333 4.69958333,1.75008333 L8.59125,5.64175" id="Stroke-3"></path>
                            <path d="M11.4086667,5.64166667 L15.3003333,1.75 C15.9586667,1.1 17.0086667,1.1 17.6586667,1.75 L18.2503333,2.34166667 C18.8995,2.99166667 18.8995,4.04166667 18.2503333,4.7 L14.3586667,8.59166667" id="Stroke-5"></path>
                            <path d="M5.64125,11.40825 L1.74958333,15.2999167 C1.10041667,15.95825 1.10041667,17.00825 1.74958333,17.65825 L2.34125,18.2499167 C2.99125,18.8999167 4.04125,18.8999167 4.69958333,18.2499167 L8.59125,14.35825" id="Stroke-7"></path>
                            <path d="M4.8665,1.9165 C6.34983333,0.9665 8.109,0.4165 9.99983333,0.4165 C11.8915,0.4165 13.6498333,0.9665 15.1331667,1.9165" id="Stroke-9"></path>
                            <path d="M4.8665,18.0835 C6.34983333,19.0335 8.109,19.5835 9.99983333,19.5835 C11.8915,19.5835 13.6498333,19.0335 15.1331667,18.0835" id="Stroke-11"></path>
                            <path d="M1.9165,15.1335 C0.9665,13.6501667 0.4165,11.8918333 0.4165,10.0001667 C0.4165,8.1085 0.9665,6.35016667 1.9165,4.86683333" id="Stroke-13"></path>
                            <path d="M18.0835,4.8665 C19.0335,6.34983333 19.5835,8.10816667 19.5835,9.99983333 C19.5835,11.8915 19.0335,13.6498333 18.0835,15.1331667" id="Stroke-15"></path>
                            <path d="M14.5833333,10 C14.5833333,12.5316667 12.5316667,14.5833333 10,14.5833333 C7.46833333,14.5833333 5.41666667,12.5316667 5.41666667,10 C5.41666667,7.46833333 7.46833333,5.41666667 10,5.41666667 C12.5316667,5.41666667 14.5833333,7.46833333 14.5833333,10 Z" id="Stroke-17"></path>
                        </g>
                    </g>
                </g>
            </g>
        </g>
    </g>
</svg>