<?xml version="1.0" encoding="utf-8"?>
<svg viewBox="0 0 500 500" width="500px" height="500px" xmlns="http://www.w3.org/2000/svg" xmlns:bx="https://boxy-svg.com">
  <path d="M 14.835 10 C 13.499 10 12.501 10.348 11.5 11.395 C 10.498 12.443 10 13.49 10 14.884 L 10 131.093 C 10 132.315 10.498 133.361 11.5 134.234 C 12.334 135.108 13.499 135.455 14.835 135.455 L 485.165 135.455 C 486.501 135.455 487.499 135.108 488.501 134.234 C 489.502 133.361 490 132.315 490 131.093 L 490 14.884 C 490 13.666 489.502 12.443 488.501 11.395 C 487.666 10.348 486.501 10 485.165 10 L 14.835 10 Z M 38.333 135.806 C 37.332 135.806 36.501 136.153 35.667 137.025 C 35.001 137.9 34.498 138.771 34.498 139.643 L 34.498 456.162 C 34.498 457.035 34.831 458.08 35.667 458.778 C 36.501 459.653 37.332 460 38.333 460 L 461.834 460 C 462.835 460 463.666 459.653 464.501 458.778 C 465.169 457.905 465.667 457.035 465.667 456.162 L 465.667 139.643 C 465.667 138.771 465.333 137.724 464.501 137.025 C 463.666 136.153 462.835 135.806 461.834 135.806 L 38.333 135.806 Z M 185.834 211.185 L 314.166 211.185 C 321 211.185 326.835 213.626 331.666 218.686 C 336.501 223.745 339 229.853 339 237.179 C 339 244.336 336.668 250.618 331.666 255.851 C 326.835 261.086 321 263.703 314.166 263.703 L 185.834 263.703 C 179.001 263.703 173.165 261.086 168.334 255.851 C 163.499 250.618 161.001 244.336 161.001 237.179 C 161.001 230.027 163.332 223.921 168.334 218.686 C 173.165 213.626 179.001 211.185 185.834 211.185 Z" 
  fill="none" stroke="#41434C" stroke-linecap="round" stroke-linejoin="round" style="stroke-width: 33px;" bx:origin="6.111962 4.782215"/>
</svg>