<?xml version="1.0" encoding="UTF-8"?>
<svg width="60px" height="60px" viewBox="0 0 60 60" version="1.1" xmlns="http://www.w3.org/2000/svg" xmlns:xlink="http://www.w3.org/1999/xlink">
    <title>Group 13</title>
    <g id="Page-1" stroke="none" stroke-width="1" fill="none" fill-rule="evenodd">
        <g id="theme" transform="translate(-288.000000, -1589.000000)">
            <g id="Group-34" transform="translate(264.000000, 1564.000000)">
                <g id="Group-13" transform="translate(24.000000, 25.000000)">
                    <rect id="Rectangle" fill-opacity="0.01" fill="#FFFFFF" x="0" y="0" width="60" height="60"></rect>
                    <g id="Group-17" transform="translate(10.000000, 11.000000)" fill="#41434C">
                        <path d="M30.4371667,13.7768333 C29.2371667,13.7768333 28.0388333,13.3218333 27.1255,12.4085 C25.2988333,10.5818333 25.2988333,7.61183333 27.1255,5.78516667 L32.0121667,0.896833333 C32.3371667,0.571833333 32.8638333,0.571833333 33.1888333,0.896833333 C33.5155,1.2235 33.5155,1.75016667 33.1888333,2.07516667 L28.3038333,6.9635 C27.1271667,8.14016667 27.1271667,10.0535 28.3038333,11.2301667 C29.4805,12.4051667 31.3921667,12.4051667 32.5688333,11.2301667 L37.4571667,6.3435 C37.7805,6.0185 38.3088333,6.0185 38.6338333,6.3435 C38.9588333,6.6685 38.9588333,7.19683333 38.6338333,7.52183333 L33.7471667,12.4085 C32.8338333,13.3218333 31.6355,13.7768333 30.4371667,13.7768333" id="Fill-1"></path>
                        <path d="M29.0748333,20.9155 C26.2798333,20.9155 23.6531667,19.8271667 21.6798333,17.8521667 C19.7048333,15.8788333 18.6198333,13.2505 18.6198333,10.4588333 C18.6198333,7.66383333 19.7048333,5.03716667 21.6798333,3.06216667 C24.6065,0.132166667 29.0131667,-0.7895 32.9015,0.708833333 C33.3298333,0.8755 33.5448333,1.35716667 33.3781667,1.7855 C33.2131667,2.2155 32.7281667,2.42716667 32.3015,2.2655 C29.0281667,1.00383333 25.3198333,1.78216667 22.8581667,4.2405 C19.4315,7.66883333 19.4315,13.2455 22.8581667,16.6738333 C24.5198333,18.3338333 26.7265,19.2488333 29.0748333,19.2488333 C31.4248333,19.2488333 33.6315,18.3338333 35.2915,16.6738333 C37.7548333,14.2121667 38.5298333,10.5055 37.2681667,7.23216667 C37.1015,6.80216667 37.3148333,6.3205 37.7448333,6.1555 C38.1765,5.99383333 38.6581667,6.20216667 38.8231667,6.63383333 C40.3215,10.5205 39.3981667,14.9238333 36.4698333,17.8521667 C34.4965,19.8271667 31.8698333,20.9155 29.0748333,20.9155" id="Fill-3"></path>
                        <path d="M7.2975,36.9196667 C6.04416667,36.9196667 4.86916667,36.433 3.98583333,35.548 C3.09916667,34.663 2.6125,33.488 2.6125,32.2363333 C2.6125,30.9846667 3.09916667,29.8096667 3.98583333,28.9246667 L19.5158333,13.3946667 C19.8408333,13.068 20.3691667,13.068 20.6941667,13.3946667 C21.0191667,13.7196667 21.0191667,14.2463333 20.6941667,14.573 L5.1625,30.103 C4.5925,30.673 4.27916667,31.4313333 4.27916667,32.2363333 C4.27916667,33.043 4.5925,33.7996667 5.1625,34.3696667 C6.34083333,35.5446667 8.2525,35.5463333 9.42916667,34.3696667 L24.9608333,18.838 C25.2858333,18.513 25.8125,18.513 26.1391667,18.838 C26.4641667,19.1646667 26.4641667,19.6913333 26.1391667,20.0163333 L10.6075,35.548 C9.7225,36.433 8.5475,36.9196667 7.2975,36.9196667" id="Fill-5"></path>
                        <path d="M8.1015,32.6911667 C8.1015,33.1511667 7.72816667,33.5245 7.26816667,33.5245 C6.80816667,33.5245 6.43483333,33.1511667 6.43483333,32.6911667 C6.43483333,32.2311667 6.80816667,31.8578333 7.26816667,31.8578333 C7.72816667,31.8578333 8.1015,32.2311667 8.1015,32.6911667" id="Fill-7"></path>
                        <path d="M31.4348333,32.6911667 C31.4348333,33.1511667 31.0615,33.5245 30.6015,33.5245 C30.1415,33.5245 29.7681667,33.1511667 29.7681667,32.6911667 C29.7681667,32.2311667 30.1415,31.8578333 30.6015,31.8578333 C31.0615,31.8578333 31.4348333,32.2311667 31.4348333,32.6911667" id="Fill-9"></path>
                        <path d="M4.1465,9.83466667 L7.41483333,10.9246667 L9.40816667,8.93133333 L8.31983333,5.663 L3.7215,3.363 L1.84816667,5.23633333 L4.1465,9.83466667 Z M7.63983333,12.713 C7.54983333,12.713 7.4615,12.698 7.37483333,12.6696667 L3.2915,11.308 C3.08316667,11.238 2.9115,11.0863333 2.8115,10.8896667 L0.0881666667,5.44466667 C-0.0718333333,5.12466667 -0.0101666667,4.73633333 0.243166667,4.483 L2.9665,1.75966667 C3.21983333,1.50633333 3.60816667,1.44466667 3.92983333,1.60466667 L9.37483333,4.32633333 C9.5715,4.42633333 9.72316667,4.598 9.7915,4.808 L11.1531667,8.893 C11.2531667,9.19133333 11.1748333,9.523 10.9515,9.74466667 L8.22816667,12.468 C8.06983333,12.628 7.8565,12.713 7.63983333,12.713 L7.63983333,12.713 Z" id="Fill-11"></path>
                        <path d="M30.7805,36.9783333 C29.5305,36.9783333 28.3555,36.49 27.4721667,35.605 L18.4238333,26.5566667 C18.0988333,26.2316667 18.0988333,25.7033333 18.4238333,25.3783333 C18.7488333,25.0533333 19.2771667,25.0533333 19.6005,25.3783333 L28.6488333,34.4266667 C29.7888333,35.5683333 31.7721667,35.5683333 32.9121667,34.4266667 C34.0888333,33.2516667 34.0888333,31.3366667 32.9121667,30.1616667 L23.8671667,21.1133333 C23.5405,20.7883333 23.5405,20.2616667 23.8671667,19.935 C24.1905,19.61 24.7171667,19.61 25.0438333,19.935 L34.0905,28.9833333 C35.9171667,30.81 35.9171667,33.7783333 34.0905,35.605 C33.2071667,36.49 32.0305,36.9783333 30.7805,36.9783333" id="Fill-13"></path>
                        <path d="M14.9178333,19.9941667 C14.7028333,19.9941667 14.4911667,19.9125 14.3278333,19.7508333 L7.04783333,12.4691667 C6.72283333,12.1441667 6.72283333,11.6175 7.04783333,11.2908333 L9.77783333,8.5625 C9.9345,8.40583333 10.1461667,8.3175 10.3678333,8.3175 L10.3695,8.3175 C10.5878333,8.3175 10.7995,8.40583333 10.9578333,8.5625 L18.2361667,15.8591667 C18.5628333,16.1858333 18.5628333,16.7125 18.2361667,17.0375 C17.9111667,17.3625 17.3828333,17.3625 17.0561667,17.0375 L10.3678333,10.3291667 L8.81616667,11.8808333 L15.5078333,18.5708333 C15.8328333,18.8975 15.8328333,19.4241667 15.5078333,19.7508333 C15.3428333,19.9125 15.1311667,19.9941667 14.9178333,19.9941667" id="Fill-15"></path>
                    </g>
                </g>
            </g>
        </g>
    </g>
</svg>