<?xml version="1.0" encoding="UTF-8"?>
<svg width="40px" height="40px" viewBox="0 0 40 40" version="1.1" xmlns="http://www.w3.org/2000/svg" xmlns:xlink="http://www.w3.org/1999/xlink">
    <!-- Generator: Sketch 64 (93537) - https://sketch.com -->
    <title>Category</title>
    <desc>Created with Sketch.</desc>
    <g id="Setting" stroke="none" stroke-width="1" fill="none" fill-rule="evenodd">
        <g transform="translate(-694.000000, -489.000000)" id="Rectangle-223-Copy-11">
            <g transform="translate(664.000000, 458.000000)">
                <g id="Category" transform="translate(30.000000, 31.000000)">
                    <rect id="Rectangle-Copy-11" fill-opacity="0.01" fill="#FFFFFF" x="0" y="0" width="40" height="40"></rect>
                    <g id="Group-13" transform="translate(5.000000, 8.000000)" stroke="#9B9B9B" stroke-linecap="round" stroke-linejoin="round" stroke-width="2">
                        <path d="M5.68047337,3.15581854 C5.68047337,4.54942801 4.54942801,5.68047337 3.15581854,5.68047337 C1.76220907,5.68047337 0.631163708,4.54942801 0.631163708,3.15581854 C0.631163708,1.76220907 1.76220907,0.631163708 3.15581854,0.631163708 C4.54942801,0.631163708 5.68047337,1.76220907 5.68047337,3.15581854 Z" id="Stroke-3"></path>
                        <path d="M5.68047337,12.3609467 C5.68047337,13.7545562 4.54942801,14.8856016 3.15581854,14.8856016 C1.76220907,14.8856016 0.631163708,13.7545562 0.631163708,12.3609467 C0.631163708,10.9673373 1.76220907,9.83629191 3.15581854,9.83629191 C4.54942801,9.83629191 5.68047337,10.9673373 5.68047337,12.3609467 Z" id="Stroke-7"></path>
                        <path d="M5.68047337,21.566075 C5.68047337,22.9596844 4.54942801,24.0907298 3.15581854,24.0907298 C1.76220907,24.0907298 0.631163708,22.9596844 0.631163708,21.566075 C0.631163708,20.1724655 1.76220907,19.0414201 3.15581854,19.0414201 C4.54942801,19.0414201 5.68047337,20.1724655 5.68047337,21.566075 Z" id="Stroke-11"></path>
                        <line x1="9.17159763" y1="3.15581854" x2="29.3688363" y2="3.15581854" id="Stroke-1"></line>
                        <line x1="9.17159763" y1="12.3609467" x2="29.3688363" y2="12.3609467" id="Stroke-5"></line>
                        <line x1="9.17159763" y1="21.566075" x2="29.3688363" y2="21.566075" id="Stroke-9"></line>
                    </g>
                </g>
            </g>
        </g>
    </g>
</svg>