<svg width="105" height="31" viewBox="0 0 105 31" fill="none" xmlns="http://www.w3.org/2000/svg">
<path d="M101 0L105 4.88372L101.444 21L101 0Z" fill="#BA0000"/>
<path d="M0 29V7C0 5.89543 0.895431 5 2 5H93.5714H105V29C105 30.1046 104.105 31 103 31H2C0.895431 31 0 30.1046 0 29Z" fill="url(#paint0_linear_7894_124361)"/>
<path d="M16.4862 17.3281H14.6197C14.5856 17.0866 14.516 16.8722 14.4109 16.6847C14.3058 16.4943 14.1708 16.3324 14.006 16.1989C13.8413 16.0653 13.6509 15.9631 13.435 15.892C13.2219 15.821 12.9904 15.7855 12.7404 15.7855C12.2887 15.7855 11.8952 15.8977 11.56 16.1222C11.2248 16.3437 10.9648 16.6676 10.7802 17.0938C10.5955 17.517 10.5032 18.0312 10.5032 18.6364C10.5032 19.2585 10.5955 19.7812 10.7802 20.2045C10.9677 20.6278 11.229 20.9474 11.5643 21.1634C11.8995 21.3793 12.2873 21.4872 12.7276 21.4872C12.9748 21.4872 13.2035 21.4545 13.4137 21.3892C13.6268 21.3239 13.8157 21.2287 13.9805 21.1037C14.1452 20.9759 14.2816 20.821 14.3896 20.6392C14.5004 20.4574 14.5771 20.25 14.6197 20.017L16.4862 20.0256C16.4379 20.4261 16.3171 20.8125 16.1239 21.1847C15.9336 21.554 15.6765 21.8849 15.3526 22.1776C15.0316 22.4673 14.6481 22.6974 14.2021 22.8679C13.7589 23.0355 13.2575 23.1193 12.6978 23.1193C11.9194 23.1193 11.2234 22.9432 10.6097 22.5909C9.99893 22.2386 9.51598 21.7287 9.16087 21.0611C8.80859 20.3935 8.63246 19.5852 8.63246 18.6364C8.63246 17.6847 8.81143 16.875 9.16939 16.2074C9.52734 15.5398 10.0131 15.0312 10.6268 14.6818C11.2404 14.3295 11.9308 14.1534 12.6978 14.1534C13.2035 14.1534 13.6722 14.2244 14.104 14.3665C14.5387 14.5085 14.9237 14.7159 15.2589 14.9886C15.5941 15.2585 15.8668 15.5895 16.0771 15.9815C16.2901 16.3736 16.4265 16.8224 16.4862 17.3281ZM25.8292 18.6364C25.8292 19.5881 25.6488 20.3977 25.288 21.0653C24.93 21.733 24.4414 22.2429 23.8221 22.5952C23.2056 22.9446 22.5124 23.1193 21.7425 23.1193C20.967 23.1193 20.271 22.9432 19.6545 22.5909C19.038 22.2386 18.5508 21.7287 18.1928 21.0611C17.8349 20.3935 17.6559 19.5852 17.6559 18.6364C17.6559 17.6847 17.8349 16.875 18.1928 16.2074C18.5508 15.5398 19.038 15.0312 19.6545 14.6818C20.271 14.3295 20.967 14.1534 21.7425 14.1534C22.5124 14.1534 23.2056 14.3295 23.8221 14.6818C24.4414 15.0312 24.93 15.5398 25.288 16.2074C25.6488 16.875 25.8292 17.6847 25.8292 18.6364ZM23.9585 18.6364C23.9585 18.0199 23.8661 17.5 23.6815 17.0767C23.4996 16.6534 23.2425 16.3324 22.9102 16.1136C22.5778 15.8949 22.1886 15.7855 21.7425 15.7855C21.2965 15.7855 20.9073 15.8949 20.5749 16.1136C20.2425 16.3324 19.984 16.6534 19.7994 17.0767C19.6175 17.5 19.5266 18.0199 19.5266 18.6364C19.5266 19.2528 19.6175 19.7727 19.7994 20.196C19.984 20.6193 20.2425 20.9403 20.5749 21.1591C20.9073 21.3778 21.2965 21.4872 21.7425 21.4872C22.1886 21.4872 22.5778 21.3778 22.9102 21.1591C23.2425 20.9403 23.4996 20.6193 23.6815 20.196C23.8661 19.7727 23.9585 19.2528 23.9585 18.6364ZM27.196 14.2727H29.4716L31.875 20.1364H31.9773L34.3807 14.2727H36.6562V23H34.8665V17.3196H34.794L32.5355 22.9574H31.3168L29.0582 17.2983H28.9858V23H27.196V14.2727ZM40.0217 14.2727V23H38.1765V14.2727H40.0217ZM48.8395 14.2727V23H47.2457L43.4489 17.5071H43.3849V23H41.5398V14.2727H43.1591L46.9261 19.7614H47.0028V14.2727H48.8395ZM56.1509 17.0938C56.0913 16.8864 56.0075 16.7031 55.8995 16.544C55.7915 16.3821 55.6594 16.2457 55.5032 16.1349C55.3498 16.0213 55.1737 15.9347 54.9748 15.875C54.7788 15.8153 54.5614 15.7855 54.3228 15.7855C53.8768 15.7855 53.4847 15.8963 53.1467 16.1179C52.8114 16.3395 52.5501 16.6619 52.3626 17.0852C52.1751 17.5057 52.0813 18.0199 52.0813 18.6278C52.0813 19.2358 52.1737 19.7528 52.3583 20.179C52.543 20.6051 52.8043 20.9304 53.1424 21.1548C53.4805 21.3764 53.8796 21.4872 54.3398 21.4872C54.7575 21.4872 55.114 21.4134 55.4094 21.2656C55.7077 21.1151 55.935 20.9034 56.0913 20.6307C56.2504 20.358 56.3299 20.0355 56.3299 19.6634L56.7049 19.7188H54.4549V18.3295H58.1069V19.429C58.1069 20.196 57.945 20.8551 57.6211 21.4062C57.2972 21.9545 56.8512 22.3778 56.283 22.6761C55.7148 22.9716 55.0643 23.1193 54.3313 23.1193C53.5131 23.1193 52.7944 22.9389 52.1751 22.5781C51.5558 22.2145 51.0728 21.6989 50.7262 21.0312C50.3825 20.3608 50.2106 19.5653 50.2106 18.6449C50.2106 17.9375 50.3129 17.3068 50.5174 16.7528C50.7248 16.196 51.0146 15.7244 51.3867 15.3381C51.7589 14.9517 52.1921 14.6577 52.6864 14.456C53.1808 14.2543 53.7163 14.1534 54.293 14.1534C54.7873 14.1534 55.2475 14.2259 55.6737 14.3707C56.0998 14.5128 56.4776 14.7145 56.8072 14.9759C57.1396 15.2372 57.4109 15.5483 57.6211 15.9091C57.8313 16.267 57.9663 16.6619 58.0259 17.0938H56.1509ZM67.0046 16.7827C66.9705 16.4389 66.8242 16.1719 66.5657 15.9815C66.3072 15.7912 65.9563 15.696 65.5131 15.696C65.212 15.696 64.9577 15.7386 64.7504 15.8239C64.543 15.9062 64.3839 16.0213 64.2731 16.169C64.1651 16.3168 64.1112 16.4844 64.1112 16.6719C64.1055 16.8281 64.1381 16.9645 64.2092 17.081C64.283 17.1974 64.3839 17.2983 64.5117 17.3835C64.6396 17.4659 64.7873 17.5384 64.9549 17.6009C65.1225 17.6605 65.3015 17.7116 65.4918 17.7543L66.2759 17.9418C66.6566 18.027 67.006 18.1406 67.3242 18.2827C67.6424 18.4247 67.918 18.5994 68.1509 18.8068C68.3839 19.0142 68.5643 19.2585 68.6921 19.5398C68.8228 19.821 68.8896 20.1435 68.8924 20.5071C68.8896 21.0412 68.7532 21.5043 68.4833 21.8963C68.2163 22.2855 67.8299 22.5881 67.3242 22.804C66.8214 23.017 66.2148 23.1236 65.5046 23.1236C64.8001 23.1236 64.1864 23.0156 63.6637 22.7997C63.1438 22.5838 62.7376 22.2642 62.445 21.8409C62.1552 21.4148 62.0032 20.8878 61.989 20.2599H63.7745C63.7944 20.5526 63.8782 20.7969 64.0259 20.9929C64.1765 21.1861 64.3768 21.3324 64.6268 21.4318C64.8796 21.5284 65.1651 21.5767 65.4833 21.5767C65.7958 21.5767 66.0671 21.5312 66.2972 21.4403C66.5302 21.3494 66.7106 21.223 66.8384 21.0611C66.9663 20.8991 67.0302 20.7131 67.0302 20.5028C67.0302 20.3068 66.9719 20.142 66.8555 20.0085C66.7418 19.875 66.5742 19.7614 66.3526 19.6676C66.1339 19.5739 65.8654 19.4886 65.5472 19.4119L64.5969 19.1733C63.8612 18.9943 63.2802 18.7145 62.854 18.3338C62.4279 17.9531 62.2163 17.4403 62.2191 16.7955C62.2163 16.267 62.3569 15.8054 62.641 15.4105C62.9279 15.0156 63.3214 14.7074 63.8214 14.4858C64.3214 14.2642 64.8896 14.1534 65.5259 14.1534C66.1737 14.1534 66.739 14.2642 67.2219 14.4858C67.7077 14.7074 68.0856 15.0156 68.3555 15.4105C68.6254 15.8054 68.7646 16.2628 68.7731 16.7827H67.0046ZM78.1534 18.6364C78.1534 19.5881 77.973 20.3977 77.6122 21.0653C77.2543 21.733 76.7656 22.2429 76.1463 22.5952C75.5298 22.9446 74.8366 23.1193 74.0668 23.1193C73.2912 23.1193 72.5952 22.9432 71.9787 22.5909C71.3622 22.2386 70.875 21.7287 70.517 21.0611C70.1591 20.3935 69.9801 19.5852 69.9801 18.6364C69.9801 17.6847 70.1591 16.875 70.517 16.2074C70.875 15.5398 71.3622 15.0312 71.9787 14.6818C72.5952 14.3295 73.2912 14.1534 74.0668 14.1534C74.8366 14.1534 75.5298 14.3295 76.1463 14.6818C76.7656 15.0312 77.2543 15.5398 77.6122 16.2074C77.973 16.875 78.1534 17.6847 78.1534 18.6364ZM76.2827 18.6364C76.2827 18.0199 76.1903 17.5 76.0057 17.0767C75.8239 16.6534 75.5668 16.3324 75.2344 16.1136C74.902 15.8949 74.5128 15.7855 74.0668 15.7855C73.6207 15.7855 73.2315 15.8949 72.8991 16.1136C72.5668 16.3324 72.3082 16.6534 72.1236 17.0767C71.9418 17.5 71.8509 18.0199 71.8509 18.6364C71.8509 19.2528 71.9418 19.7727 72.1236 20.196C72.3082 20.6193 72.5668 20.9403 72.8991 21.1591C73.2315 21.3778 73.6207 21.4872 74.0668 21.4872C74.5128 21.4872 74.902 21.3778 75.2344 21.1591C75.5668 20.9403 75.8239 20.6193 76.0057 20.196C76.1903 19.7727 76.2827 19.2528 76.2827 18.6364ZM87.5401 18.6364C87.5401 19.5881 87.3597 20.3977 86.9989 21.0653C86.641 21.733 86.1523 22.2429 85.533 22.5952C84.9165 22.9446 84.2234 23.1193 83.4535 23.1193C82.6779 23.1193 81.9819 22.9432 81.3654 22.5909C80.7489 22.2386 80.2617 21.7287 79.9038 21.0611C79.5458 20.3935 79.3668 19.5852 79.3668 18.6364C79.3668 17.6847 79.5458 16.875 79.9038 16.2074C80.2617 15.5398 80.7489 15.0312 81.3654 14.6818C81.9819 14.3295 82.6779 14.1534 83.4535 14.1534C84.2234 14.1534 84.9165 14.3295 85.533 14.6818C86.1523 15.0312 86.641 15.5398 86.9989 16.2074C87.3597 16.875 87.5401 17.6847 87.5401 18.6364ZM85.6694 18.6364C85.6694 18.0199 85.5771 17.5 85.3924 17.0767C85.2106 16.6534 84.9535 16.3324 84.6211 16.1136C84.2887 15.8949 83.8995 15.7855 83.4535 15.7855C83.0075 15.7855 82.6183 15.8949 82.2859 16.1136C81.9535 16.3324 81.695 16.6534 81.5103 17.0767C81.3285 17.5 81.2376 18.0199 81.2376 18.6364C81.2376 19.2528 81.3285 19.7727 81.5103 20.196C81.695 20.6193 81.9535 20.9403 82.2859 21.1591C82.6183 21.3778 83.0075 21.4872 83.4535 21.4872C83.8995 21.4872 84.2887 21.3778 84.6211 21.1591C84.9535 20.9403 85.2106 20.6193 85.3924 20.196C85.5771 19.7727 85.6694 19.2528 85.6694 18.6364ZM96.2067 14.2727V23H94.6129L90.8161 17.5071H90.7521V23H88.907V14.2727H90.5263L94.2933 19.7614H94.37V14.2727H96.2067Z" fill="white"/>
<defs>
<linearGradient id="paint0_linear_7894_124361" x1="105" y1="5" x2="-1.57991" y2="18.7829" gradientUnits="userSpaceOnUse">
<stop stop-color="#E73636"/>
<stop offset="1" stop-color="#E73636" stop-opacity="0.7"/>
</linearGradient>
</defs>
</svg>
