<svg xmlns="http://www.w3.org/2000/svg" xmlns:xlink="http://www.w3.org/1999/xlink" width="24" height="24" viewBox="0 0 24 24">
  <defs>
    <clipPath id="clip-Store">
      <rect width="24" height="24"/>
    </clipPath>
  </defs>
  <g id="Store" clip-path="url(#clip-Store)">
    <g id="Group_28293" data-name="Group 28293" transform="translate(-561.8 -541.788)">
      <path id="Path_64654" data-name="Path 64654" d="M582.77,561.316h-.328v-8.561a2.678,2.678,0,0,0,1.234-2.254.289.289,0,0,0-.038-.143l-2.29-4.007a.907.907,0,0,0-.786-.456H567.089a.907.907,0,0,0-.786.456l-2.29,4.007a.289.289,0,0,0-.038.143,2.678,2.678,0,0,0,1.234,2.254v8.561h-.328a.289.289,0,0,0,0,.577H582.77a.289.289,0,0,0,0-.577ZM581,552.6a2.1,2.1,0,0,1-2.082-1.813h4.163A2.1,2.1,0,0,1,581,552.6ZM566.8,546.637a.329.329,0,0,1,.285-.165h13.472a.329.329,0,0,1,.285.165l2.043,3.576H564.761Zm11.493,4.153a2.1,2.1,0,0,1-4.163,0Zm-4.781,0a2.1,2.1,0,0,1-4.163,0Zm-8.944,0h4.163a2.1,2.1,0,0,1-4.163,0Zm15.75,10.527H577.2v-.965h3.124Zm0-1.542H577.2V554.49h3.124Zm1.542,1.542H580.9V554.2a.289.289,0,0,0-.289-.289h-3.7a.289.289,0,0,0-.289.289v7.114H565.786v-8.281a3.5,3.5,0,0,1,5.649.145,2.678,2.678,0,0,1,4.781,0,2.678,2.678,0,0,1,4.781,0,2.667,2.667,0,0,0,.868-.145Z" transform="translate(0 0)" fill="#41434c" stroke="#41434c" stroke-width="0.2"/>
      <path id="Path_64655" data-name="Path 64655" d="M695.47,900.878h-8.328a.289.289,0,0,0-.289.289v5.86a.289.289,0,0,0,.289.289h8.328a.289.289,0,0,0,.289-.289v-5.86A.289.289,0,0,0,695.47,900.878Zm-.289,5.86h-7.751v-5.283h7.751Z" transform="translate(-120.103 -346.965)" fill="#41434c" stroke="#41434c" stroke-width="0.2"/>
    </g>
  </g>
</svg>
