<svg width="24" height="24" viewBox="0 0 24 24" fill="none" xmlns="http://www.w3.org/2000/svg">
<path fill-rule="evenodd" clip-rule="evenodd" d="M16.3278 1L4.4528 1C3.36426 1 2.47363 1.9 2.47363 3L2.47363 17H4.4528L4.4528 3L16.3278 3L16.3278 1ZM19.2965 5L8.41113 5C7.32259 5 6.43197 5.9 6.43197 7L6.43197 21C6.43197 22.1 7.32259 23 8.41113 23L19.2965 23C20.3851 23 21.2757 22.1 21.2757 21L21.2757 7C21.2757 5.9 20.3851 5 19.2965 5ZM8.41113 21L19.2966 21L19.2966 7L8.41113 7L8.41113 21Z" fill="black" fill-opacity="0.54"/>
</svg>
