<?xml version="1.0" encoding="UTF-8" standalone="no"?>
<svg width="24px" height="24px" viewBox="0 0 24 24" version="1.1" xmlns="http://www.w3.org/2000/svg" xmlns:xlink="http://www.w3.org/1999/xlink">
    <!-- Generator: Sketch 41.2 (35397) - http://www.bohemiancoding.com/sketch -->
    <title>coupon</title>
    <desc>Created with Sketch.</desc>
    <defs></defs>
    <g id="assets" stroke="none" stroke-width="1" fill="none" fill-rule="evenodd" stroke-linecap="round" stroke-linejoin="round">
        <g id="coupon" stroke="#41434C">
            <g id="Imported-Layers" transform="translate(2.000000, 2.000000)">
                <path d="M19.4763636,11.9445455 L8.04181818,0.50969697 C7.62333333,0.0906060606 6.91454545,0.12 6.45939394,0.575757576 L4.84969697,2.18515152 C5.34848485,2.53121212 5.67515152,3.10666667 5.67515152,3.75939394 C5.67515152,4.81787879 4.8169697,5.67606061 3.75848485,5.67606061 C3.10575758,5.67606061 2.53060606,5.34939394 2.18424242,4.85121212 L0.621818182,6.41363636 C0.166666667,6.86878788 0.136666667,7.57727273 0.555454545,7.99575758 L11.99,19.4306061 C12.4084848,19.8493939 13.1169697,19.819697 13.5727273,19.3642424 L15.05,17.8866667 C14.5718182,17.5384848 14.2590909,16.9754545 14.2590909,16.3381818 C14.2590909,15.2793939 15.1178788,14.4212121 16.1763636,14.4212121 C16.8130303,14.4212121 17.3760606,14.7333333 17.7251515,15.2118182 L19.4106061,13.5263636 C19.8651515,13.0715152 19.8948485,12.3630303 19.4763636,11.9445455 L19.4763636,11.9445455 Z" id="Stroke-1"></path>
                <polyline id="Stroke-2" points="6.05287879 9.46099799 10.8524755 14.2608043 14.3680303 10.7454591 9.56843356 5.94586236 6.05287879 9.46099799"></polyline>
            </g>
        </g>
    </g>
</svg>