<svg xmlns="http://www.w3.org/2000/svg" xmlns:xlink="http://www.w3.org/1999/xlink" width="24" height="24" viewBox="0 0 24 24">
  <defs>
    <clipPath id="clip-Currency">
      <rect width="24" height="24"/>
    </clipPath>
  </defs>
  <g id="Currency" clip-path="url(#clip-Currency)">
    <rect id="Rectangle" width="24" height="24" fill="none"/>
    <g id="low-price" transform="translate(8 5)">
      <g id="Group_28819" data-name="Group 28819" transform="translate(0)">
        <path id="Path_64748" data-name="Path 64748" d="M1048.792,654.294h-3.7c-.548,0-.562-.012-.562-.562,0-.189.013-.38,0-.568-.024-.316.141-.411.422-.41,1.094,0,2.187,0,3.281,0h.367l.064-.07a4.8,4.8,0,0,0-.5-.518,2.88,2.88,0,0,0-1.711-.472c-.5-.024-1-.016-1.506-.01-.293,0-.434-.121-.43-.421.006-.346,0-.692,0-1.038,0-.24.092-.368.357-.367q3.817.007,7.632,0c.257,0,.365.117.359.367-.006.234,0,.469-.006.7-.007.413-.039.447-.466.451-.536,0-1.072,0-1.606,0h-.322c.174.431.323.833.5,1.221a.376.376,0,0,0,.286.14c.4.016.8.012,1.205,0,.292-.006.434.111.421.418-.014.256,0,.514,0,.772s-.129.358-.375.357c-.413,0-.825,0-1.239,0-.166,0-.253.034-.3.225a3.58,3.58,0,0,1-2.755,2.787c-.3.085-.6.152-.955.242.4.456.791.879,1.162,1.316q1.5,1.773,2.991,3.56a.562.562,0,0,1,.124.435c-.024.082-.252.145-.39.149-.524.017-1.049.019-1.573,0a.608.608,0,0,1-.393-.183q-2.247-2.55-4.463-5.12a.9.9,0,0,1-.192-.474c-.03-.3,0-.6-.009-.9s.116-.428.437-.437a16.342,16.342,0,0,0,2.129-.14,2.036,2.036,0,0,0,1.618-1.16A2.833,2.833,0,0,0,1048.792,654.294Z" transform="translate(-1044.511 -649.858)" fill="#41434c"/>
      </g>
    </g>
  </g>
</svg>
