<?xml version="1.0" encoding="UTF-8"?>
<svg id="Layer_1" data-name="Layer 1" xmlns="http://www.w3.org/2000/svg" viewBox="0 0 30 30">
  <defs>
    <style>
      .cls-1, .cls-2 {
        fill: #ecebff;
      }

      .cls-3 {
        fill: #8ea4ff;
      }

      .cls-2, .cls-4 {
        stroke: #2b2dbe;
        stroke-linecap: round;
        stroke-linejoin: round;
        stroke-width: .5px;
      }

      .cls-4 {
        fill: none;
      }
    </style>
  </defs>
  <circle class="cls-1" cx="15" cy="15" r="15"/>
  <g>
    <path class="cls-2" d="m18.61,20.89H7.79c-.87,0-1.57-.7-1.57-1.57v-9.01c0-.87.7-1.57,1.57-1.57h13.58c.87,0,1.57.7,1.57,1.57v6.14"/>
    <path class="cls-3" d="m18.58,20.89H7.69c-.87,0-1.58-.69-1.58-1.54v-8.82c0-.85.71-1.54,1.58-1.54h13.67c.87,0,1.58.69,1.58,1.54v6.02"/>
    <path class="cls-4" d="m18.61,20.89H7.79c-.87,0-1.57-.7-1.57-1.57v-9.01c0-.87.7-1.57,1.57-1.57h13.58c.87,0,1.57.7,1.57,1.57v6.14"/>
    <rect class="cls-2" x="6.22" y="12.16" width="16.72" height="2.19"/>
    <rect class="cls-2" x="7.83" y="16.41" width="4.66" height="2.56" rx=".34" ry=".34"/>
    <path class="cls-2" d="m24.99,16.99v2.19s0,3.44-3.2,4.16h-.09c-3.2-.72-3.2-4.16-3.2-4.16v-2.19c2.37,0,3.2-.81,3.2-.81l.05-.05s.87.86,3.24.86Z"/>
    <polyline class="cls-2" points="20.37 19.82 21.34 20.48 23.44 18.47"/>
    <line class="cls-4" x1="18.51" y1="17.74" x2="17.17" y2="17.74"/>
    <line class="cls-4" x1="15.87" y1="17.74" x2="14.57" y2="17.74"/>
  </g>
</svg>