<?xml version="1.0" encoding="UTF-8"?>
<svg width="22px" height="22px" viewBox="0 0 22 22" version="1.1" xmlns="http://www.w3.org/2000/svg" xmlns:xlink="http://www.w3.org/1999/xlink">
    <!-- Generator: Sketch 63.1 (92452) - https://sketch.com -->
    <title>Developers</title>
    <desc>Created with Sketch.</desc>
    <g id="Icons" stroke="none" stroke-width="1" fill="none" fill-rule="evenodd">
        <g id="Developers" transform="translate(1.000000, 1.000000)">
            <rect id="Rectangle-Copy-9" fill="#FFFFFF" fill-rule="nonzero" opacity="0.01" x="0" y="0" width="20" height="20"></rect>
            <path d="M12.1825833,2.34458333 L11.4975833,0.417083333 L8.50258333,0.417083333 L7.81758333,2.34458333 C7.22008333,2.50375 6.65425,2.74291667 6.12841667,3.03791667 L4.28758333,2.16125 C3.22591667,3.22458333 3.22425,3.22625 2.16175,4.28791667 L3.03758333,6.12875 C2.74258333,6.65458333 2.50425,7.22041667 2.34425,7.81708333 L0.41675,8.50291667 L0.41675,11.4970833 L2.34425,12.1829167 C2.50425,12.7795833 2.74258333,13.3454167 3.03758333,13.87125 L2.16175,15.7120833 C3.22425,16.77375 3.22591667,16.7754167 4.28758333,17.83875 L6.12841667,16.9620833 C6.65425,17.2579167 7.22008333,17.49625 7.81758333,17.6554167 L8.50258333,19.58375 L11.4975833,19.58375 L12.1825833,17.6554167 C12.7800833,17.49625 13.3459167,17.2579167 13.8709167,16.9620833 L15.71175,17.83875 C16.77425,16.7754167 16.7759167,16.77375 17.8384167,15.7120833 L16.96175,13.87125 C17.2575833,13.3454167 17.4959167,12.7795833 17.6550833,12.1829167 L19.5834167,11.4970833 L19.5834167,8.50291667 L17.6550833,7.81708333 C17.4959167,7.22041667 17.2575833,6.65458333 16.96175,6.12875 L17.8384167,4.28791667 C16.7759167,3.22625 16.77425,3.22458333 15.71175,2.16125 L13.8709167,3.03791667 C13.3459167,2.74291667 12.7800833,2.50375 12.1825833,2.34458333 Z" id="Stroke-1" stroke="#5C6BDD" stroke-linecap="round" stroke-linejoin="round"></path>
            <path d="M15.8333333,10 C15.8333333,13.2216667 13.2216667,15.8333333 10,15.8333333 C6.77833333,15.8333333 4.16666667,13.2216667 4.16666667,10 C4.16666667,6.77833333 6.77833333,4.16666667 10,4.16666667 C13.2216667,4.16666667 15.8333333,6.77833333 15.8333333,10 Z" id="Stroke-3" stroke="#5C6BDD" stroke-linecap="round" stroke-linejoin="round"></path>
            <line x1="5" y1="12.5" x2="10" y2="10" id="Stroke-5" stroke="#5C6BDD" stroke-linecap="round" stroke-linejoin="round"></line>
            <line x1="15" y1="12.5" x2="10" y2="10" id="Stroke-7" stroke="#5C6BDD" stroke-linecap="round" stroke-linejoin="round"></line>
            <line x1="10" y1="4.16666667" x2="10" y2="10" id="Stroke-9" stroke="#5C6BDD" stroke-linecap="round" stroke-linejoin="round"></line>
        </g>
    </g>
</svg>