<svg width="48" height="48" viewBox="0 0 48 48" fill="none" xmlns="http://www.w3.org/2000/svg">
<path d="M39.4737 41.5899C42.6363 38.4273 44.7538 34.3715 45.5412 29.9688C46.3285 25.566 45.7478 21.0277 43.8772 16.9651C42.0067 12.9024 38.9362 9.51049 35.0791 7.24609C31.2221 4.9817 26.7638 3.95358 22.3047 4.3002C17.8455 4.64682 13.5997 6.35151 10.1389 9.18473C6.67812 12.0179 4.16862 15.8436 2.94835 20.1465C1.72808 24.4494 1.85564 29.0229 3.31387 33.2512C4.77209 37.4794 7.49094 41.1592 11.1043 43.7951" stroke="#27AE60" stroke-width="4" stroke-linecap="round"/>
<path d="M4.57934 16.0352C2.17835 20.6601 1.50664 25.99 2.68508 31.066C3.86351 36.1421 6.81472 40.6309 11.0077 43.725" stroke="#27AE60" stroke-width="4" stroke-linecap="round"/>
<circle cx="24" cy="26" r="14" fill="#219653"/>
<path d="M18.9158 27.1668L21.8307 29.9213L28.8288 22.5003" stroke="white" stroke-width="2" stroke-linecap="round" stroke-linejoin="round"/>
</svg>
