<svg width="30" height="30" viewBox="0 0 30 30" fill="none" xmlns="http://www.w3.org/2000/svg">
<rect width="30" height="30" rx="15" fill="#E7EEFF"/>
<mask id="mask0_18323_243744" style="mask-type:alpha" maskUnits="userSpaceOnUse" x="7" y="7" width="16" height="16">
<rect x="7" y="7" width="16" height="16" fill="#D9D9D9"/>
</mask>
<g mask="url(#mask0_18323_243744)">
<path d="M9.86699 19.4166C9.53366 19.4166 9.25033 19.3004 9.01699 19.0681C8.78366 18.8358 8.66699 18.5537 8.66699 18.2219V10.6552C8.66699 10.3233 8.78366 10.0412 9.01699 9.80891C9.25033 9.5766 9.53366 9.46045 9.86699 9.46045H20.1337C20.467 9.46045 20.7503 9.5766 20.9837 9.80891C21.217 10.0412 21.3337 10.3233 21.3337 10.6552V18.2219C21.3337 18.5537 21.217 18.8358 20.9837 19.0681C20.7503 19.3004 20.467 19.4166 20.1337 19.4166H9.86699ZM15.0003 14.8036L9.66699 11.4185V18.2219C9.66699 18.2772 9.68655 18.3243 9.72566 18.3632C9.76433 18.4017 9.81144 18.421 9.86699 18.421H20.1337C20.1892 18.421 20.2365 18.4017 20.2757 18.3632C20.3143 18.3243 20.3337 18.2772 20.3337 18.2219V11.4185L15.0003 14.8036ZM15.0003 13.7748L20.2337 10.4561H9.76699L15.0003 13.7748ZM9.66699 18.2219C9.66699 18.2772 9.68655 18.3243 9.72566 18.3632C9.76433 18.4017 9.81144 18.421 9.86699 18.421H9.66699C9.66699 18.421 9.66699 18.4017 9.66699 18.3632C9.66699 18.3243 9.66699 18.2772 9.66699 18.2219Z" fill="#2E31BE"/>
</g>
</svg>
