<svg width="30" height="30" viewBox="0 0 30 30" fill="none" xmlns="http://www.w3.org/2000/svg">
<rect width="30" height="30" rx="15" fill="#E7EEFF"/>
<mask id="mask0_18323_243736" style="mask-type:alpha" maskUnits="userSpaceOnUse" x="7" y="7" width="16" height="16">
<rect x="7" y="7" width="16" height="16" fill="#D9D9D9"/>
</mask>
<g mask="url(#mask0_18323_243736)">
<path d="M15.7663 14.2724H16.5663C16.5775 13.9737 16.6163 13.7525 16.683 13.6087C16.7497 13.4649 16.9108 13.2713 17.1663 13.0279C17.4775 12.7292 17.6886 12.4803 17.7997 12.2812C17.9108 12.0821 17.9663 11.8442 17.9663 11.5677C17.9663 11.1031 17.7997 10.7159 17.4663 10.4061C17.133 10.0964 16.6997 9.94151 16.1663 9.94151C15.7552 9.94151 15.3915 10.0548 15.075 10.2813C14.7581 10.5083 14.533 10.8154 14.3997 11.2026L15.1163 11.5013C15.2275 11.2358 15.3719 11.0338 15.5497 10.8953C15.7275 10.7573 15.933 10.6882 16.1663 10.6882C16.4552 10.6882 16.6941 10.7738 16.883 10.9451C17.0719 11.1168 17.1663 11.3409 17.1663 11.6175C17.1663 11.7834 17.1192 11.9409 17.025 12.09C16.9303 12.2396 16.7663 12.4195 16.533 12.6297C16.2108 12.9062 16.0026 13.1412 15.9083 13.3346C15.8137 13.5284 15.7663 13.841 15.7663 14.2724ZM16.1663 16.2803C16.333 16.2803 16.4775 16.2194 16.5997 16.0977C16.7219 15.976 16.783 15.8322 16.783 15.6663C16.783 15.5004 16.7219 15.3592 16.5997 15.2428C16.4775 15.1269 16.333 15.0689 16.1663 15.0689C15.9997 15.0689 15.8552 15.1269 15.733 15.2428C15.6108 15.3592 15.5497 15.5004 15.5497 15.6663C15.5497 15.8322 15.6108 15.976 15.733 16.0977C15.8552 16.2194 15.9997 16.2803 16.1663 16.2803ZM12.3663 18.089C12.033 18.089 11.7497 17.9728 11.5163 17.7405C11.283 17.5082 11.1663 17.2261 11.1663 16.8942V9.32755C11.1663 8.99568 11.283 8.71359 11.5163 8.48128C11.7497 8.24897 12.033 8.13281 12.3663 8.13281H19.9663C20.2997 8.13281 20.583 8.24897 20.8163 8.48128C21.0497 8.71359 21.1663 8.99568 21.1663 9.32755V16.8942C21.1663 17.2261 21.0497 17.5082 20.8163 17.7405C20.583 17.9728 20.2997 18.089 19.9663 18.089H12.3663ZM12.3663 17.0933H19.9663C20.0108 17.0933 20.0552 17.0712 20.0997 17.027C20.1441 16.9827 20.1663 16.9385 20.1663 16.8942V9.32755C20.1663 9.2833 20.1441 9.23905 20.0997 9.1948C20.0552 9.15055 20.0108 9.12843 19.9663 9.12843H12.3663C12.3219 9.12843 12.2775 9.15055 12.233 9.1948C12.1886 9.23905 12.1663 9.2833 12.1663 9.32755V16.8942C12.1663 16.9385 12.1886 16.9827 12.233 17.027C12.2775 17.0712 12.3219 17.0933 12.3663 17.0933ZM10.033 20.4121C9.69967 20.4121 9.41634 20.2959 9.18301 20.0636C8.94967 19.8313 8.83301 19.5492 8.83301 19.2173V10.655H9.83301V19.2173C9.83301 19.2616 9.85523 19.3058 9.89967 19.3501C9.94412 19.3943 9.98856 19.4164 10.033 19.4164H18.633V20.4121H10.033Z" fill="#2E31BE"/>
</g>
</svg>
