<?xml version="1.0" encoding="UTF-8"?>
<svg width="40px" height="40px" viewBox="0 0 40 40" version="1.1" xmlns="http://www.w3.org/2000/svg" xmlns:xlink="http://www.w3.org/1999/xlink">
    <!-- Generator: Sketch 64 (93537) - https://sketch.com -->
    <title>Filter</title>
    <desc>Created with Sketch.</desc>
    <g id="Setting" stroke="none" stroke-width="1" fill="none" fill-rule="evenodd">
        <g transform="translate(-694.000000, -234.000000)" id="Rectangle-223-Copy-11">
            <g transform="translate(664.000000, 202.000000)">
                <g id="Filter" transform="translate(30.000000, 32.000000)">
                    <rect id="Rectangle-Copy-4" fill-opacity="0.01" fill="#FFFFFF" x="0" y="0" width="40" height="40"></rect>
                    <g id="Group-17" transform="translate(5.000000, 5.000000)" stroke="#9B9B9B" stroke-linecap="round" stroke-linejoin="round" stroke-width="2">
                        <line x1="3.66079449" y1="19.359614" x2="3.66079449" y2="0.279620593" id="Stroke-1"></line>
                        <line x1="3.66079449" y1="29.2285761" x2="3.66079449" y2="25.9389221" id="Stroke-3"></line>
                        <path d="M3.66079449,19.359614 C5.52459438,19.359614 7.03479864,20.8320632 7.03479864,22.6492681 C7.03479864,24.4664729 5.52459438,25.9389221 3.66079449,25.9389221 C1.79699461,25.9389221 0.286790352,24.4664729 0.286790352,22.6492681 C0.286790352,20.8320632 1.79699461,19.359614 3.66079449,19.359614 Z" id="Stroke-5"></path>
                        <line x1="15.8072094" y1="4.88513625" x2="15.8072094" y2="0.279620593" id="Stroke-7"></line>
                        <line x1="15.8072094" y1="29.2285761" x2="15.8072094" y2="11.4644443" id="Stroke-9"></line>
                        <path d="M15.8072094,4.88513625 C17.6710093,4.88513625 19.1812135,6.35758539 19.1812135,8.17479028 C19.1812135,9.99199518 17.6710093,11.4644443 15.8072094,11.4644443 C13.9434095,11.4644443 12.4332053,9.99199518 12.4332053,8.17479028 C12.4332053,6.35758539 13.9434095,4.88513625 15.8072094,4.88513625 Z" id="Stroke-11"></path>
                        <line x1="26.6040227" y1="23.3071989" x2="26.6040227" y2="0.279620593" id="Stroke-13"></line>
                        <path d="M26.6040227,23.3071989 C28.4678225,23.3071989 29.9780268,24.779648 29.9780268,26.5968529 C29.9780268,28.4140578 28.4678225,29.8865069 26.6040227,29.8865069 C24.7402228,29.8865069 23.2300185,28.4140578 23.2300185,26.5968529 C23.2300185,24.779648 24.7402228,23.3071989 26.6040227,23.3071989 Z" id="Stroke-15"></path>
                    </g>
                </g>
            </g>
        </g>
    </g>
</svg>