<svg width="25" height="24" viewBox="0 0 25 24" fill="none" xmlns="http://www.w3.org/2000/svg">
<circle cx="12.5" cy="12" r="12" fill="#F8F8F8"/>
<path d="M12.0128 16.1193C11.4446 16.1193 10.9361 16.0128 10.4872 15.7997C10.0384 15.5838 9.68182 15.2884 9.41761 14.9134C9.15625 14.5384 9.01705 14.1094 9 13.6264H10.5341C10.5625 13.9844 10.7173 14.277 10.9986 14.5043C11.2798 14.7287 11.6179 14.8409 12.0128 14.8409C12.3224 14.8409 12.598 14.7699 12.8395 14.6278C13.081 14.4858 13.2713 14.2884 13.4105 14.0355C13.5497 13.7827 13.6179 13.4943 13.6151 13.1705C13.6179 12.8409 13.5483 12.5483 13.4062 12.2926C13.2642 12.0369 13.0696 11.8366 12.8224 11.6918C12.5753 11.544 12.2912 11.4702 11.9702 11.4702C11.7088 11.4673 11.4517 11.5156 11.1989 11.6151C10.946 11.7145 10.7457 11.8452 10.598 12.0071L9.17045 11.7727L9.62642 7.27273H14.6889V8.59375H10.9347L10.6832 10.9077H10.7344C10.8963 10.7173 11.125 10.5597 11.4205 10.4347C11.7159 10.3068 12.0398 10.2429 12.392 10.2429C12.9205 10.2429 13.392 10.3679 13.8068 10.6179C14.2216 10.8651 14.5483 11.206 14.7869 11.6406C15.0256 12.0753 15.1449 12.5724 15.1449 13.1321C15.1449 13.7088 15.0114 14.223 14.7443 14.6747C14.4801 15.1236 14.1122 15.4773 13.6406 15.7358C13.1719 15.9915 12.6293 16.1193 12.0128 16.1193Z" fill="#BDBDBD"/>
</svg>
