<svg width="24" height="24" viewBox="0 0 24 24" fill="none" xmlns="http://www.w3.org/2000/svg">
<circle cx="12" cy="12" r="12" fill="#2E31BE"/>
<path d="M11.5128 16.1193C10.9446 16.1193 10.4361 16.0128 9.98722 15.7997C9.53835 15.5838 9.18182 15.2884 8.91761 14.9134C8.65625 14.5384 8.51705 14.1094 8.5 13.6264H10.0341C10.0625 13.9844 10.2173 14.277 10.4986 14.5043C10.7798 14.7287 11.1179 14.8409 11.5128 14.8409C11.8224 14.8409 12.098 14.7699 12.3395 14.6278C12.581 14.4858 12.7713 14.2884 12.9105 14.0355C13.0497 13.7827 13.1179 13.4943 13.1151 13.1705C13.1179 12.8409 13.0483 12.5483 12.9062 12.2926C12.7642 12.0369 12.5696 11.8366 12.3224 11.6918C12.0753 11.544 11.7912 11.4702 11.4702 11.4702C11.2088 11.4673 10.9517 11.5156 10.6989 11.6151C10.446 11.7145 10.2457 11.8452 10.098 12.0071L8.67045 11.7727L9.12642 7.27273H14.1889V8.59375H10.4347L10.1832 10.9077H10.2344C10.3963 10.7173 10.625 10.5597 10.9205 10.4347C11.2159 10.3068 11.5398 10.2429 11.892 10.2429C12.4205 10.2429 12.892 10.3679 13.3068 10.6179C13.7216 10.8651 14.0483 11.206 14.2869 11.6406C14.5256 12.0753 14.6449 12.5724 14.6449 13.1321C14.6449 13.7088 14.5114 14.223 14.2443 14.6747C13.9801 15.1236 13.6122 15.4773 13.1406 15.7358C12.6719 15.9915 12.1293 16.1193 11.5128 16.1193Z" fill="white"/>
</svg>
