<svg width="40" height="40" viewBox="0 0 40 40" fill="none" xmlns="http://www.w3.org/2000/svg">
<circle cx="20" cy="20" r="20" fill="#F8F8F8"/>
<g clip-path="url(#clip0_6641_222757)">
<path d="M19.9897 8H28.9991C29.795 8 30.5583 8.31643 31.1211 8.87968C31.6838 9.44293 32 10.2069 32 11.0034V20C32 23.1826 30.7368 26.2348 28.4883 28.4853C26.2398 30.7357 23.1902 32 20.0103 32C18.434 32.0027 16.8727 31.6943 15.4157 31.0924C13.9587 30.4906 12.6345 29.6071 11.519 28.4925C10.4034 27.378 9.51845 26.0542 8.91463 24.5969C8.3108 23.1397 8 21.5776 8 20V20C8 16.8174 9.2632 13.7652 11.5117 11.5147C13.7602 9.26428 16.8099 8 19.9897 8V8Z" fill="#20A849"/>
<path d="M23.6788 15.6211H17.6805C17.2862 15.6211 16.8957 15.6989 16.5314 15.85C16.1671 16.0012 15.8361 16.2227 15.5574 16.502C15.2787 16.7812 15.0577 17.1127 14.9071 17.4775C14.7565 17.8423 14.6792 18.2332 14.6797 18.6279V23.7331C14.6797 23.8207 14.697 23.9075 14.7306 23.9884C14.7642 24.0693 14.8135 24.1428 14.8755 24.2046C14.9376 24.2664 15.0113 24.3154 15.0923 24.3486C15.1733 24.3818 15.2601 24.3987 15.3477 24.3982H23.6788C24.4747 24.3982 25.238 24.0818 25.8008 23.5185C26.3635 22.9553 26.6797 22.1914 26.6797 21.3948V18.6279C26.6801 18.2332 26.6029 17.8423 26.4522 17.4775C26.3016 17.1127 26.0807 16.7812 25.802 16.502C25.5233 16.2227 25.1923 16.0012 24.828 15.85C24.4637 15.6989 24.0732 15.6211 23.6788 15.6211ZM21.5138 22.0565H17.1804C17.1039 22.0565 17.0282 22.0414 16.9575 22.0121C16.8869 21.9829 16.8227 21.9399 16.7686 21.8858C16.7145 21.8317 16.6716 21.7674 16.6424 21.6967C16.6131 21.626 16.598 21.5502 16.598 21.4737C16.598 21.3971 16.6131 21.3213 16.6424 21.2506C16.6716 21.1799 16.7145 21.1156 16.7686 21.0615C16.8227 21.0074 16.8869 20.9645 16.9575 20.9352C17.0282 20.9059 17.1039 20.8908 17.1804 20.8908H21.5138C21.6683 20.8908 21.8164 20.9522 21.9256 21.0615C22.0348 21.1708 22.0962 21.3191 22.0962 21.4737C22.0962 21.6282 22.0348 21.7765 21.9256 21.8858C21.8164 21.9951 21.6683 22.0565 21.5138 22.0565ZM24.179 19.2005H17.1804C17.0999 19.2067 17.0191 19.1962 16.9429 19.1696C16.8667 19.143 16.7968 19.1009 16.7376 19.0461C16.6784 18.9912 16.6311 18.9246 16.5988 18.8506C16.5665 18.7766 16.5499 18.6967 16.5499 18.6159C16.5499 18.5352 16.5665 18.4553 16.5988 18.3813C16.6311 18.3073 16.6784 18.2407 16.7376 18.1858C16.7968 18.1309 16.8667 18.0889 16.9429 18.0623C17.0191 18.0357 17.0999 18.0252 17.1804 18.0314H24.179C24.3262 18.0427 24.4636 18.1092 24.564 18.2175C24.6643 18.3259 24.72 18.4682 24.72 18.6159C24.72 18.7637 24.6643 18.906 24.564 19.0144C24.4636 19.1227 24.3262 19.1892 24.179 19.2005Z" fill="white"/>
</g>
<defs>
<clipPath id="clip0_6641_222757">
<rect width="24" height="24" fill="white" transform="translate(8 8)"/>
</clipPath>
</defs>
</svg>
