<svg width="40" height="40" viewBox="0 0 40 40" fill="none" xmlns="http://www.w3.org/2000/svg">
<circle cx="20" cy="20" r="20" fill="#F8F8F8"/>
<g clip-path="url(#clip0_7737_120947)">
<path d="M19.9625 7.99985H28.976C29.3743 7.99665 29.7692 8.07279 30.1378 8.22384C30.5063 8.37489 30.8411 8.59782 31.1226 8.87962C31.4041 9.16142 31.6267 9.49646 31.7773 9.86518C31.9279 10.2339 32.0036 10.6289 32 11.0272V20.0374C32 26.6456 26.6457 31.9999 20.0375 31.9999H19.9692C18.3979 32.0012 16.8417 31.6929 15.3895 31.0925C13.9374 30.4921 12.6178 29.6114 11.5062 28.5008C10.3946 27.3902 9.51282 26.0713 8.9112 24.6197C8.30958 23.1681 7.99995 21.6121 8 20.0407C8 13.4137 13.3452 8.0681 19.9625 7.99985Z" fill="#25C16F"/>
<path d="M19.9625 13.3457C16.9277 13.3457 14.4673 15.8057 14.4673 18.841V22.5775C14.489 23.5776 15.2945 24.3831 16.2947 24.4048H17.849V20.1126H15.749V18.9126C15.8765 16.6528 17.7467 14.8851 20.0105 14.8851C22.2744 14.8851 24.14 16.6495 24.2675 18.9126V20.1126H22.1375V24.4078H23.5419V24.4761C23.5269 25.4038 22.7788 26.1523 21.8544 26.1636H20.177C20.0405 26.1636 19.8905 26.2318 19.8905 26.368C19.8938 26.4429 19.9251 26.5138 19.9781 26.5669C20.0311 26.6199 20.1021 26.6512 20.177 26.6545H21.8645C23.0664 26.647 24.0388 25.6746 24.0463 24.4727V24.3362C24.4477 24.2458 24.8061 24.0205 25.0616 23.698C25.3172 23.3754 25.4545 22.9751 25.4507 22.5636V18.9126C25.5189 15.8173 23.0642 13.3491 19.9554 13.3491L19.9625 13.3457Z" fill="white"/>
</g>
<defs>
<clipPath id="clip0_7737_120947">
<rect width="24" height="24" fill="white" transform="translate(8 8)"/>
</clipPath>
</defs>
</svg>
