<?xml version="1.0" encoding="UTF-8"?>
<svg xmlns="http://www.w3.org/2000/svg" xmlns:xlink="http://www.w3.org/1999/xlink" width="200px" height="100px" viewBox="0 0 1876 938" version="1.1">
<g id="surface1">
<path style=" stroke:none;fill-rule:nonzero;fill:rgb(30.196078%,30.196078%,30.196078%);fill-opacity:1;" d="M 1872.691406 557.582031 L 1816.078125 484.230469 L 1867.742188 442.820312 C 1871.042969 440.464844 1872.964844 436.621094 1872.867188 432.566406 C 1872.988281 429.289062 1871.738281 426.105469 1869.417969 423.789062 C 1867.097656 421.46875 1863.917969 420.21875 1860.640625 420.335938 C 1857.363281 420.167969 1854.183594 421.472656 1851.972656 423.894531 L 1777.824219 484.230469 L 1777.824219 351.722656 C 1777.722656 348.371094 1776.292969 345.199219 1773.851562 342.90625 C 1771.40625 340.613281 1768.152344 339.386719 1764.804688 339.492188 C 1761.523438 339.375 1758.34375 340.625 1756.023438 342.945312 C 1753.707031 345.265625 1752.457031 348.445312 1752.574219 351.722656 L 1752.574219 565.476562 C 1752.675781 568.824219 1754.105469 571.996094 1756.546875 574.292969 C 1758.992188 576.585938 1762.246094 577.8125 1765.59375 577.703125 C 1768.875 577.824219 1772.054688 576.574219 1774.375 574.253906 C 1776.691406 571.933594 1777.941406 568.753906 1777.824219 565.476562 L 1777.824219 513.8125 L 1795.179688 500.015625 L 1852.359375 572.1875 C 1854.785156 575.527344 1858.511719 577.679688 1862.613281 578.109375 C 1865.890625 578.226562 1869.074219 576.976562 1871.390625 574.660156 C 1873.710938 572.339844 1874.960938 569.160156 1874.84375 565.882812 C 1875.472656 562.964844 1874.746094 559.917969 1872.867188 557.597656 Z M 1671.148438 486.203125 C 1652.222656 479.503906 1636.859375 473.972656 1636.859375 460.320312 C 1636.859375 446.671875 1654.214844 442.964844 1663.675781 442.964844 C 1676.617188 442.269531 1688.910156 447.011719 1697.96875 455.988281 C 1700.183594 458.40625 1703.359375 459.710938 1706.636719 459.546875 C 1712.675781 459.402344 1717.539062 454.539062 1717.683594 448.496094 C 1717.597656 445.648438 1716.640625 442.890625 1714.933594 440.605469 C 1702.367188 425.730469 1683.496094 417.6875 1664.0625 418.929688 C 1632.117188 418.929688 1612.402344 435.492188 1612.402344 460.339844 C 1612.402344 491.492188 1640.011719 500.777344 1664.0625 509.640625 C 1682.210938 515.558594 1698.355469 520.6875 1698.355469 534.484375 C 1698.355469 548.28125 1677.84375 556.160156 1665.617188 556.160156 C 1650.734375 556.917969 1636.277344 551.308594 1625.777344 540.792969 C 1623.382812 538.519531 1620.363281 537.011719 1617.109375 536.457031 C 1611.066406 536.601562 1606.207031 541.464844 1606.058594 547.507812 C 1606.144531 550.355469 1607.105469 553.113281 1608.808594 555.398438 C 1623.378906 571.714844 1644.550781 580.558594 1666.394531 579.453125 C 1702.675781 579.453125 1723.976562 562.097656 1723.976562 534.484375 C 1723.976562 506.875 1695.183594 494.644531 1671.132812 486.363281 Z M 1522.078125 441.234375 C 1547.960938 441.234375 1560.898438 455.824219 1561.917969 484.230469 L 1477.921875 484.230469 C 1480.671875 456.617188 1496.070312 441.234375 1522.078125 441.234375 Z M 1586.78125 484.230469 C 1586.71875 469.542969 1582.476562 455.183594 1574.550781 442.820312 C 1562.382812 426.296875 1542.558594 417.207031 1522.09375 418.769531 C 1478.324219 418.769531 1453.074219 447.949219 1453.074219 498.835938 C 1453.074219 549.722656 1477.921875 579.679688 1525.636719 579.679688 C 1544.910156 580.375 1563.703125 573.59375 1578.09375 560.753906 C 1580.84375 558.722656 1582.453125 555.5 1582.429688 552.082031 C 1582.285156 546.042969 1577.421875 541.179688 1571.378906 541.035156 C 1568.878906 541.074219 1566.484375 542.0625 1564.683594 543.800781 C 1554.015625 552.605469 1540.648438 557.476562 1526.816406 557.597656 C 1498.414062 557.597656 1480.28125 538.675781 1479.488281 508.296875 L 1572.171875 508.296875 C 1586.761719 506.710938 1586.761719 492.929688 1586.761719 484.246094 Z M 1358.386719 556.773438 C 1329.207031 556.773438 1314.617188 537.847656 1314.617188 499.191406 C 1314.617188 460.53125 1329.207031 441.605469 1358.386719 441.605469 C 1375.96875 442.574219 1391.722656 452.777344 1399.796875 468.425781 L 1399.796875 513.394531 C 1399.40625 540.210938 1384.023438 556.773438 1358 556.773438 Z M 1412.023438 338.683594 C 1408.746094 338.566406 1405.566406 339.816406 1403.246094 342.136719 C 1400.925781 344.457031 1399.675781 347.636719 1399.796875 350.914062 L 1399.796875 435.316406 C 1388.609375 424.21875 1373.496094 417.984375 1357.738281 417.960938 C 1313.042969 417.960938 1290.695312 444.648438 1290.695312 498.027344 C 1290.695312 551.664062 1314.746094 578.871094 1359.714844 578.871094 C 1404.679688 578.871094 1425.964844 554.023438 1425.964844 512.617188 L 1425.964844 351.707031 C 1425.191406 344.40625 1419.105469 338.824219 1411.765625 338.683594 Z M 1202.605469 417.941406 C 1186.734375 417.253906 1171.441406 423.953125 1161.195312 436.089844 L 1161.195312 351.671875 C 1161.308594 348.1875 1159.972656 344.808594 1157.507812 342.339844 C 1155.039062 339.875 1151.660156 338.539062 1148.175781 338.652344 C 1144.75 338.511719 1141.429688 339.867188 1139.082031 342.367188 C 1136.734375 344.867188 1135.589844 348.261719 1135.945312 351.671875 L 1135.945312 565.429688 C 1135.835938 568.777344 1137.066406 572.03125 1139.359375 574.476562 C 1141.652344 576.917969 1144.824219 578.347656 1148.175781 578.449219 C 1151.660156 578.5625 1155.039062 577.226562 1157.507812 574.761719 C 1159.972656 572.292969 1161.308594 568.914062 1161.195312 565.429688 L 1161.195312 484.972656 C 1161.195312 455.792969 1175 441.203125 1202.605469 441.203125 C 1230.214844 441.203125 1239.675781 453.429688 1239.675781 482.609375 L 1239.675781 565.429688 C 1239.5625 568.914062 1240.898438 572.292969 1243.367188 574.761719 C 1245.832031 577.226562 1249.210938 578.5625 1252.699219 578.449219 C 1256.125 578.589844 1259.441406 577.234375 1261.789062 574.734375 C 1264.136719 572.234375 1265.28125 568.839844 1264.925781 565.429688 L 1264.925781 478.324219 C 1264.117188 438.484375 1243.625 417.992188 1202.214844 417.992188 Z M 1053.535156 486.167969 C 1034.609375 479.472656 1019.242188 473.941406 1019.242188 460.289062 C 1019.242188 446.636719 1036.597656 442.933594 1046.0625 442.933594 C 1059 442.238281 1071.292969 446.976562 1080.351562 455.953125 C 1084.949219 460.476562 1092.320312 460.476562 1096.914062 455.953125 C 1099.335938 453.738281 1100.640625 450.5625 1100.472656 447.285156 C 1100.386719 444.433594 1099.429688 441.679688 1097.722656 439.390625 C 1085.15625 424.515625 1066.285156 416.476562 1046.851562 417.714844 C 1014.90625 417.714844 995.191406 434.28125 995.191406 459.125 C 995.191406 490.277344 1022.800781 499.5625 1046.851562 508.425781 C 1065.003906 514.347656 1081.144531 519.472656 1081.144531 533.273438 C 1081.144531 547.070312 1060.632812 554.945312 1048.40625 554.945312 C 1033.523438 555.707031 1019.066406 550.09375 1008.566406 539.582031 C 1006.171875 537.308594 1003.152344 535.800781 999.898438 535.246094 C 993.855469 535.390625 988.996094 540.253906 988.847656 546.292969 C 988.933594 549.144531 989.894531 551.898438 991.597656 554.1875 C 1005.738281 570.84375 1026.539062 580.378906 1048.390625 580.210938 C 1084.671875 580.210938 1105.972656 562.855469 1105.972656 535.246094 C 1105.972656 507.632812 1077.183594 494.808594 1053.128906 486.347656 Z M 905.238281 441.203125 C 931.121094 441.203125 944.058594 455.792969 945.078125 484.195312 L 860.675781 484.195312 C 863.425781 456.585938 878.824219 441.203125 904.835938 441.203125 Z M 968.742188 484.195312 C 968.683594 469.511719 964.441406 455.148438 956.515625 442.789062 C 944.34375 426.265625 924.523438 417.175781 904.058594 418.734375 C 860.289062 418.734375 835.039062 447.914062 835.039062 498.800781 C 835.039062 549.691406 859.886719 580.050781 907.214844 580.050781 C 926.484375 580.746094 945.28125 573.964844 959.667969 561.125 C 962.417969 559.097656 964.03125 555.871094 964.003906 552.457031 C 963.859375 546.414062 958.996094 541.554688 952.957031 541.40625 C 950.453125 541.449219 948.0625 542.4375 946.261719 544.175781 C 935.59375 552.976562 922.226562 557.847656 908.394531 557.972656 C 879.992188 557.972656 861.859375 539.046875 861.066406 508.667969 L 954.136719 508.667969 C 968.726562 506.695312 968.726562 492.898438 968.726562 484.210938 Z M 815.96875 418.769531 C 799.097656 417.914062 782.929688 425.625 772.976562 439.277344 L 772.976562 432.582031 C 772.976562 425.390625 767.144531 419.5625 759.953125 419.5625 C 752.765625 419.5625 746.933594 425.390625 746.933594 432.582031 L 746.933594 565.492188 C 746.820312 568.980469 748.15625 572.359375 750.621094 574.824219 C 753.089844 577.292969 756.46875 578.628906 759.953125 578.515625 C 763.476562 578.75 766.925781 577.453125 769.421875 574.960938 C 771.917969 572.464844 773.210938 569.011719 772.976562 565.492188 L 772.976562 492.136719 C 772.976562 460.984375 789.539062 442.835938 815.96875 442.835938 C 819.246094 442.957031 822.429688 441.707031 824.746094 439.386719 C 827.066406 437.066406 828.316406 433.886719 828.199219 430.609375 C 827.996094 424.007812 822.574219 418.769531 815.96875 418.800781 Z M 717.367188 347.386719 C 674.371094 347.386719 658.601562 377.746094 658.601562 406.152344 L 658.601562 423.507812 L 650.320312 423.507812 C 645.496094 422.621094 640.609375 424.699219 637.90625 428.789062 C 635.199219 432.878906 635.199219 438.1875 637.90625 442.277344 C 640.609375 446.367188 645.496094 448.449219 650.320312 447.558594 L 658.988281 447.558594 L 658.988281 566.65625 C 658.875 570.144531 660.210938 573.523438 662.679688 575.988281 C 665.144531 578.457031 668.523438 579.792969 672.011719 579.679688 C 675.53125 579.914062 678.984375 578.621094 681.476562 576.125 C 683.972656 573.628906 685.269531 570.179688 685.03125 566.65625 L 685.03125 446.363281 L 712.644531 446.363281 C 717.4375 447.191406 722.261719 445.09375 724.929688 441.027344 C 727.597656 436.960938 727.597656 431.695312 724.929688 427.628906 C 722.261719 423.5625 717.4375 421.46875 712.644531 422.292969 L 684.949219 422.292969 L 684.949219 404.9375 C 684.949219 389.570312 690.871094 370.648438 718.464844 370.648438 C 721.5625 370.859375 724.613281 369.808594 726.925781 367.734375 C 729.265625 365.679688 730.632812 362.730469 730.695312 359.617188 C 730.265625 352.738281 724.5625 347.382812 717.671875 347.386719 Z M 717.367188 347.386719 "/>
<path style=" stroke:none;fill-rule:nonzero;fill:rgb(14.509804%,75.686275%,43.529412%);fill-opacity:1;" d="M 287.042969 196.878906 L 484.25 196.878906 C 501.863281 196.726562 518.800781 203.65625 531.253906 216.109375 C 543.710938 228.566406 550.640625 245.5 550.488281 263.113281 L 550.488281 460.320312 C 550.453125 604.8125 433.328125 721.933594 288.839844 721.972656 L 287.351562 721.972656 C 217.910156 722.046875 151.285156 694.527344 102.144531 645.460938 C 53.007812 596.394531 25.402344 529.796875 25.410156 460.355469 C 25.410156 315.359375 142.355469 198.414062 287.058594 196.925781 Z M 287.042969 196.878906 "/>
<path style=" stroke:none;fill-rule:nonzero;fill:rgb(100%,100%,100%);fill-opacity:1;" d="M 287.042969 313.824219 C 220.640625 313.824219 166.8125 367.652344 166.8125 434.054688 L 166.8125 515.800781 C 167.308594 537.675781 184.921875 555.292969 206.796875 555.789062 L 240.8125 555.789062 L 240.8125 461.972656 L 194.875 461.972656 L 194.875 435.71875 C 197.675781 386.273438 238.582031 347.613281 288.109375 347.613281 C 337.636719 347.613281 378.691406 386.433594 381.34375 435.71875 L 381.34375 461.972656 L 334.808594 461.972656 L 334.808594 555.789062 L 365.539062 555.789062 L 365.539062 557.277344 C 365.21875 577.570312 348.84375 593.949219 328.546875 594.269531 L 291.832031 594.269531 C 288.855469 594.269531 285.570312 595.757812 285.570312 598.75 C 285.734375 601.984375 288.433594 604.863281 291.832031 605.007812 L 328.824219 605.007812 C 355.117188 604.839844 376.386719 583.566406 376.554688 557.277344 L 376.554688 554.300781 C 394.625 550.175781 407.40625 534.046875 407.289062 515.511719 L 407.289062 435.558594 C 408.953125 367.816406 355.253906 313.824219 287.042969 313.824219 Z M 287.042969 313.824219 "/>
</g>
</svg>
