<svg width="15" height="16" viewBox="0 0 15 16" fill="none" xmlns="http://www.w3.org/2000/svg">
<path d="M7.1775 0.800031H12.5856C12.8246 0.798109 13.0615 0.843795 13.2827 0.934423C13.5038 1.02505 13.7047 1.15881 13.8736 1.32789C14.0425 1.49697 14.176 1.69799 14.2664 1.91923C14.3568 2.14046 14.4022 2.37748 14.4 2.61646V8.02253C14.4 11.9875 11.1874 15.2 7.2225 15.2H7.18155C6.23873 15.2009 5.305 15.0159 4.43371 14.6556C3.56243 14.2954 2.77068 13.767 2.10373 13.1006C1.43678 12.4342 0.907692 11.6429 0.546721 10.7719C0.18575 9.90095 -2.99244e-05 8.96737 3.61535e-09 8.02456C3.61535e-09 4.04836 3.20715 0.840981 7.1775 0.800031Z" fill="#8F8F8F"/>
<path d="M7.17703 4.00739C5.35611 4.00739 3.87988 5.48339 3.87988 7.30454V9.54644C3.89293 10.1465 4.37623 10.6298 4.97631 10.6429H5.90893V8.06752H4.64893V7.34752C4.72543 5.99167 5.84751 4.93102 7.20583 4.93102C8.56416 4.93102 9.68353 5.98964 9.76003 7.34752V8.06752H8.48203V10.6447H9.32466V10.6856C9.31566 11.2423 8.86678 11.6914 8.31216 11.6981H7.30573C7.22383 11.6981 7.13383 11.7391 7.13383 11.8207C7.13581 11.8657 7.15456 11.9083 7.18638 11.9401C7.2182 11.9719 7.26078 11.9907 7.30573 11.9926H8.31823C9.03936 11.9881 9.62278 11.4047 9.62728 10.6836V10.6017C9.86815 10.5474 10.0832 10.4123 10.2365 10.2188C10.3898 10.0252 10.4722 9.78501 10.4699 9.53812V7.34752C10.5109 5.49037 9.03801 4.00942 7.17276 4.00942L7.17703 4.00739Z" fill="white"/>
</svg>
