<?xml version="1.0" encoding="UTF-8" standalone="no"?>
<svg width="40px" height="40px" viewBox="0 0 40 40" version="1.1" xmlns="http://www.w3.org/2000/svg" xmlns:xlink="http://www.w3.org/1999/xlink">
    <!-- Generator: Sketch 41.2 (35397) - http://www.bohemiancoding.com/sketch -->
    <title>instagram_footer</title>
    <desc>Created with Sketch.</desc>
    <defs></defs>
    <g id="Page-1" stroke="none" stroke-width="1" fill="none" fill-rule="evenodd">
        <g id="instagram_footer">
            <g id="contact_us_page_fb_hover" transform="translate(1.000000, 1.000000)">
                <circle id="Oval" fill="#9B9B9B" cx="19" cy="19" r="19"></circle>
                <path d="M25,25.5 L13,25.5 C12.724,25.5 12.5,25.276 12.5,25 L12.5,17.5 L14.5,17.5 C14.2395,17.875 14.1515,18.5745 14.1515,19.0185 C14.1515,21.696 16.335,23.8745 19.0185,23.8745 C21.7025,23.8745 23.886,21.696 23.886,19.0185 C23.886,18.5745 23.823,17.8855 23.5,17.5 L25.5,17.5 L25.5,25 C25.5,25.276 25.276,25.5 25,25.5 M19.0185,15.949 C20.718,15.949 22.0955,17.3235 22.0955,19.0185 C22.0955,20.714 20.718,22.0885 19.0185,22.0885 C17.3195,22.0885 15.942,20.714 15.942,19.0185 C15.942,17.3235 17.3195,15.949 19.0185,15.949 M23,13 L24.5,13 C24.776,13 25,13.224 25,13.5 L25,15 C25,15.276 24.776,15.5 24.5,15.5 L23,15.5 C22.724,15.5 22.5,15.276 22.5,15 L22.5,13.5 C22.5,13.224 22.724,13 23,13 M25.098,11 L12.902,11 C11.8515,11 11,11.8495 11,12.8975 L11,25.1025 C11,26.1505 11.8515,27 12.902,27 L25.098,27 C26.1485,27 27,26.1505 27,25.1025 L27,12.8975 C27,11.8495 26.1485,11 25.098,11" id="Instagram" fill="#FFFFFF"></path>
            </g>
        </g>
    </g>
</svg>