<svg width="21" height="19" viewBox="0 0 21 19" fill="none" xmlns="http://www.w3.org/2000/svg">
<path d="M17.2376 7.75218C17.21 4.71582 19.7196 3.25693 19.8327 3.18522C18.4207 1.11961 16.2255 0.838314 15.4422 0.80522C13.5752 0.61493 11.7964 1.90559 10.8477 1.90559C9.89902 1.90559 8.43737 0.832799 6.88747 0.863135C4.84944 0.893471 2.97136 2.04624 1.92063 3.87192C-0.19462 7.53983 1.3801 12.981 3.44295 15.9622C4.45231 17.4184 5.65197 19.0593 7.2322 18.9986C8.75452 18.9379 9.32815 18.014 11.1649 18.014C13.0016 18.014 13.52 18.9986 15.1251 18.9683C16.7605 18.9352 17.7974 17.479 18.7985 16.0174C19.9541 14.3268 20.4312 12.6887 20.4587 12.6032C20.4229 12.5894 17.2707 11.3815 17.2376 7.75218Z" fill="#8F8F8F"/>
</svg>
