<svg width="21" height="24" viewBox="0 0 21 24" fill="none" xmlns="http://www.w3.org/2000/svg">
<path d="M17.2373 12.7522C17.2098 9.71582 19.7194 8.25693 19.8325 8.18522C18.4205 6.11961 16.2252 5.83831 15.442 5.80522C13.575 5.61493 11.7962 6.90559 10.8475 6.90559C9.89877 6.90559 8.43713 5.8328 6.88723 5.86313C4.8492 5.89347 2.97112 7.04624 1.92039 8.87192C-0.194865 12.5398 1.37985 17.981 3.44271 20.9622C4.45207 22.4184 5.65172 24.0593 7.23196 23.9986C8.75428 23.9379 9.3279 23.014 11.1646 23.014C13.0013 23.014 13.5198 23.9986 15.1249 23.9683C16.7602 23.9352 17.7972 22.479 18.7983 21.0174C19.9538 19.3268 20.4309 17.6887 20.4585 17.6032C20.4226 17.5894 17.2704 16.3815 17.2373 12.7522Z" fill="#8F8F8F"/>
<path d="M14.2176 3.83338C15.0559 2.8185 15.6213 1.40649 15.4669 0C14.2589 0.0496408 12.7973 0.805285 11.9313 1.82016C11.1564 2.71646 10.4752 4.15328 10.66 5.5322C12.003 5.63699 13.3792 4.8455 14.2176 3.83338Z" fill="#8F8F8F"/>
</svg>
