<svg width="15" height="16" viewBox="0 0 15 16" fill="none" xmlns="http://www.w3.org/2000/svg">
<path d="M7.18679 15.1998C6.23761 15.1995 5.29789 15.0125 4.42185 14.6497C3.54581 14.2868 2.7508 13.7551 2.08267 13.0855C1.41455 12.4158 0.88655 11.6214 0.529139 10.748C0.171729 9.87462 -0.0080168 8.93958 0.000274295 7.99684C-0.00402661 7.03962 0.184829 6.09124 0.555684 5.20772C0.92654 4.3242 1.47188 3.52345 2.1595 2.85276C2.84711 2.18207 3.66306 1.65503 4.55916 1.30277C5.45526 0.950516 6.41334 0.780183 7.37682 0.801832C9.29526 0.858498 11.1125 1.66963 12.4289 3.05687C13.7454 4.44411 14.4532 6.29387 14.3969 8.19939C14.2963 12.1273 11.0623 15.2257 7.18679 15.1998ZM3.92118 7.36094C3.91122 7.44038 3.9029 7.47352 3.90345 7.50621C3.90838 8.55693 3.90902 9.60775 3.92831 10.6582C3.93882 10.7157 3.96155 10.7704 3.99498 10.8185C4.02841 10.8666 4.07177 10.9071 4.12218 10.9373C5.11404 11.5168 6.11485 12.0813 7.10808 12.6583C7.16505 12.7 7.23429 12.7217 7.30501 12.7202C7.37572 12.7187 7.44394 12.6939 7.49903 12.6499C8.42718 12.048 9.36108 11.455 10.2925 10.8582C10.3542 10.8186 10.4113 10.7718 10.5077 10.701L3.92118 7.36094ZM4.12145 7.00804C4.1613 7.05062 4.17054 7.06741 4.18462 7.0744C5.25846 7.60598 6.33094 8.14047 7.41055 8.66034C7.46398 8.67464 7.51987 8.67751 7.5745 8.66874C7.62913 8.65998 7.68127 8.63978 7.72746 8.6095C8.52708 8.09317 9.3163 7.56077 10.116 7.04453C10.1848 7.00582 10.2407 6.94805 10.2769 6.87829C10.3132 6.80852 10.3282 6.72978 10.3201 6.65168C10.3124 5.61067 10.3167 4.56957 10.3157 3.52847C10.3157 3.44821 10.3075 3.36786 10.3003 3.2363L4.12145 7.00804Z" fill="#8F8F8F"/>
</svg>
