<svg width="27" height="28" viewBox="0 0 27 28" fill="none" xmlns="http://www.w3.org/2000/svg">
<g opacity="0.668158">
<path d="M13.3971 12.8047C12.7366 12.8047 12.2012 13.3402 12.2012 14.0007C12.2012 14.6612 12.7366 15.1966 13.3971 15.1966C14.0576 15.1966 14.5931 14.6612 14.5931 14.0007C14.5931 13.3402 14.0576 12.8047 13.3971 12.8047Z" stroke="#2E31BE" stroke-width="0.239885"/>
</g>
<path d="M13.3971 10.0977C11.2405 10.0977 9.49219 11.846 9.49219 14.0026C9.49219 16.1591 11.2405 17.9075 13.3971 17.9075C15.5537 17.9075 17.302 16.1591 17.302 14.0026C17.302 11.846 15.5537 10.0977 13.3971 10.0977Z" stroke="#2E31BE" stroke-width="0.783237"/>
<path d="M13.3971 7.30078C9.69699 7.30078 6.69727 10.3005 6.69727 14.0006C6.69727 17.7008 9.69699 20.7005 13.3971 20.7005C17.0973 20.7005 20.097 17.7008 20.097 14.0006C20.097 10.3005 17.0973 7.30078 13.3971 7.30078Z" stroke="#2E31BE" stroke-width="1.34384"/>
<path d="M13.3972 4.53125C8.16668 4.53125 3.92627 8.77166 3.92627 14.0022C3.92627 19.2327 8.16668 23.4731 13.3972 23.4731C18.6277 23.4731 22.8681 19.2327 22.8681 14.0022C22.8681 8.77166 18.6277 4.53125 13.3972 4.53125Z" stroke="#2E31BE" stroke-width="1.89965"/>
<g opacity="0.01">
<path d="M13.397 2C6.76973 2 1.39697 7.37275 1.39697 14C1.39697 20.6272 6.76973 26 13.397 26C20.0242 26 25.397 20.6272 25.397 14C25.397 7.37275 20.0242 2 13.397 2Z" stroke="#2E31BE" stroke-width="2.40693"/>
</g>
</svg>
