<svg width="40" height="26" viewBox="0 0 40 26" fill="none" xmlns="http://www.w3.org/2000/svg">
<g clip-path="url(#clip0_1008_17039)">
<rect x="8.5" y="1.73755" width="23" height="23" rx="2.5" stroke="#2E31BE"/>
<path d="M20 7.90423C21.2867 7.90423 23.3334 8.83756 23.3334 11.3376C23.3334 12.7776 22.1867 14.4509 20 16.2176C17.8134 14.4509 16.6667 12.7709 16.6667 11.3376C16.6667 8.83756 18.7134 7.90423 20 7.90423ZM20 6.57089C17.82 6.57089 15.3334 8.21089 15.3334 11.3376C15.3334 13.4176 16.8867 15.6109 20 17.9042C23.1134 15.6109 24.6667 13.4176 24.6667 11.3376C24.6667 8.21089 22.18 6.57089 20 6.57089Z" fill="#2E31BE"/>
<path d="M20 9.90423C19.2667 9.90423 18.6667 10.5042 18.6667 11.2376C18.6667 11.9709 19.2667 12.5709 20 12.5709C20.3537 12.5709 20.6928 12.4304 20.9428 12.1804C21.1929 11.9303 21.3334 11.5912 21.3334 11.2376C21.3334 10.8839 21.1929 10.5448 20.9428 10.2948C20.6928 10.0447 20.3537 9.90423 20 9.90423ZM15.3334 18.5709H24.6667V19.9042H15.3334V18.5709Z" fill="#2E31BE"/>
</g>
<defs>
<clipPath id="clip0_1008_17039">
<rect width="40" height="25" fill="white" transform="translate(0 0.237549)"/>
</clipPath>
</defs>
</svg>
