<svg width="326" height="203" viewBox="0 0 326 203" fill="none" xmlns="http://www.w3.org/2000/svg">
<g clip-path="url(#clip0_2893_95648)">
<rect y="143.111" width="325.78" height="59.8889" fill="url(#paint0_radial_2893_95648)"/>
<path d="M135.911 128.795V62.3609C135.911 62.3609 135.73 50.3706 148.03 43.3556C150.208 42.1133 152.715 41.3869 155.308 41.2471C157.9 41.1072 160.49 41.5586 162.825 42.5574L216.561 65.5694C216.561 65.5694 211.677 61.9618 203.88 67.4603C196.084 72.9588 195.374 80.6035 194.869 89.3124V142.648V152.403C194.869 152.403 193.596 160.811 187.88 165.706C182.164 170.602 179.71 171.506 179.71 171.506C179.71 171.506 173.934 173.883 170.379 172.837C166.824 171.79 156.614 154.603 156.614 154.603L138.022 141.3L135.911 128.795Z" fill="#CCDBFF"/>
<path d="M179.026 144.19C179.026 144.19 187.016 144.519 190.193 149.82C193.369 155.121 187.941 163.972 187.941 163.972C186.69 166.274 182.761 169.672 180.309 171.113C177.857 172.554 174.996 173.41 172.023 173.591C159.751 169.552 166.345 155.35 166.345 155.35L171.418 148.755L179.026 144.19Z" fill="#C8D0F1"/>
<path d="M179.026 144.19C179.026 144.19 187.016 144.519 190.192 149.82C193.369 155.121 187.649 160.929 187.649 160.929C186.397 163.23 185.028 164.053 182.576 165.494C180.124 166.935 174.968 166.001 174.968 166.001L164.823 159.407L166.345 155.35L171.417 148.755L179.026 144.19Z" fill="#ABC2FF"/>
<path d="M190.642 152.306C191.033 157.466 187.67 161.96 185.113 163.973C180.381 167.697 174.723 165.998 174.723 165.998L165.331 159.706" stroke="#9EB6F3" stroke-width="1.5" stroke-miterlimit="10" stroke-linecap="round"/>
<path d="M195.765 80.279L224.677 94.4816C224.677 94.4816 225.55 74.9347 222.141 70.1344C214.532 63.0331 210.09 65.466 206.417 66.0766C203.967 66.5242 197.794 72.1633 195.765 80.279Z" fill="#7EA0F9"/>
<path d="M129.061 122.139L185.62 144.698C185.62 144.698 172.325 142.6 165.838 156.871C160.766 168.03 170.895 173.857 170.895 173.857L109.664 144.753C109.664 144.753 103.139 138.611 109.664 126.945C116.189 115.278 129.061 122.139 129.061 122.139Z" fill="#DCE6FF"/>
<path d="M175.983 173.242C175.983 173.242 188.39 169.92 190.692 156.871C192.214 148.248 184.606 141.147 174.968 146.219C167.605 150.095 161.177 160.973 166.345 170.059C171.514 179.146 194.75 170.567 194.579 148.248V85.6429C194.579 85.6429 194.579 75.5507 202.21 68.8847C209.841 62.2186 218.717 64.5491 222.864 71.545C224.401 74.1394 224.819 78.0428 224.688 81.0779V93.9744" stroke="#9EB6F3" stroke-width="1.5" stroke-miterlimit="10" stroke-linecap="round"/>
<path d="M145.185 116.195L152.246 119.698M173.429 130.207L169.898 128.456L168.133 127.58M155.776 121.45L159.307 123.201L166.368 126.704" stroke="#2E31BE" stroke-width="1.5" stroke-miterlimit="10" stroke-linecap="round" stroke-linejoin="round"/>
<path d="M136.629 99.5555H135.916V105.583V107.333L140.777 106.167L146.222 112.389L153.222 110.833L159.055 116.667L165.277 115.889L169.944 119.778H175.388L181.999 124.444L178.11 117.833L172.666 116.278L166.876 109.667L159.617 108.889L155.987 103.639H146.913L144.493 99.5555H136.629Z" fill="#7EA0F9"/>
<path d="M143.755 100.007H135.916V106.011L142.333 104.611L147.388 111.222L154.777 109.667L160.222 115.656L166.444 114.722L171.11 119L176.166 119.389L181.61 123.667L177.333 118.222L172.277 116.667L166.833 110.491L159.833 109.667L155.944 104.253H146.999L143.755 100.007Z" fill="white"/>
<path d="M145.185 88.9108L184.941 108.844" stroke="#2E31BE" stroke-width="1.5" stroke-miterlimit="10" stroke-linecap="round" stroke-linejoin="round"/>
<path d="M145.185 81.5836L150.154 84.0752L152.639 85.3211M184.941 101.517L179.972 99.025L177.487 97.7792M165.063 91.5501L175.002 96.5334" stroke="#2E31BE" stroke-width="1.5" stroke-miterlimit="10" stroke-linecap="round" stroke-linejoin="round"/>
<path d="M145.185 74.2473L150.154 76.7401L152.639 77.9865M184.941 94.1897L179.972 91.6969M155.124 79.2329L165.063 84.2185L175.002 89.2041L177.487 90.4505" stroke="#2E31BE" stroke-width="1.5" stroke-miterlimit="10" stroke-linecap="round" stroke-linejoin="round"/>
<path d="M145.185 66.9202L147.669 68.166M184.941 86.8532L175.002 81.8699L170.033 79.3783M165.063 76.8867L160.093 74.3951L157.609 73.1492M155.124 71.9034L152.639 70.6576L150.154 69.4118" stroke="#2E31BE" stroke-width="1.5" stroke-miterlimit="10" stroke-linecap="round" stroke-linejoin="round"/>
<path d="M156.333 88.8636V94.1208L158.245 90.3657L156.333 88.8636Z" fill="#5682F1"/>
<path fill-rule="evenodd" clip-rule="evenodd" d="M182.857 109.574C168.208 109.574 156.333 102.584 156.333 93.9616C156.333 85.3393 168.208 76.7565 182.857 76.7565C197.506 76.7565 209.382 85.3393 209.382 93.9616C209.382 102.584 197.506 109.574 182.857 109.574ZM182.857 104.794C171.552 104.794 162.386 99.8017 162.386 93.6429C162.386 87.4841 171.552 82.4914 182.857 82.4914C194.163 82.4914 203.328 87.4841 203.328 93.6429C203.328 99.8017 194.163 104.794 182.857 104.794Z" fill="#5682F1"/>
<path d="M198.311 106.706V102.007H205.48L220.111 108.5V112.389C220.111 113.663 219.419 114.353 217.746 115.468C216.408 116.36 214.427 115.84 213.604 115.468L198.311 106.706Z" fill="#8AACFF"/>
<path d="M209.382 89.0231V94.0412L207.391 90.4568L209.382 89.0231Z" fill="#5682F1"/>
<ellipse opacity="0.8" cx="182.388" cy="91.3889" rx="20.6111" ry="11.2778" fill="url(#paint1_linear_2893_95648)"/>
<path d="M161.322 89.9128L161 90.6112C161 90.6112 161.096 90.3511 161.322 89.9128L165.667 80.5L182.389 75.8334L197.944 78.1667L204.944 85.1667L203.389 92.5556C203.389 92.5556 204.17 80.1112 181.222 80.1112C167.459 80.1112 162.532 87.5663 161.322 89.9128Z" fill="#2E31BE"/>
<path fill-rule="evenodd" clip-rule="evenodd" d="M182.857 104.794C168.208 104.794 156.333 97.876 156.333 89.3416C156.333 80.8073 168.208 73.8889 182.857 73.8889C197.506 73.8889 209.382 80.8073 209.382 89.3416C209.382 97.876 197.506 104.794 182.857 104.794ZM182.857 101.29C171.522 101.29 162.332 95.9404 162.332 89.3417C162.332 82.743 171.522 77.3937 182.857 77.3937C194.193 77.3937 203.382 82.743 203.382 89.3417C203.382 95.9404 194.193 101.29 182.857 101.29Z" fill="#E8EEFF"/>
<path d="M219.259 107.264L204.045 98.3425L197.833 101.688C202.532 104.423 212.25 110.083 213.524 110.848C214.799 111.613 216.126 111.592 216.631 111.485C217.241 111.353 218.702 110.8 219.658 109.653C220.654 108.457 219.79 107.582 219.259 107.264Z" fill="#E8EEFF"/>
<circle cx="116.666" cy="76.2223" r="2.33333" fill="#2E31BE"/>
<circle cx="246.944" cy="113.944" r="1.94444" fill="#EAF0FF"/>
<circle cx="115.5" cy="1.94444" r="1.94444" fill="#EAF0FF"/>
<circle cx="105" cy="109.667" r="1.58333" stroke="#B5CAFD" stroke-width="1.5"/>
<path d="M133.67 99.6361L132.845 98.4493L132.432 97.8559M130.37 94.8889L131.195 96.0757" stroke="#2E31BE" stroke-width="1.5" stroke-linecap="round"/>
<path d="M132.167 102.51L129.278 102.424L128.556 102.402M126.389 102.337L127.111 102.359" stroke="#2E31BE" stroke-width="1.5" stroke-linecap="round"/>
<path d="M133.748 105.778L131.85 107.957M129.951 110.137L130.9 109.047" stroke="#2E31BE" stroke-width="1.5" stroke-linecap="round"/>
<circle cx="208.833" cy="32.2778" r="3.52778" stroke="#B5CAFD" stroke-width="1.5"/>
<path d="M79.5273 52.1111V57.1666" stroke="#B5CAFD" stroke-width="1.5" stroke-linecap="round"/>
<path d="M82.0557 54.6389L77.0001 54.6389" stroke="#B5CAFD" stroke-width="1.5" stroke-linecap="round"/>
<path d="M216.69 125.834L213.912 132.101" stroke="#2E31BE" stroke-width="1.5" stroke-linecap="round"/>
<path d="M218.435 130.357L212.168 127.578" stroke="#2E31BE" stroke-width="1.5" stroke-linecap="round"/>
</g>
<defs>
<radialGradient id="paint0_radial_2893_95648" cx="0" cy="0" r="1" gradientUnits="userSpaceOnUse" gradientTransform="translate(159.616 127.944) rotate(91.8836) scale(37.3535 203.172)">
<stop stop-color="#9BB4FF"/>
<stop offset="1" stop-color="#EFF3FF" stop-opacity="0"/>
</radialGradient>
<linearGradient id="paint1_linear_2893_95648" x1="182.388" y1="80.1111" x2="182.388" y2="102.667" gradientUnits="userSpaceOnUse">
<stop stop-color="white"/>
<stop offset="1" stop-color="white" stop-opacity="0"/>
</linearGradient>
<clipPath id="clip0_2893_95648">
<rect width="325.78" height="203" fill="white"/>
</clipPath>
</defs>
</svg>
