<svg width="52" height="52" viewBox="0 0 52 52" fill="none" xmlns="http://www.w3.org/2000/svg">
<path d="M15.375 47.9375H39.875C42.0841 47.9375 43.875 46.1466 43.875 43.9375V15.4375L32.5 4.0625H15.375C13.1659 4.0625 11.375 5.85336 11.375 8.0625V43.9375C11.375 46.1466 13.1659 47.9375 15.375 47.9375Z" fill="#E0E0E0"/>
<path d="M32.5 11.4375V4.0625L43.875 15.4375H36.5C34.2909 15.4375 32.5 13.6466 32.5 11.4375Z" fill="#4C4C73"/>
<rect x="16.25" y="24.375" width="22.75" height="1.625" rx="0.8125" fill="#4C4C73"/>
<rect x="16.25" y="19.5" width="22.75" height="1.625" rx="0.8125" fill="#4C4C73"/>
<rect x="8.125" y="28.4375" width="30.875" height="16.25" rx="4" fill="#55AAE3"/>
<path d="M19.478 39.3357C19.478 39.5634 19.3142 39.7589 19.0874 39.7789C18.8339 39.8013 18.5356 39.8125 18.1925 39.8125C17.6565 39.8125 17.1719 39.7419 16.7386 39.6007C16.3085 39.4596 15.9377 39.2509 15.6264 38.9747C14.9588 38.3824 14.625 37.5568 14.625 36.4981C14.625 35.8075 14.7967 35.2091 15.1401 34.7027C15.6055 34.0184 16.3197 33.5826 17.2826 33.3954C17.5779 33.3401 17.9293 33.3125 18.337 33.3125C18.5668 33.3125 18.7711 33.3192 18.9497 33.3327C19.167 33.349 19.3239 33.536 19.3239 33.754C19.3239 34.0042 19.0787 34.1948 18.8293 34.1745C18.6697 34.1614 18.4864 34.1549 18.2792 34.1549C17.8106 34.1549 17.4126 34.2102 17.0852 34.3206C16.7578 34.4311 16.4866 34.5892 16.2716 34.7948C15.8415 35.1968 15.6264 35.7646 15.6264 36.4981C15.6264 37.2377 15.8382 37.8238 16.2619 38.2566C16.7209 38.723 17.3805 38.9563 18.2407 38.9563C18.52 38.9563 18.7713 38.9449 18.9944 38.9223C19.2439 38.897 19.478 39.085 19.478 39.3357Z" fill="white"/>
<path d="M24.4995 39.3199C24.2716 39.4734 23.9795 39.5946 23.6233 39.6836C23.267 39.7695 22.8305 39.8125 22.3137 39.8125C21.9224 39.8125 21.5282 39.7956 21.1313 39.7617C20.9189 39.7436 20.7586 39.5638 20.7586 39.3506C20.7586 39.0838 21.005 38.8859 21.2692 38.9221C21.5695 38.9633 21.8712 38.9839 22.1741 38.9839C22.6491 38.9839 23.0054 38.9593 23.2429 38.9102C23.4804 38.8581 23.6714 38.7905 23.8158 38.7077C24.0822 38.5542 24.2154 38.3548 24.2154 38.1092C24.2154 37.919 24.1641 37.7717 24.0614 37.6673C23.8977 37.5047 23.6618 37.3558 23.3536 37.2208L22.1211 36.6822C21.6975 36.4919 21.3974 36.3155 21.2208 36.1528C20.8421 35.8029 20.6527 35.3978 20.6527 34.9375C20.6527 34.4649 20.8678 34.0828 21.2979 33.7913C21.7697 33.4721 22.4405 33.3125 23.3103 33.3125C23.7265 33.3125 24.1163 33.3243 24.4797 33.3479C24.6903 33.3616 24.8509 33.5384 24.8509 33.7494C24.8509 34.0099 24.6099 34.204 24.3512 34.1733C24.093 34.1426 23.8183 34.1273 23.527 34.1273C23.0423 34.1273 22.6892 34.1519 22.4678 34.201C22.2495 34.247 22.0778 34.3068 21.9526 34.3805C21.7247 34.5155 21.6108 34.6935 21.6108 34.9145C21.6108 35.1293 21.683 35.3073 21.8275 35.4485C21.9558 35.5682 22.1901 35.7063 22.5304 35.8628L23.7966 36.4382C24.217 36.6285 24.5107 36.808 24.6776 36.9768C24.8477 37.1456 24.9729 37.3159 25.0532 37.4878C25.1334 37.6566 25.1735 37.8607 25.1735 38.1C25.1735 38.3363 25.119 38.5604 25.0098 38.7721C24.9007 38.9808 24.7306 39.1634 24.4995 39.3199Z" fill="white"/>
<path d="M25.7487 33.9956C25.6237 33.6919 25.847 33.3585 26.1754 33.3585C26.3641 33.3585 26.5338 33.4735 26.6038 33.6487L28.5918 38.6248L30.5705 33.6493C30.6403 33.4737 30.8101 33.3585 30.999 33.3585C31.3272 33.3585 31.5503 33.6917 31.4254 33.9952L29.2251 39.3391C29.1187 39.5977 28.8666 39.7665 28.587 39.7665C28.3073 39.7665 28.0553 39.5977 27.9488 39.3391L25.7487 33.9956Z" fill="white"/>
</svg>
