<svg width="52" height="52" viewBox="0 0 52 52" fill="none" xmlns="http://www.w3.org/2000/svg">
<path d="M15.375 47.9375H39.875C42.0841 47.9375 43.875 46.1466 43.875 43.9375V15.4375L32.5 4.0625H15.375C13.1659 4.0625 11.375 5.85336 11.375 8.0625V43.9375C11.375 46.1466 13.1659 47.9375 15.375 47.9375Z" fill="#E0E0E0"/>
<path d="M32.5 11.4375V4.0625L43.875 15.4375H36.5C34.2909 15.4375 32.5 13.6466 32.5 11.4375Z" fill="#4C4C73"/>
<rect x="16.25" y="24.375" width="22.75" height="1.625" rx="0.8125" fill="#4C4C73"/>
<rect x="16.25" y="19.5" width="22.75" height="1.625" rx="0.8125" fill="#4C4C73"/>
<rect x="8.125" y="28.4375" width="30.875" height="16.25" rx="4" fill="#219653"/>
<path d="M17.6512 36.6307L15.9952 34.0451C15.8055 33.7489 16.0182 33.3601 16.3699 33.3601C16.5242 33.3601 16.6675 33.44 16.7486 33.5714L18.1844 35.8976L19.6624 33.5531C19.7381 33.433 19.8702 33.3601 20.0123 33.3601C20.3423 33.3601 20.5394 33.7278 20.3567 34.0027L18.651 36.5688L20.5082 39.307C20.7044 39.5962 20.4972 39.9871 20.1478 39.9871C20.001 39.9871 19.8641 39.9132 19.7836 39.7904L18.1321 37.2734L16.606 39.7802C16.5278 39.9087 16.3883 39.9871 16.2379 39.9871C15.8947 39.9871 15.6892 39.6054 15.8782 39.3189L17.6512 36.6307Z" fill="white"/>
<path d="M21.7693 33.8362C21.7693 33.5733 21.9824 33.3601 22.2454 33.3601C22.5083 33.3601 22.7214 33.5733 22.7214 33.8362V39.1492H25.1399C25.3713 39.1492 25.5588 39.3367 25.5588 39.5681C25.5588 39.7995 25.3713 39.9871 25.1399 39.9871H22.2693C21.9931 39.9871 21.7693 39.7632 21.7693 39.4871V33.8362Z" fill="white"/>
<path d="M30.4291 39.5253C30.2037 39.684 29.9149 39.8093 29.5626 39.9014C29.2103 39.9902 28.7787 40.0347 28.2677 40.0347C27.8851 40.0347 27.4999 40.0176 27.1119 39.9833C26.8939 39.9641 26.73 39.7792 26.73 39.5603C26.73 39.2837 26.9868 39.0794 27.2607 39.1175C27.5491 39.1577 27.8388 39.1777 28.1296 39.1777C28.5994 39.1777 28.9517 39.1523 29.1865 39.1016C29.4214 39.0476 29.6102 38.9778 29.7531 38.8921C30.0165 38.7334 30.1482 38.5271 30.1482 38.2732C30.1482 38.0764 30.0974 37.9241 29.9958 37.8162C29.834 37.6479 29.6007 37.494 29.296 37.3544L28.0773 36.7974C27.6583 36.6006 27.3616 36.4181 27.187 36.2499C26.8125 35.8881 26.6252 35.4691 26.6252 34.993C26.6252 34.5043 26.8379 34.1091 27.2632 33.8076C27.7297 33.4775 28.3931 33.3125 29.2532 33.3125C29.6596 33.3125 30.0405 33.3244 30.3959 33.3482C30.6121 33.3627 30.7766 33.5445 30.7766 33.7612C30.7766 34.0312 30.5253 34.2317 30.2572 34.1996C30.0093 34.17 29.746 34.1552 29.4674 34.1552C28.9882 34.1552 28.639 34.1805 28.42 34.2313C28.2042 34.2789 28.0344 34.3408 27.9106 34.417C27.6853 34.5566 27.5726 34.7407 27.5726 34.9692C27.5726 35.1914 27.644 35.3755 27.7869 35.5215C27.9138 35.6453 28.1455 35.7881 28.4819 35.95L29.734 36.545C30.1498 36.7418 30.4402 36.9275 30.6052 37.1021C30.7734 37.2766 30.8972 37.4528 30.9766 37.6305C31.0559 37.8051 31.0956 38.0161 31.0956 38.2637C31.0956 38.5081 31.0416 38.7397 30.9337 38.9587C30.8258 39.1746 30.6576 39.3634 30.4291 39.5253Z" fill="white"/>
</svg>
