<svg width="16" height="16" viewBox="0 0 16 16" fill="none" xmlns="http://www.w3.org/2000/svg">
<g clip-path="url(#clip0_262_31606)">
<path d="M13.3334 11.3334V7.33337C13.3334 6.60004 12.7334 6.00004 12 6.00004H4.66669V4.66671L2.66669 6.66671L4.66669 8.66671V7.33337H7.33335V9.33337H2.66669V11.3334C2.66669 12.0667 3.26669 12.6667 4.00002 12.6667H5.33335C5.33335 13.7734 6.22669 14.6667 7.33335 14.6667C8.44002 14.6667 9.33335 13.7734 9.33335 12.6667H14.6667V11.3334H13.3334ZM7.33335 13.3334C6.96669 13.3334 6.66669 13.0334 6.66669 12.6667C6.66669 12.3 6.96669 12 7.33335 12C7.70002 12 8.00002 12.3 8.00002 12.6667C8.00002 13.0334 7.70002 13.3334 7.33335 13.3334ZM12 9.33337H9.33335V7.33337H12V9.33337ZM11.3334 1.33337V2.66671H6.00002V4.00004H11.3334V5.33337L13.3334 3.33337L11.3334 1.33337Z" fill="#979797"/>
</g>
<defs>
<clipPath id="clip0_262_31606">
<rect width="16" height="16" fill="white"/>
</clipPath>
</defs>
</svg>
