<svg width="15" height="12" viewBox="0 0 15 12" fill="none" xmlns="http://www.w3.org/2000/svg">
<path d="M12.1666 3.33268L9.49996 5.99935H11.5C11.5 8.20602 9.70663 9.99935 7.49996 9.99935C6.82663 9.99935 6.18663 9.83268 5.63329 9.53268L4.65996 10.506C5.47996 11.026 6.45329 11.3327 7.49996 11.3327C10.4466 11.3327 12.8333 8.94602 12.8333 5.99935H14.8333L12.1666 3.33268ZM3.49996 5.99935C3.49996 3.79268 5.29329 1.99935 7.49996 1.99935C8.17329 1.99935 8.81329 2.16602 9.36663 2.46602L10.34 1.49268C9.51996 0.972682 8.54663 0.666016 7.49996 0.666016C4.55329 0.666016 2.16663 3.05268 2.16663 5.99935H0.166626L2.83329 8.66602L5.49996 5.99935H3.49996Z" fill="#323232"/>
</svg>
