<svg width="17" height="12" viewBox="0 0 17 12" fill="none" xmlns="http://www.w3.org/2000/svg">
<path d="M13.4 4.69268C12.9467 2.39268 10.9267 0.666016 8.5 0.666016C6.57333 0.666016 4.9 1.75935 4.06667 3.35935C2.06 3.57268 0.5 5.27268 0.5 7.33268C0.5 9.53935 2.29333 11.3327 4.5 11.3327H13.1667C15.0067 11.3327 16.5 9.83935 16.5 7.99935C16.5 6.23935 15.1333 4.81268 13.4 4.69268ZM13.1667 9.99935H4.5C3.02667 9.99935 1.83333 8.80602 1.83333 7.33268C1.83333 5.96602 2.85333 4.82602 4.20667 4.68602L4.92 4.61268L5.25333 3.97935C5.88667 2.75935 7.12667 1.99935 8.5 1.99935C10.2467 1.99935 11.7533 3.23935 12.0933 4.95268L12.2933 5.95268L13.3133 6.02602C14.3533 6.09268 15.1667 6.96602 15.1667 7.99935C15.1667 9.09935 14.2667 9.99935 13.1667 9.99935V9.99935ZM9.46667 4.66602H7.53333V6.66602H5.83333L8.5 9.33268L11.1667 6.66602H9.46667V4.66602Z" fill="#323232"/>
</svg>
