<?xml version="1.0" encoding="UTF-8"?>
<svg width="20px" height="22px" viewBox="0 0 20 22" version="1.1" xmlns="http://www.w3.org/2000/svg" xmlns:xlink="http://www.w3.org/1999/xlink">
    <!-- Generator: Sketch 63.1 (92452) - https://sketch.com -->
    <title>Orders</title>
    <desc>Created with Sketch.</desc>
    <g id="Icons" stroke="none" stroke-width="1" fill="none" fill-rule="evenodd">
        <g id="Orders" transform="translate(0.000000, 1.000000)">
            <rect id="Rectangle-Copy-4" fill-opacity="0.01" fill="#FFFFFF" fill-rule="nonzero" x="0" y="0" width="20" height="20"></rect>
            <path d="M2.91666667,3.75 L17.6166667,3.75 C18.6416667,3.75 19.4333333,4.675 19.2583333,5.69166667 L18.0416667,11.4 C17.9666667,11.8 17.625,12.0833333 17.225,12.0833333 L5,12.0833333" id="Stroke-1" stroke="#5C6BDD" stroke-linecap="round" stroke-linejoin="round"></path>
            <path d="M8.75,17.9166667 C8.75,18.8366667 8.00333333,19.5833333 7.08333333,19.5833333 C6.16333333,19.5833333 5.41666667,18.8366667 5.41666667,17.9166667 C5.41666667,16.9966667 6.16333333,16.25 7.08333333,16.25 C8.00333333,16.25 8.75,16.9966667 8.75,17.9166667 Z" id="Stroke-3" stroke="#5C6BDD" stroke-linecap="round" stroke-linejoin="round"></path>
            <path d="M17.9166667,17.9166667 C17.9166667,18.8366667 17.17,19.5833333 16.25,19.5833333 C15.33,19.5833333 14.5833333,18.8366667 14.5833333,17.9166667 C14.5833333,16.9966667 15.33,16.25 16.25,16.25 C17.17,16.25 17.9166667,16.9966667 17.9166667,17.9166667 Z" id="Stroke-5" stroke="#5C6BDD" stroke-linecap="round" stroke-linejoin="round"></path>
            <path d="M0.416666667,0.416666667 C2.08333333,0.416666667 2.08333333,1.25 2.91666667,3.75 L5.41666667,13.75 C5.49916667,14.1341667 5.6975,14.5833333 6.09083333,14.5833333 L17.9166667,14.5833333" id="Stroke-7" stroke="#5C6BDD" stroke-linecap="round" stroke-linejoin="round"></path>
        </g>
    </g>
</svg>