<?xml version="1.0" encoding="UTF-8"?>
<svg width="20px" height="22px" viewBox="0 0 20 22" version="1.1" xmlns="http://www.w3.org/2000/svg" xmlns:xlink="http://www.w3.org/1999/xlink">
    <!-- Generator: sketchtool 63.1 (101010) - https://sketch.com -->
    <title>orders</title>
    <desc>Created with sketchtool.</desc>
    <g id="Dashboard" stroke="none" stroke-width="1" fill="none" fill-rule="evenodd">
        <g transform="translate(-24.000000, -197.000000)" id="Side_Menu">
            <g transform="translate(0.000000, 64.000000)">
                <g id="catalog" transform="translate(0.000000, 120.000000)">
                    <g id="Icon/Orders" transform="translate(24.000000, 14.000000)">
                        <g id="Group-21">
                            <rect id="Rectangle-Copy-4" fill-opacity="0.01" fill="#FFFFFF" x="0" y="0" width="20" height="20"></rect>
                            <g id="Group-9" stroke="#4D4D4E" stroke-linecap="round" stroke-linejoin="round">
                                <path d="M2.91666667,3.75 L17.6166667,3.75 C18.6416667,3.75 19.4333333,4.675 19.2583333,5.69166667 L18.0416667,11.4 C17.9666667,11.8 17.625,12.0833333 17.225,12.0833333 L5,12.0833333" id="Stroke-1"></path>
                                <path d="M8.75,17.9166667 C8.75,18.8366667 8.00333333,19.5833333 7.08333333,19.5833333 C6.16333333,19.5833333 5.41666667,18.8366667 5.41666667,17.9166667 C5.41666667,16.9966667 6.16333333,16.25 7.08333333,16.25 C8.00333333,16.25 8.75,16.9966667 8.75,17.9166667 Z" id="Stroke-3"></path>
                                <path d="M17.9166667,17.9166667 C17.9166667,18.8366667 17.17,19.5833333 16.25,19.5833333 C15.33,19.5833333 14.5833333,18.8366667 14.5833333,17.9166667 C14.5833333,16.9966667 15.33,16.25 16.25,16.25 C17.17,16.25 17.9166667,16.9966667 17.9166667,17.9166667 Z" id="Stroke-5"></path>
                                <path d="M0.416666667,0.416666667 C2.08333333,0.416666667 2.08333333,1.25 2.91666667,3.75 L5.41666667,13.75 C5.49916667,14.1341667 5.6975,14.5833333 6.09083333,14.5833333 L17.9166667,14.5833333" id="Stroke-7"></path>
                            </g>
                        </g>
                    </g>
                </g>
            </g>
        </g>
    </g>
</svg>