<?xml version="1.0" encoding="UTF-8"?>
<svg width="18" height="18" viewBox="0 0 18 18" fill="none" xmlns="http://www.w3.org/2000/svg">
<path fill-rule="evenodd" clip-rule="evenodd" d="M12.9075 7.11732H16.5C16.9125 7.11732 17.25 7.45482 17.25 7.86732L17.2275 8.06982L15.3225 15.0223C15.1425 15.6523 14.565 16.1173 13.875 16.1173H4.125C3.435 16.1173 2.8575 15.6523 2.685 15.0223L0.78 8.06982C0.7575 8.00232 0.75 7.93482 0.75 7.86732C0.75 7.45482 1.0875 7.11732 1.5 7.11732H5.0925L8.3775 2.20482C8.52 1.98732 8.76 1.88232 9 1.88232C9.24 1.88232 9.48 1.98732 9.6225 2.19732L12.9075 7.11732ZM11.1 7.11732L9 3.96732L6.9 7.11732H11.1ZM13.875 14.6173L4.1325 14.6248L2.4825 8.61732H15.525L13.875 14.6173ZM7.5 11.6173C7.5 10.7923 8.175 10.1173 9 10.1173C9.825 10.1173 10.5 10.7923 10.5 11.6173C10.5 12.4423 9.825 13.1173 9 13.1173C8.175 13.1173 7.5 12.4423 7.5 11.6173Z" fill="#BDBDBD"/>
</svg>