<svg width="20" height="14" viewBox="0 0 20 14" fill="none" xmlns="http://www.w3.org/2000/svg">
<path d="M15.833 8.66683V2.00016C15.833 1.0835 15.083 0.333496 14.1663 0.333496H2.49967C1.58301 0.333496 0.833008 1.0835 0.833008 2.00016V8.66683C0.833008 9.5835 1.58301 10.3335 2.49967 10.3335H14.1663C15.083 10.3335 15.833 9.5835 15.833 8.66683ZM14.1663 8.66683H2.49967V2.00016H14.1663V8.66683ZM8.33301 2.8335C6.94967 2.8335 5.83301 3.95016 5.83301 5.3335C5.83301 6.71683 6.94967 7.8335 8.33301 7.8335C9.71634 7.8335 10.833 6.71683 10.833 5.3335C10.833 3.95016 9.71634 2.8335 8.33301 2.8335ZM19.1663 2.8335V12.0002C19.1663 12.9168 18.4163 13.6668 17.4997 13.6668H3.33301C3.33301 12.8335 3.33301 12.9168 3.33301 12.0002H17.4997V2.8335C18.4163 2.8335 18.333 2.8335 19.1663 2.8335Z" fill="#2E31BE"/>
</svg>
