<svg width="30" height="30" viewBox="0 0 30 30" fill="none" xmlns="http://www.w3.org/2000/svg">
<rect width="30" height="30" rx="15" fill="#E7EEFF"/>
<mask id="mask0_18323_243752" style="mask-type:alpha" maskUnits="userSpaceOnUse" x="7" y="6" width="17" height="17">
<rect x="7.34082" y="6.74268" width="16" height="16" fill="#D9D9D9"/>
</mask>
<g mask="url(#mask0_18323_243752)">
<path d="M20.2904 19.791C19.0015 19.791 17.7211 19.4839 16.4491 18.8697C15.1767 18.2559 14.0404 17.4513 13.0404 16.4557C12.0404 15.46 11.2322 14.3317 10.6158 13.0706C9.99887 11.8095 9.69043 10.5318 9.69043 9.23746C9.69043 9.03833 9.7571 8.8724 9.89043 8.73965C10.0238 8.6069 10.1904 8.54053 10.3904 8.54053H12.5571C12.7349 8.54053 12.8875 8.59296 13.0151 8.69783C13.1431 8.80315 13.2238 8.93877 13.2571 9.10471L13.6404 11.0627C13.6627 11.2287 13.6571 11.378 13.6238 11.5108C13.5904 11.6435 13.5182 11.7597 13.4071 11.8592L11.8738 13.3527C12.4071 14.2377 13.0375 15.0397 13.7651 15.7587C14.4931 16.4778 15.3182 17.1028 16.2404 17.6338L17.7238 16.1404C17.8349 16.0298 17.9655 15.9523 18.1158 15.9081C18.2655 15.8638 18.4182 15.8528 18.5738 15.8749L20.4238 16.2565C20.5904 16.2897 20.7267 16.3672 20.8324 16.4888C20.9378 16.6105 20.9904 16.7599 20.9904 16.9369V19.094C20.9904 19.2932 20.9238 19.4591 20.7904 19.5918C20.6571 19.7246 20.4904 19.791 20.2904 19.791ZM11.4071 12.4068L12.5904 11.2785C12.6127 11.2563 12.6267 11.2313 12.6324 11.2035C12.6378 11.176 12.6349 11.1512 12.6238 11.1291L12.3404 9.6357C12.3293 9.60252 12.3127 9.57751 12.2904 9.5607C12.2682 9.54433 12.2404 9.53614 12.2071 9.53614H10.7904C10.7571 9.53614 10.732 9.54433 10.7151 9.5607C10.6987 9.57751 10.6904 9.59698 10.6904 9.61911C10.7238 10.0727 10.7989 10.5344 10.9158 11.0043C11.0322 11.4747 11.196 11.9422 11.4071 12.4068ZM19.9071 18.7622C19.9293 18.7622 19.9489 18.7538 19.9658 18.7369C19.9822 18.7206 19.9904 18.7013 19.9904 18.6792V17.2853C19.9904 17.2521 19.9822 17.2245 19.9658 17.2024C19.9489 17.1802 19.9238 17.1637 19.8904 17.1526L18.4904 16.8705C18.4682 16.8594 18.446 16.8594 18.4238 16.8705C18.4015 16.8816 18.3793 16.8926 18.3571 16.9037L17.1738 18.0984C17.6182 18.3086 18.0793 18.469 18.5571 18.5796C19.0349 18.6903 19.4849 18.7511 19.9071 18.7622Z" fill="#2E31BE"/>
</g>
</svg>
