<?xml version="1.0" encoding="UTF-8" standalone="no"?>
<svg width="40px" height="40px" viewBox="0 0 40 40" version="1.1" xmlns="http://www.w3.org/2000/svg" xmlns:xlink="http://www.w3.org/1999/xlink">
    <!-- Generator: Sketch 41.2 (35397) - http://www.bohemiancoding.com/sketch -->
    <title>pinterest_footer</title>
    <desc>Created with Sketch.</desc>
    <defs></defs>
    <g id="Page-1" stroke="none" stroke-width="1" fill="none" fill-rule="evenodd">
        <g id="pinterest_footer">
            <g id="contact_us_page_fb_hover" transform="translate(1.000000, 1.000000)">
                <circle id="Oval" fill="#9B9B9B" cx="19" cy="19" r="19"></circle>
                <g id="Group" transform="translate(10.000000, 9.000000)" fill="#FFFFFF">
                    <path d="M9.50055859,0 C4.25424825,0 0,4.25313106 0,9.50055859 C0,13.3894867 2.33938966,16.7321103 5.68759922,18.2012113 C5.66078673,17.5387194 5.68313048,16.7410478 5.85182572,16.019345 C6.03504439,15.2484859 7.07402834,10.8434174 7.07402834,10.8434174 C7.07402834,10.8434174 6.77127065,10.2367849 6.77127065,9.33968366 C6.77127065,7.93202799 7.58793438,6.88075498 8.6034574,6.88075498 C9.46704298,6.88075498 9.88487094,7.52984065 9.88487094,8.30740283 C9.88487094,9.17545716 9.33074616,10.4747457 9.04586347,11.6779561 C8.80790263,12.686776 9.55083201,13.5079085 10.5451285,13.5079085 C12.3449168,13.5079085 13.5570647,11.1964485 13.5570647,8.4571059 C13.5570647,6.37578644 12.154995,4.81731052 9.60445699,4.81731052 C6.72323161,4.81731052 4.92791204,6.9656612 4.92791204,9.36537896 C4.92791204,10.1943317 5.17145881,10.7775034 5.55353678,11.2288469 C5.73005233,11.4377609 5.75351326,11.5204328 5.6898336,11.7595108 C5.64514612,11.9326748 5.54013053,12.3549715 5.49656024,12.5214324 C5.43288058,12.7616276 5.23849003,12.8487682 5.02175575,12.7593932 C3.69342036,12.2175575 3.07561592,10.7640971 3.07561592,9.1296525 C3.07561592,6.43164579 5.35132592,3.19403775 9.86476157,3.19403775 C13.4922679,3.19403775 15.8796966,5.82054448 15.8796966,8.63697301 C15.8796966,12.363909 13.8084318,15.1479391 10.7529253,15.1479391 C9.72846475,15.1479391 8.76321515,14.5938143 8.43252778,13.964838 C8.43252778,13.964838 7.88063738,16.1534074 7.76444993,16.5757041 C7.56335627,17.3074616 7.16898924,18.0403363 6.80813783,18.6101017 C7.66278591,18.862586 8.56547304,19 9.50055859,19 C14.7468689,19 19,14.7468689 19,9.50055859 C19,4.25313106 14.7468689,0 9.50055859,0" id="Pinterest"></path>
                </g>
            </g>
        </g>
    </g>
</svg>