<?xml version="1.0" encoding="UTF-8"?>
<svg width="30px" height="30px" viewBox="0 0 30 30" version="1.1" xmlns="http://www.w3.org/2000/svg" xmlns:xlink="http://www.w3.org/1999/xlink">
    <title>Print</title>
    <g id="Icons" stroke="none" stroke-width="1" fill="none" fill-rule="evenodd">
        <g id="Print">
            <rect id="Rectangle" fill-opacity="0.01" fill="#FFFFFF" x="0" y="0" width="30" height="30"></rect>
            <g id="Group-11" transform="translate(4.000000, 4.000000)" stroke="#5C6BDD" stroke-linecap="round" stroke-linejoin="round">
                <path d="M16.9583333,16.0416667 L20.6295833,16.0416667 C21.1291667,16.0416667 21.5416667,15.6108333 21.5416667,15.0883333 L21.5416667,8.34533333 C21.5416667,7.98416667 21.4353333,7.63125 21.2355,7.33058333 L19.7129167,5.04166667 L2.29166667,5.04166667 L0.766333333,7.32966667 C0.565583333,7.63125 0.458333333,7.98508333 0.458333333,8.34625 L0.458333333,15.0883333 C0.458333333,15.6108333 0.870833333,16.0416667 1.37041667,16.0416667 L5.04166667,16.0416667" id="Stroke-1"></path>
                <polygon id="Stroke-3" points="5.04166667 5.04166667 16.9583333 5.04166667 16.9583333 0.458333333 5.04166667 0.458333333"></polygon>
                <polygon id="Stroke-5" points="5.04166667 21.5416667 16.9583333 21.5416667 16.9583333 13.2916667 5.04166667 13.2916667"></polygon>
                <line x1="7.79166667" y1="16.0416667" x2="14.2083333" y2="16.0416667" id="Stroke-6"></line>
                <line x1="7.79166667" y1="18.7916667" x2="12.375" y2="18.7916667" id="Stroke-7"></line>
                <path d="M16.5,8.70833333 C16.5,8.96133333 16.2946667,9.16666667 16.0416667,9.16666667 C15.7886667,9.16666667 15.5833333,8.96133333 15.5833333,8.70833333 C15.5833333,8.45533333 15.7886667,8.25 16.0416667,8.25 C16.2946667,8.25 16.5,8.45533333 16.5,8.70833333" id="Fill-8"></path>
                <path d="M19.25,8.70833333 C19.25,8.96133333 19.0446667,9.16666667 18.7916667,9.16666667 C18.5386667,9.16666667 18.3333333,8.96133333 18.3333333,8.70833333 C18.3333333,8.45533333 18.5386667,8.25 18.7916667,8.25 C19.0446667,8.25 19.25,8.45533333 19.25,8.70833333" id="Fill-9"></path>
                <line x1="3.20833333" y1="13.2916667" x2="18.7916667" y2="13.2916667" id="Stroke-10"></line>
            </g>
        </g>
    </g>
</svg>