<?xml version="1.0" encoding="UTF-8"?>
<svg width="20px" height="21px" viewBox="0 0 20 21" version="1.1" xmlns="http://www.w3.org/2000/svg" xmlns:xlink="http://www.w3.org/1999/xlink">
    <title>Product_Grey</title>
    <g id="Onboard" stroke="none" stroke-width="1" fill="none" fill-rule="evenodd">
        <g id="Product_Grey" transform="translate(0.000000, 1.000000)">
            <g id="Group-21">
                <rect id="Rectangle-Copy-4" fill-opacity="0.01" fill="#FFFFFF" x="0" y="0" width="20" height="20"></rect>
                <g id="Group-9" transform="translate(1.000000, 0.000000)" stroke="#5C6BDD" stroke-linecap="round">
                    <path d="M6.55325,19.01125 L0.66075,13.11875 C0.33575,12.79375 0.33575,12.2654167 0.66075,11.9404167 L10.0890833,2.51208333 L15.8790833,3.03875 C16.2799167,3.07541667 16.5974167,3.39291667 16.63325,3.79291667 L17.1599167,9.58375 L7.73158333,19.01125 C7.40575,19.3370833 6.87908333,19.3370833 6.55325,19.01125 Z" id="Stroke-1"></path>
                    <line x1="10.0888333" y1="7.22658333" x2="4.7855" y2="12.5290833" id="Stroke-3"></line>
                    <line x1="12.446" y1="9.58333333" x2="7.14266667" y2="14.8866667" id="Stroke-5"></line>
                    <path d="M14.4638333,5.41666667 C13.428,5.41666667 12.5888333,4.2975 12.5888333,2.91666667 C12.5888333,1.53583333 13.428,0.416666667 14.4638333,0.416666667 C15.4996667,0.416666667 16.3388333,1.53583333 16.3388333,2.91666667" id="Stroke-7"></path>
                </g>
            </g>
        </g>
    </g>
</svg>