<svg width="14" height="14" viewBox="0 0 14 14" fill="none" xmlns="http://www.w3.org/2000/svg">
<circle cx="7" cy="7" r="7" fill="#CD0909"/>
<path d="M7 8.75C7.48311 8.75 7.875 8.37667 7.875 7.91399V3.46023C7.875 2.99908 7.48228 2.625 7 2.625C6.51772 2.625 6.125 2.99911 6.125 3.46023V7.91399C6.125 8.37667 6.51772 8.75 7 8.75Z" fill="white"/>
<path d="M7 11.375C7.48311 11.375 7.875 11.0139 7.875 10.5672V10.4328C7.875 9.9868 7.48228 9.625 7 9.625C6.51772 9.625 6.125 9.98608 6.125 10.4328V10.5672C6.125 11.0139 6.51772 11.375 7 11.375Z" fill="white"/>
</svg>
