<?xml version="1.0" encoding="UTF-8"?>
<svg width="20px" height="20px" viewBox="0 0 20 20" version="1.1" xmlns="http://www.w3.org/2000/svg" xmlns:xlink="http://www.w3.org/1999/xlink">
    <title>exclaimation</title>
    <g id="SIde-NAv" stroke="none" stroke-width="1" fill="none" fill-rule="evenodd">
        <g id="exclaimation">
            <rect id="Rectangle" fill-opacity="0.01" fill="#FFFFFF" x="0" y="0" width="20" height="20"></rect>
            <g id="Group-28" transform="translate(1.000000, 1.000000)">
                <path d="M17.2173913,8.60869565 C17.2173913,13.3630435 13.3630435,17.2173913 8.60869565,17.2173913 C3.85434783,17.2173913 7.81597009e-14,13.3630435 7.81597009e-14,8.60869565 C7.81597009e-14,3.85434783 3.85434783,7.81597009e-14 8.60869565,7.81597009e-14 C13.3630435,7.81597009e-14 17.2173913,3.85434783 17.2173913,8.60869565 Z" id="Stroke-1" stroke="#666666" stroke-linecap="round" stroke-linejoin="round"></path>
                <path d="M9.64005806,11.0585389 L9.76584422,4 L8.17416546,4 L8.29995162,11.0585389 L9.64005806,11.0585389 Z M8.96758587,14 C9.23205935,14 9.45944203,13.9056604 9.64973391,13.7169811 C9.8400258,13.5283019 9.93517175,13.3001129 9.93517175,13.0324141 C9.93517175,12.7679407 9.8400258,12.5413643 9.64973391,12.3526851 C9.45944203,12.1640058 9.23205935,12.0696662 8.96758587,12.0696662 C8.7031124,12.0696662 8.47572972,12.1640058 8.28543783,12.3526851 C8.09514594,12.5413643 8,12.7679407 8,13.0324141 C8,13.3001129 8.09514594,13.5283019 8.28543783,13.7169811 C8.47572972,13.9056604 8.7031124,14 8.96758587,14 Z" id="!" fill="#666666" fill-rule="nonzero"></path>
            </g>
        </g>
    </g>
</svg>