<svg width="34" height="34" viewBox="0 0 34 34" fill="none" xmlns="http://www.w3.org/2000/svg">
<rect width="34" height="34" rx="16" fill="#8096E5"/>
<path d="M17.5312 34L9.5625 28.0439L23.9062 5.84375L34 14.3437V34H17.5312Z" fill="#3751AF" fill-opacity="0.5"/>
<rect x="9.03125" y="28.6875" width="23.375" height="15.4063" rx="2" transform="rotate(-90 9.03125 28.6875)" fill="#FBAA0D"/>
<path fill-rule="evenodd" clip-rule="evenodd" d="M17.6181 20.2787C17.543 20.1684 17.419 20.1034 17.2873 20.1055L16.0817 20.1247C15.9559 20.1267 15.8385 20.1897 15.7657 20.2942L15.2164 21.0831C15.1201 21.2213 14.9486 21.2847 14.7908 21.231C14.1603 21.0163 13.5747 20.6829 13.0649 20.2489C12.9309 20.1349 12.8976 19.9413 12.9753 19.782L13.3766 18.9587C13.4355 18.838 13.4311 18.6952 13.3649 18.5785L12.8044 17.5893C12.7382 17.4726 12.6191 17.3973 12.487 17.3889L11.5871 17.3314C11.4128 17.3203 11.2649 17.1941 11.235 17.0188C11.1211 16.3519 11.1308 15.6684 11.2637 15.0048C11.297 14.8387 11.4365 14.7191 11.6022 14.7033L12.5467 14.6131C12.672 14.6011 12.7842 14.5291 12.8488 14.419L13.4677 13.3652C13.5354 13.25 13.5422 13.108 13.486 12.9867L13.1096 12.1747C13.0363 12.0165 13.0708 11.8271 13.2022 11.7144C13.7086 11.2798 14.2869 10.9395 14.9094 10.7098C15.0709 10.6502 15.2493 10.7145 15.3471 10.8583L15.8491 11.5964C15.9242 11.7068 16.0482 11.7717 16.1799 11.7696L17.3853 11.7504C17.5111 11.7484 17.6285 11.6854 17.7013 11.5809L18.2507 10.7919C18.3469 10.6537 18.5184 10.5903 18.6762 10.644C19.3067 10.8585 19.8925 11.1916 20.4024 11.6254C20.5365 11.7394 20.5698 11.9331 20.4921 12.0924L20.0906 12.916C20.0317 13.0368 20.0361 13.1795 20.1023 13.2963L20.6629 14.2856C20.7291 14.4024 20.8482 14.4777 20.9803 14.4861L21.8816 14.5436C22.0558 14.5547 22.2038 14.6809 22.2337 14.8562C22.3476 15.523 22.338 16.2064 22.2052 16.8699C22.172 17.036 22.0324 17.1557 21.8667 17.1715L20.9208 17.2618C20.7955 17.2738 20.6833 17.3459 20.6187 17.4559L19.9995 18.5102C19.9319 18.6253 19.9251 18.7673 19.9813 18.8886L20.3581 19.7017C20.4315 19.8599 20.3969 20.0494 20.2655 20.1621C19.759 20.5965 19.1808 20.9366 18.5582 21.1661C18.3968 21.2257 18.2185 21.1614 18.1207 21.0176L17.6181 20.2787ZM16.7339 18.0258C17.463 18.0142 18.1343 17.6193 18.5088 16.9817L18.5424 16.9244C18.9142 16.2915 18.9202 15.503 18.5582 14.8642C18.1962 14.2254 17.523 13.8365 16.7991 13.848L16.7336 13.849C16.0045 13.8606 15.3331 14.2556 14.9587 14.8931L14.9251 14.9504C14.5533 15.5834 14.5473 16.3719 14.9093 17.0106C15.2712 17.6495 15.9445 18.0384 16.6683 18.0269L16.7339 18.0258Z" fill="#3751AF"/>
<rect x="19.6562" y="26.5625" width="5.3125" height="1.59375" rx="0.796875" transform="rotate(-180 19.6562 26.5625)" fill="#FFF6E4"/>
</svg>
