<?xml version="1.0" encoding="UTF-8"?>
<svg width="24px" height="24px" viewBox="0 0 24 24" version="1.1" xmlns="http://www.w3.org/2000/svg" xmlns:xlink="http://www.w3.org/1999/xlink">
    <!-- Generator: Sketch 53 (72520) - https://sketchapp.com -->
    <title>wishliat</title>
    <desc>Created with Sketch.</desc>
    <g id="wishliat" stroke="none" stroke-width="1" fill="none" fill-rule="evenodd">
        <g id="Group-4">
            <rect id="Rectangle" x="0" y="0" width="24" height="24"></rect>
            <g id="Imported-Layers-Copy" transform="translate(2.000000, 4.000000)" stroke="#41434C">
                <path d="M9.49404149,15.3959151 C10.2540595,14.8721127 11.7040321,13.8102024 13.0187379,12.7515569 C15.4793727,10.7701705 17.2466922,9.00666238 17.8864393,7.73285645 C18.6521134,6.20837943 18.6521134,4.83730511 18.2008805,3.68185742 C18.0914076,3.401536 17.9856524,3.21096159 17.9241868,3.12351269 L17.8670123,3.01661103 C17.841757,2.95141848 17.7791722,2.81936536 17.675266,2.64305153 C17.4979254,2.34212986 17.2711228,2.04007614 16.9915407,1.75857517 C16.3436961,1.10628425 15.516795,0.664405977 14.4785888,0.523633458 L14.478516,0.523623585 C13.3928184,0.376249205 12.2487354,0.923405742 11.1379944,1.95230948 C10.7825623,2.28155397 10.4580281,2.63571816 10.1722013,2.98966626 C10.0019254,3.20052424 9.88390302,3.36223759 9.27333696,3.65195122 L9.05607607,3.52417147 C9.05601345,3.52411376 9.05601345,3.52411376 9.03311817,3.49957365 C9.01039493,3.47193629 9.01039493,3.47193629 9.0026301,3.46096239 C8.99265792,3.44657423 8.99265792,3.44657423 8.98879085,3.44058048 C8.98325298,3.43191004 8.98325298,3.43191004 8.97970648,3.42620397 C8.97251296,3.41458045 8.97251296,3.41458045 8.96326975,3.39963679 C8.94031063,3.3627114 8.94031063,3.3627114 8.90482673,3.30710734 C8.83877692,3.20446686 8.76298034,3.09254933 8.67581856,2.9712132 C8.42381908,2.62040987 8.13498138,2.27126882 7.81292996,1.94663039 C6.78134733,0.90676111 5.67279588,0.369848674 4.53841397,0.553368921 C3.51989559,0.718189348 2.7011735,1.15550329 2.05402035,1.78389426 C1.76066374,2.06874591 1.52261529,2.37413305 1.33631411,2.67825331 C1.2272684,2.85626083 1.16153467,2.98949462 1.1349909,3.05520401 L1.07980877,3.15635912 C1.01785001,3.24409335 0.911320089,3.43506425 0.801081289,3.71572458 C0.346918322,4.87199194 0.346918322,6.24184535 1.11744165,7.76266636 C1.4689018,8.45661151 2.14187035,9.29435003 3.08374037,10.2348702 C3.70481649,10.8550562 4.43105824,11.5085078 5.24102607,12.1838006 C6.23151413,13.0095981 7.29432117,13.8250356 8.35729092,14.5934878 C8.72941303,14.8625059 9.07484013,15.1063372 9.3846049,15.3204692 C9.42346666,15.3473333 9.45997308,15.3724957 9.49404149,15.3959151 Z" id="Stroke-3"></path>
            </g>
        </g>
    </g>
</svg>