<?xml version="1.0" encoding="UTF-8"?>
<svg width="24px" height="24px" viewBox="0 0 24 24" version="1.1" xmlns="http://www.w3.org/2000/svg" xmlns:xlink="http://www.w3.org/1999/xlink">
    <!-- Generator: Sketch 52.5 (67469) - http://www.bohemiancoding.com/sketch -->
    <title>secure-white</title>
    <desc>Created with Sketch.</desc>
    <g id="secure-white" stroke="none" stroke-width="1" fill="none" fill-rule="evenodd">
        <g id="Group">
            <rect id="Rectangle" x="0" y="0" width="24" height="24"></rect>
            <g id="Imported-Layers" transform="translate(5.000000, 4.000000)">
                <path d="M13.3010182,6.85382353 C13.1355636,6.19654412 12.5513818,5.70860294 11.8511273,5.70860294 L1.70036364,5.70860294 C0.9996,5.70860294 0.415672727,6.19654412 0.249709091,6.85382353 C0.249709091,6.85382353 0.198290909,8.43577206 0.1988,9.74724265 C0.1988,11.2810662 0.197781818,14.7087788 0.197781818,15.3559926 C0.197781818,15.3559926 0.197781818,16.5012134 1.70087273,16.5012132 L11.8516364,16.5012132 C12.8159571,16.5012134 13.1363273,16.0130147 13.3020364,15.3559926 C13.3020364,15.3559926 13.3537091,13.7737868 13.3534545,12.4625735 C13.3534545,10.92875 13.3010182,6.85382353 13.3010182,6.85382353 Z" id="Stroke-1" fill="#FFFFFF"></path>
                <path d="M6.65865455,8.46279412 C5.75323636,8.46279412 5.01912727,9.205 5.01912727,10.1201471 C5.01912727,10.7879779 5.41010909,11.361875 5.97290909,11.624375 L5.97290909,13.3705147 C5.97290909,13.8062132 6.2664,14.1585294 6.62887273,14.1585294 C6.99109091,14.1585294 7.28458182,13.8062132 7.28458182,13.3705147 L7.28458182,11.6516544 C7.87945455,11.4033088 8.29818182,10.8116544 8.29818182,10.1201471 C8.29818182,9.205 7.56381818,8.46279412 6.65865455,8.46279412 Z" id="Stroke-2" fill="#02D1CB"></path>
                <path d="M10.7492002,5.00597912 L10.7492,3.11474265 C10.7492,1.45198529 9.4164,0.103970588 7.77229091,0.103970588 L5.49283636,0.103970588 C3.84821818,0.103970588 2.51516364,1.45198529 2.51516364,3.11474265 L2.51516364,5.00597912" id="Stroke-3" stroke="#FFFFFF" stroke-linecap="square"></path>
            </g>
        </g>
    </g>
</svg>