<?xml version="1.0" encoding="UTF-8" standalone="no"?>
<svg width="16px" height="16px" viewBox="0 0 16 16" version="1.1" xmlns="http://www.w3.org/2000/svg" xmlns:xlink="http://www.w3.org/1999/xlink">
    <!-- Generator: Sketch 41.2 (35397) - http://www.bohemiancoding.com/sketch -->
    <title>secure_top</title>
    <desc>Created with Sketch.</desc>
    <defs></defs>
    <g id="assets" stroke="none" stroke-width="1" fill="none" fill-rule="evenodd">
        <g id="secure_top">
            <g id="Imported-Layers" transform="translate(3.594214, 2.895109)">
                <path d="M8.55065455,4.40602941 C8.44429091,3.98349265 8.06874545,3.66981618 7.61858182,3.66981618 L1.09309091,3.66981618 C0.6426,3.66981618 0.267218182,3.98349265 0.160527273,4.40602941 C0.160527273,4.40602941 0.127472727,5.42299632 0.1278,6.26608456 C0.1278,7.25211397 0.127145455,9.4556435 0.127145455,9.87170956 C0.127145455,9.87170956 0.127145455,10.6079229 1.09341818,10.6079228 L7.61890909,10.6079228 C8.23882954,10.6079229 8.44478182,10.2940809 8.55130909,9.87170956 C8.55130909,9.87170956 8.58452727,8.85457721 8.58436364,8.01165441 C8.58436364,7.025625 8.55065455,4.40602941 8.55065455,4.40602941 Z M4.28056364,5.44036765 C3.69850909,5.44036765 3.22658182,5.9175 3.22658182,6.50580882 C3.22658182,6.93512868 3.47792727,7.3040625 3.83972727,7.4728125 L3.83972727,8.59533088 C3.83972727,8.87542279 4.0284,9.10191176 4.26141818,9.10191176 C4.49427273,9.10191176 4.68294545,8.87542279 4.68294545,8.59533088 L4.68294545,7.49034926 C5.06536364,7.33069853 5.33454545,6.95034926 5.33454545,6.50580882 C5.33454545,5.9175 4.86245455,5.44036765 4.28056364,5.44036765 Z" id="Combined-Shape" fill="#9B9B9B"></path>
                <path d="M7.0256633,3.21812943 L7.02566316,2.00233456 C7.02566316,0.933419118 6.16886316,0.0668382353 5.11193589,0.0668382353 L3.64657226,0.0668382353 C2.58931771,0.0668382353 1.73235407,0.933419118 1.73235407,2.00233456 L1.73235407,3.21812943" id="Stroke-3" stroke="#9B9B9B" stroke-linecap="square"></path>
            </g>
        </g>
    </g>
</svg>