<?xml version="1.0" encoding="UTF-8"?>
<svg width="22px" height="22px" viewBox="0 0 22 22" version="1.1" xmlns="http://www.w3.org/2000/svg" xmlns:xlink="http://www.w3.org/1999/xlink">
    <!-- Generator: Sketch 63.1 (92452) - https://sketch.com -->
    <title>Setting Copy</title>
    <desc>Created with Sketch.</desc>
    <g id="Icons" stroke="none" stroke-width="1" fill="none" fill-rule="evenodd">
        <g id="Setting-Copy" transform="translate(1.000000, 1.000000)">
            <rect id="Rectangle" fill-opacity="0.01" fill="#FFFFFF" fill-rule="nonzero" x="0" y="0" width="20" height="20"></rect>
            <path d="M3.81266667,6.55841667 L2.33933333,4.10758333 L4.10766667,2.34008333 L6.5585,3.81258333 L6.5585,3.81675 C7.02516667,3.55008333 7.52516667,3.34175 8.0585,3.19175 L8.75016667,0.41675 L11.2501667,0.41675 L11.9418333,3.19175 C12.4751667,3.34175 12.9751667,3.55008333 13.4418333,3.81675 L13.441,3.81258333 L15.8926667,2.34008333 L17.6601667,4.10758333 L16.1876667,6.55841667 L16.1835,6.55841667 C16.4501667,7.02508333 16.6585,7.52508333 16.8085,8.05841667 L19.5835,8.75008333 L19.5835,11.2500833 L16.8085,11.94175 C16.6585,12.4750833 16.4501667,12.9750833 16.1835,13.44175 L16.1876667,13.44175 L17.6601667,15.8925833 L15.8926667,17.6600833 L13.441,16.1875833 L13.4418333,16.1834167 C12.9751667,16.4500833 12.4751667,16.6584167 11.9418333,16.8084167 L11.2501667,19.5834167 L8.75016667,19.5834167 L8.0585,16.8084167 C7.52516667,16.6584167 7.02516667,16.4500833 6.5585,16.1834167 L6.5585,16.1875833 L4.10766667,17.6600833 L2.33933333,15.8925833 L3.81266667,13.44175 L3.81683333,13.44175 C3.55016667,12.9750833 3.34183333,12.4750833 3.19183333,11.94175 L0.416833333,11.2500833 L0.416833333,8.75008333 L3.19183333,8.05841667 C3.34183333,7.52508333 3.55016667,7.02508333 3.81683333,6.55841667 L3.81266667,6.55841667 Z" id="Stroke-1" stroke="#5C6BDD" stroke-linecap="round" stroke-linejoin="round"></path>
            <path d="M13.75,10 C13.75,12.0708333 12.0708333,13.75 10,13.75 C7.92916667,13.75 6.25,12.0708333 6.25,10 C6.25,7.92916667 7.92916667,6.25 10,6.25 C12.0708333,6.25 13.75,7.92916667 13.75,10 Z" id="Stroke-3" stroke="#5C6BDD" stroke-linecap="round" stroke-linejoin="round"></path>
        </g>
    </g>
</svg>