<svg xmlns="http://www.w3.org/2000/svg" xmlns:xlink="http://www.w3.org/1999/xlink" width="24" height="24" viewBox="0 0 24 24">
  <defs>
    <clipPath id="clip-Store">
      <rect width="24" height="24"/>
    </clipPath>
  </defs>
  <g id="Store" clip-path="url(#clip-Store)">
    <g id="Group_7" data-name="Group 7">
      <rect id="Rectangle" width="24" height="24" fill="none"/>
      <g id="Imported_Layers" data-name="Imported Layers" transform="translate(2 3)">
        <path id="Fill_1" data-name="Fill 1" d="M13.952,10.039H1.434A1.436,1.436,0,0,1,0,8.6V.534c0-.243.142,0,.385,0s.5-.243.5,0V8.6a.553.553,0,0,0,.553.553H13.952a.554.554,0,0,0,.554-.553V.44c0-.243.274,0,.517,0s.364-.243.364,0V8.6a1.436,1.436,0,0,1-1.435,1.434" transform="translate(2.818 6.255)" fill="#41434c"/>
        <path id="Fill_2" data-name="Fill 2" d="M3.63,7.436a4.077,4.077,0,0,1-3.5-2.3.383.383,0,0,1-.066-.091.435.435,0,0,1,0-.459l3.2-4.4A.442.442,0,0,1,3.626,0H16.06a.445.445,0,0,1,.326.144l3.629,4a.447.447,0,0,1,.1.424,4.044,4.044,0,0,1-3.562,2.672,4.283,4.283,0,0,1-3.186-1.77A4.263,4.263,0,0,1,10.134,7.28,3.965,3.965,0,0,1,7.083,5.471,4.654,4.654,0,0,1,3.63,7.436ZM3.85.881.965,4.846A3.2,3.2,0,0,0,3.63,6.556,3.836,3.836,0,0,0,6.655,4.537a.44.44,0,0,1,.824,0A3.083,3.083,0,0,0,10.134,6.4a3.4,3.4,0,0,0,2.851-2.074.431.431,0,0,1,.418-.313.473.473,0,0,1,.062,0,.437.437,0,0,1,.382.422,3.126,3.126,0,0,0,2.7,1.921,3.2,3.2,0,0,0,2.634-1.823L15.864.881Z" transform="translate(0.568)" fill="#41434c"/>
        <path id="Fill_3" data-name="Fill 3" d="M.441,3.117a.447.447,0,0,1-.15-.026.44.44,0,0,1-.265-.564L.833.292a.441.441,0,1,1,.83.3L.856,2.827a.443.443,0,0,1-.415.291" transform="translate(7.194 0.199)" fill="#41434c"/>
        <path id="Fill_4" data-name="Fill 4" d="M1.248,3.117a.442.442,0,0,1-.415-.291L.026.591a.441.441,0,1,1,.829-.3l.807,2.235a.44.44,0,0,1-.264.564.451.451,0,0,1-.15.026" transform="translate(12.162 0.199)" fill="#41434c"/>
        <path id="Fill_5" data-name="Fill 5" d="M1.5,7.616A1.651,1.651,0,0,1,0,5.853V2.567A.53.53,0,0,1,.483,2a.529.529,0,0,1,.483.567V5.853a.589.589,0,0,0,.537.629H7.264A.589.589,0,0,0,7.8,5.853V2.567A.53.53,0,0,1,8.284,2a.53.53,0,0,1,.483.567V5.853a1.651,1.651,0,0,1-1.5,1.763Z" transform="translate(6.471 3.529)" fill="#41434c"/>
      </g>
    </g>
  </g>
</svg>
