<?xml version="1.0" encoding="UTF-8"?>
<svg width="24px" height="24px" viewBox="0 0 24 24" version="1.1" xmlns="http://www.w3.org/2000/svg" xmlns:xlink="http://www.w3.org/1999/xlink">
    <title>Contact</title>
    <g id="Onboard" stroke="none" stroke-width="1" fill="none" fill-rule="evenodd">
        <g id="Home_New_1" transform="translate(-1088.000000, -20.000000)">
            <g id="Group-4">
                <g id="Group-48" transform="translate(1088.000000, 20.000000)">
                    <g id="Contact">
                        <rect id="Rectangle" fill-opacity="0.01" fill="#FFFFFF" x="0" y="0" width="24" height="24"></rect>
                        <g id="Help" transform="translate(2.000000, 2.000000)" stroke="#4D4D4E" stroke-linecap="round" stroke-linejoin="round">
                            <path d="M3.75,12.0833333 L4.58333333,12.0833333 L4.58333333,7.08333333 L3.75,7.08333333 C2.36916667,7.08333333 1.25,8.2025 1.25,9.58333333 C1.25,10.9641667 2.36916667,12.0833333 3.75,12.0833333 Z" id="Stroke-1"></path>
                            <path d="M17.0833333,12.0833333 L16.25,12.0833333 L16.25,7.08333333 L17.0833333,7.08333333 C18.4641667,7.08333333 19.5833333,8.2025 19.5833333,9.58333333 C19.5833333,10.9641667 18.4641667,12.0833333 17.0833333,12.0833333 Z" id="Stroke-3"></path>
                            <path d="M4.58333333,7.08333333 L4.58333333,5.41666667 C4.58333333,2.65583333 7.65583333,0.416666667 10.4166667,0.416666667 C13.1775,0.416666667 16.25,2.65583333 16.25,5.41666667 L16.25,7.08333333" id="Stroke-5"></path>
                            <path d="M16.25,12.0833333 C16.25,13.9166667 14.5833333,15.4166667 12.9166667,15.4166667" id="Stroke-7"></path>
                            <path d="M17.325,15.8170833 C17.625,16.03375 17.9,16.26625 18.15,16.5170833 C19.0583333,17.4079167 19.5833333,18.45875 19.5833333,19.58375" id="Stroke-9"></path>
                            <path d="M0.416666667,19.5833333 C0.416666667,17.125 2.90833333,15.025 6.43333333,14.175" id="Stroke-11"></path>
                            <path d="M12.0833333,16.25 L10.4166667,16.25 C9.95666667,16.25 9.58333333,15.8775 9.58333333,15.4166667 C9.58333333,14.9558333 9.95666667,14.5833333 10.4166667,14.5833333 L12.0833333,14.5833333 C12.5433333,14.5833333 12.9166667,14.9558333 12.9166667,15.4166667 C12.9166667,15.8775 12.5433333,16.25 12.0833333,16.25 Z" id="Stroke-13"></path>
                        </g>
                    </g>
                </g>
            </g>
        </g>
    </g>
</svg>