<?xml version="1.0" encoding="UTF-8"?>
<svg width="21px" height="20px" viewBox="0 0 21 20" version="1.1" xmlns="http://www.w3.org/2000/svg" xmlns:xlink="http://www.w3.org/1999/xlink">
    <!-- Generator: Sketch 63.1 (92452) - https://sketch.com -->
    <title>Team</title>
    <desc>Created with Sketch.</desc>
    <g id="Dashboard" stroke="none" stroke-width="1" fill="none" fill-rule="evenodd">
        <g transform="translate(-23.000000, -150.000000)" id="Side_Menu">
            <g transform="translate(0.000000, 64.000000)">
                <g id="finance" transform="translate(0.000000, 72.000000)">
                    <g id="Group-3" transform="translate(24.000000, 13.000000)">
                        <g id="Team" transform="translate(0.000000, 1.000000)">
                            <rect id="Rectangle-Copy-6" fill-opacity="0.01" fill="#FFFFFF" x="0" y="0" width="20" height="20"></rect>
                            <g id="Group-9" transform="translate(0.000000, 1.000000)" stroke="#4D4D4E" stroke-linecap="round" stroke-linejoin="round">
                                <path d="M15.3399167,4.49058333 C15.3399167,5.92308333 14.22075,7.08308333 12.8399167,7.08308333 C11.4590833,7.08308333 10.3399167,5.92308333 10.3399167,4.49058333 L10.3399167,3.00975 C10.3399167,1.57725 11.4590833,0.416416667 12.8399167,0.416416667 C14.22075,0.416416667 15.3399167,1.57725 15.3399167,3.00975 L15.3399167,4.49058333 Z" id="Stroke-1"></path>
                                <path d="M8.25658333,2.91666667 C8.25658333,4.0675 7.32408333,5 6.17325,5 C5.02241667,5 4.08991667,4.0675 4.08991667,2.91666667 C4.08991667,1.76583333 5.02241667,0.833333333 6.17325,0.833333333 C7.32408333,0.833333333 8.25658333,1.76583333 8.25658333,2.91666667 Z" id="Stroke-3"></path>
                                <path d="M8.27125,9.7005 C7.44708333,9.10133333 6.43708333,8.74966667 5.33958333,8.74966667 C2.90708333,8.74966667 0.88125,10.4913333 0.43125,12.7913333 C0.332083333,13.2921667 0.74875,13.7496667 1.25708333,13.7496667 L5.33958333,13.7496667" id="Stroke-5"></path>
                                <path d="M12.8399167,9.58333333 L12.8399167,9.58333333 C9.47991667,9.58333333 6.69991667,12.0691667 6.23991667,15.3025 C6.16908333,15.8025 6.56741667,16.25 7.07241667,16.25 L18.6074167,16.25 C19.1124167,16.25 19.51075,15.8025 19.4399167,15.3025 C18.9799167,12.0691667 16.1999167,9.58333333 12.8399167,9.58333333 Z" id="Stroke-7"></path>
                            </g>
                        </g>
                    </g>
                </g>
            </g>
        </g>
    </g>
</svg>