<?xml version="1.0" encoding="UTF-8"?>
<svg width="21px" height="20px" viewBox="0 0 21 20" version="1.1" xmlns="http://www.w3.org/2000/svg" xmlns:xlink="http://www.w3.org/1999/xlink">
    <!-- Generator: Sketch 63.1 (92452) - https://sketch.com -->
    <title>Team</title>
    <desc>Created with Sketch.</desc>
    <g id="Icons" stroke="none" stroke-width="1" fill="none" fill-rule="evenodd">
        <g id="Team" transform="translate(1.000000, 0.000000)">
            <rect id="Rectangle-Copy-6" fill-opacity="0.01" fill="#FFFFFF" fill-rule="nonzero" x="0" y="0" width="20" height="20"></rect>
            <path d="M15.3399167,5.49058333 C15.3399167,6.92308333 14.22075,8.08308333 12.8399167,8.08308333 C11.4590833,8.08308333 10.3399167,6.92308333 10.3399167,5.49058333 L10.3399167,4.00975 C10.3399167,2.57725 11.4590833,1.41641667 12.8399167,1.41641667 C14.22075,1.41641667 15.3399167,2.57725 15.3399167,4.00975 L15.3399167,5.49058333 Z" id="Stroke-1" stroke="#5C6BDD" stroke-linecap="round" stroke-linejoin="round"></path>
            <path d="M8.25658333,3.91666667 C8.25658333,5.0675 7.32408333,6 6.17325,6 C5.02241667,6 4.08991667,5.0675 4.08991667,3.91666667 C4.08991667,2.76583333 5.02241667,1.83333333 6.17325,1.83333333 C7.32408333,1.83333333 8.25658333,2.76583333 8.25658333,3.91666667 Z" id="Stroke-3" stroke="#5C6BDD" stroke-linecap="round" stroke-linejoin="round"></path>
            <path d="M8.27125,10.7005 C7.44708333,10.1013333 6.43708333,9.74966667 5.33958333,9.74966667 C2.90708333,9.74966667 0.88125,11.4913333 0.43125,13.7913333 C0.332083333,14.2921667 0.74875,14.7496667 1.25708333,14.7496667 L5.33958333,14.7496667" id="Stroke-5" stroke="#5C6BDD" stroke-linecap="round" stroke-linejoin="round"></path>
            <path d="M12.8399167,10.5833333 L12.8399167,10.5833333 C9.47991667,10.5833333 6.69991667,13.0691667 6.23991667,16.3025 C6.16908333,16.8025 6.56741667,17.25 7.07241667,17.25 L18.6074167,17.25 C19.1124167,17.25 19.51075,16.8025 19.4399167,16.3025 C18.9799167,13.0691667 16.1999167,10.5833333 12.8399167,10.5833333 Z" id="Stroke-7" stroke="#5C6BDD" stroke-linecap="round" stroke-linejoin="round"></path>
        </g>
    </g>
</svg>