<svg width="24" height="24" viewBox="0 0 24 24" fill="none" xmlns="http://www.w3.org/2000/svg">
<circle cx="12" cy="12" r="12" fill="#2E31BE"/>
<path d="M11.4995 16.1193C10.8858 16.1193 10.3404 16.0142 9.8631 15.804C9.38867 15.5937 9.01367 15.3011 8.7381 14.9261C8.46254 14.5511 8.31623 14.1179 8.29918 13.6264H9.90146C9.91566 13.8622 9.99379 14.0682 10.1358 14.2443C10.2779 14.4176 10.4668 14.5526 10.7026 14.6491C10.9384 14.7457 11.2026 14.794 11.4952 14.794C11.8077 14.794 12.0847 14.7401 12.3262 14.6321C12.5676 14.5213 12.7566 14.3679 12.8929 14.1719C13.0293 13.9759 13.0961 13.75 13.0932 13.4943C13.0961 13.2301 13.0279 12.9972 12.8887 12.7955C12.7495 12.5937 12.5478 12.4361 12.2836 12.3224C12.0222 12.2088 11.7069 12.152 11.3375 12.152H10.5662V10.9332H11.3375C11.6415 10.9332 11.9071 10.8807 12.1344 10.7756C12.3645 10.6705 12.5449 10.5227 12.6756 10.3324C12.8063 10.1392 12.8702 9.91619 12.8674 9.66335C12.8702 9.41619 12.8148 9.2017 12.7012 9.01989C12.5904 8.83523 12.4327 8.69176 12.2282 8.58949C12.0265 8.48722 11.7892 8.43608 11.5165 8.43608C11.2495 8.43608 11.0023 8.48437 10.775 8.58097C10.5478 8.67756 10.3645 8.81534 10.2253 8.99432C10.0861 9.17045 10.0123 9.38068 10.0037 9.625H8.48242C8.49379 9.13636 8.63441 8.70739 8.9043 8.33807C9.17702 7.96591 9.54066 7.67614 9.99521 7.46875C10.4498 7.25852 10.9597 7.15341 11.525 7.15341C12.1074 7.15341 12.6131 7.26278 13.0421 7.48153C13.4739 7.69744 13.8077 7.98864 14.0435 8.35511C14.2793 8.72159 14.3972 9.12642 14.3972 9.5696C14.4 10.0611 14.2551 10.473 13.9625 10.8054C13.6728 11.1378 13.2921 11.3551 12.8205 11.4574V11.5256C13.4341 11.6108 13.9043 11.8381 14.231 12.2074C14.5605 12.5739 14.7239 13.0298 14.7211 13.5753C14.7211 14.0639 14.5819 14.5014 14.3034 14.8878C14.0279 15.2713 13.6472 15.5724 13.1614 15.7912C12.6784 16.0099 12.1245 16.1193 11.4995 16.1193Z" fill="white"/>
</svg>
