<svg width="25" height="25" viewBox="0 0 25 25" fill="none" xmlns="http://www.w3.org/2000/svg">
<circle cx="12.5" cy="12.5" r="12" fill="#F8F8F8"/>
<path d="M11.9995 16.6193C11.3858 16.6193 10.8404 16.5142 10.3631 16.304C9.88867 16.0937 9.51367 15.8011 9.2381 15.4261C8.96254 15.0511 8.81623 14.6179 8.79918 14.1264H10.4015C10.4157 14.3622 10.4938 14.5682 10.6358 14.7443C10.7779 14.9176 10.9668 15.0526 11.2026 15.1491C11.4384 15.2457 11.7026 15.294 11.9952 15.294C12.3077 15.294 12.5847 15.2401 12.8262 15.1321C13.0676 15.0213 13.2566 14.8679 13.3929 14.6719C13.5293 14.4759 13.5961 14.25 13.5932 13.9943C13.5961 13.7301 13.5279 13.4972 13.3887 13.2955C13.2495 13.0937 13.0478 12.9361 12.7836 12.8224C12.5222 12.7088 12.2069 12.652 11.8375 12.652H11.0662V11.4332H11.8375C12.1415 11.4332 12.4071 11.3807 12.6344 11.2756C12.8645 11.1705 13.0449 11.0227 13.1756 10.8324C13.3063 10.6392 13.3702 10.4162 13.3674 10.1634C13.3702 9.91619 13.3148 9.7017 13.2012 9.51989C13.0904 9.33523 12.9327 9.19176 12.7282 9.08949C12.5265 8.98722 12.2892 8.93608 12.0165 8.93608C11.7495 8.93608 11.5023 8.98437 11.275 9.08097C11.0478 9.17756 10.8645 9.31534 10.7253 9.49432C10.5861 9.67045 10.5123 9.88068 10.5037 10.125H8.98242C8.99379 9.63636 9.13441 9.20739 9.4043 8.83807C9.67702 8.46591 10.0407 8.17614 10.4952 7.96875C10.9498 7.75852 11.4597 7.65341 12.025 7.65341C12.6074 7.65341 13.1131 7.76278 13.5421 7.98153C13.9739 8.19744 14.3077 8.48864 14.5435 8.85511C14.7793 9.22159 14.8972 9.62642 14.8972 10.0696C14.9 10.5611 14.7551 10.973 14.4625 11.3054C14.1728 11.6378 13.7921 11.8551 13.3205 11.9574V12.0256C13.9341 12.1108 14.4043 12.3381 14.731 12.7074C15.0605 13.0739 15.2239 13.5298 15.2211 14.0753C15.2211 14.5639 15.0819 15.0014 14.8034 15.3878C14.5279 15.7713 14.1472 16.0724 13.6614 16.2912C13.1784 16.5099 12.6245 16.6193 11.9995 16.6193Z" fill="#BDBDBD"/>
</svg>
