<?xml version="1.0" encoding="UTF-8" standalone="no"?>
<svg width="40px" height="40px" viewBox="0 0 40 40" version="1.1" xmlns="http://www.w3.org/2000/svg" xmlns:xlink="http://www.w3.org/1999/xlink">
    <!-- Generator: Sketch 41.2 (35397) - http://www.bohemiancoding.com/sketch -->
    <title>twitter_footer</title>
    <desc>Created with Sketch.</desc>
    <defs></defs>
    <g id="Page-1" stroke="none" stroke-width="1" fill="none" fill-rule="evenodd">
        <g id="twitter_footer">
            <g id="Group" transform="translate(1.000000, 1.000000)">
                <circle id="Oval" fill="#9B9B9B" cx="19" cy="19" r="19"></circle>
                <path d="M28,14.5784278 C27.4121031,14.8461538 26.7791278,15.027206 26.1151611,15.1081016 C26.7932148,14.6920669 27.3134942,14.0323823 27.5586077,13.2465391 C26.9237542,13.6317564 26.2222222,13.9120019 25.4727945,14.0622367 C24.8755063,13.4083303 24.0218348,13 23.0770676,13 C21.265481,13 19.7957387,14.5071626 19.7957387,16.365836 C19.7957387,16.6297099 19.8239127,16.8858794 19.8802606,17.1324184 C17.1520808,16.9918141 14.7338146,15.6531841 13.1138111,13.6144216 C12.8311322,14.113278 12.6696015,14.6920669 12.6696015,15.3084146 C12.6696015,16.475623 13.2490462,17.5060792 14.1299525,18.1099073 C13.5927687,18.0935356 13.0856371,17.9404117 12.6423666,17.6900205 L12.6423666,17.7314313 C12.6423666,19.3628265 13.7740212,20.7236066 15.2766332,21.0317804 C15.0014674,21.11075 14.7112755,21.1502347 14.4116922,21.1502347 C14.2003874,21.1502347 13.9937782,21.1300108 13.793743,21.0905261 C14.211657,22.42723 15.4231379,23.4008667 16.8600106,23.4268689 C15.7368081,24.3302034 14.3205963,24.8685446 12.7832365,24.8685446 C12.5184011,24.8685446 12.2563832,24.8531359 12,24.8223185 C13.4528379,25.7757313 15.1789634,26.3333333 17.0318718,26.3333333 C23.0704936,26.3333333 26.3715443,21.2051282 26.3715443,16.7568316 C26.3715443,16.610449 26.3687269,16.4640664 26.3630921,16.320573 C27.0045196,15.8457927 27.5614251,15.2535211 28,14.5784278" id="Twitter" fill="#FFFFFF"></path>
            </g>
        </g>
    </g>
</svg>