<svg width="25" height="25" viewBox="0 0 25 25" fill="none" xmlns="http://www.w3.org/2000/svg">
<circle cx="12.5" cy="12.5" r="12" fill="#F8F8F8"/>
<path d="M9.04901 16.5V15.358L12.0788 12.3878C12.3686 12.0952 12.6101 11.8352 12.8033 11.608C12.9964 11.3807 13.1413 11.1605 13.2379 10.9474C13.3345 10.7344 13.3828 10.5071 13.3828 10.2656C13.3828 9.99006 13.3203 9.75426 13.1953 9.55824C13.0703 9.35938 12.8984 9.20597 12.6797 9.09801C12.4609 8.99006 12.2124 8.93608 11.9339 8.93608C11.647 8.93608 11.3956 8.99574 11.1797 9.11506C10.9638 9.23153 10.7962 9.39773 10.6768 9.61364C10.5604 9.82955 10.5021 10.0866 10.5021 10.3849H8.99787C8.99787 9.83097 9.12429 9.34943 9.37713 8.94034C9.62997 8.53125 9.97798 8.21449 10.4212 7.99006C10.8672 7.76562 11.3786 7.65341 11.9553 7.65341C12.5405 7.65341 13.0547 7.76278 13.4979 7.98153C13.9411 8.20028 14.2848 8.5 14.5291 8.88068C14.7763 9.26136 14.8999 9.69602 14.8999 10.1847C14.8999 10.5114 14.8374 10.8324 14.7124 11.1477C14.5874 11.4631 14.3672 11.8125 14.0518 12.196C13.7393 12.5795 13.3004 13.044 12.7351 13.5895L11.2308 15.1193V15.179H15.032V16.5H9.04901Z" fill="#BDBDBD"/>
</svg>
