<svg width="24" height="24" viewBox="0 0 24 24" fill="none" xmlns="http://www.w3.org/2000/svg">
<circle cx="12" cy="12" r="12" fill="#2E31BE"/>
<path d="M8.54901 16V14.858L11.5788 11.8878C11.8686 11.5952 12.1101 11.3352 12.3033 11.108C12.4964 10.8807 12.6413 10.6605 12.7379 10.4474C12.8345 10.2344 12.8828 10.0071 12.8828 9.76562C12.8828 9.49006 12.8203 9.25426 12.6953 9.05824C12.5703 8.85938 12.3984 8.70597 12.1797 8.59801C11.9609 8.49006 11.7124 8.43608 11.4339 8.43608C11.147 8.43608 10.8956 8.49574 10.6797 8.61506C10.4638 8.73153 10.2962 8.89773 10.1768 9.11364C10.0604 9.32955 10.0021 9.58665 10.0021 9.88494H8.49787C8.49787 9.33097 8.62429 8.84943 8.87713 8.44034C9.12997 8.03125 9.47798 7.71449 9.92116 7.49006C10.3672 7.26562 10.8786 7.15341 11.4553 7.15341C12.0405 7.15341 12.5547 7.26278 12.9979 7.48153C13.4411 7.70028 13.7848 8 14.0291 8.38068C14.2763 8.76136 14.3999 9.19602 14.3999 9.68466C14.3999 10.0114 14.3374 10.3324 14.2124 10.6477C14.0874 10.9631 13.8672 11.3125 13.5518 11.696C13.2393 12.0795 12.8004 12.544 12.2351 13.0895L10.7308 14.6193V14.679H14.532V16H8.54901Z" fill="white"/>
</svg>
