<?xml version="1.0" encoding="utf-8"?>
<svg version="1.0" width="500pt" height="500pt" viewBox="0 0 500 500" fill="#41434C" preserveAspectRatio="xMidYMid meet" xmlns="http://www.w3.org/2000/svg" xmlns:bx="https://boxy-svg.com">
  <g transform="matrix(0.09375, 0, 0, -0.090352, 10, 467.277588)" stroke="none" bx:origin="0.496001 0.5">
    <path d="M105 5031 c-46 -21 -79 -54 -94 -94 -7 -19 -11 -221 -11 -604 l0 -576 24 -41 c13 -23 42 -51 64 -64 35 -19 54 -22 161 -22 l121 0 2 -1712 c3 -1596 4 -1715 20 -1744 23 -43 71 -81 116 -94 52 -14 4052 -14 4104 0 45 13 93 51 116 94 16 29 17 148 20 1744 l2 1712 121 0 c107 0 126 3 161 22 22 13 51 41 64 64 l24 41 0 576 c0 383 -4 585 -11 604 -15 40 -48 73 -94 94 -39 18 -128 19 -2455 19 -2327 0 -2416 -1 -2455 -19z m4645 -696 l0 -335 -2180 0 -2180 0 0 335 0 335 2180 0 2180 0 0 -335z m-380 -2295 l0 -1590 -1810 0 -1810 0 0 1590 0 1590 1810 0 1810 0 0 -1590z"/>
    <path d="M2495 2979 c-19 -5 -146 -125 -368 -346 -186 -186 -343 -347 -349 -358 -33 -59 -27 -150 13 -207 42 -58 150 -86 226 -58 15 6 101 84 191 173 l162 162 0 -440 c0 -406 2 -443 19 -480 70 -151 272 -151 342 0 17 37 19 74 19 480 l0 440 163 -162 c89 -88 172 -166 184 -172 39 -20 134 -13 178 12 77 43 113 165 72 242 -9 17 -168 182 -354 367 -349 349 -362 359 -438 357 -16 0 -43 -5 -60 -10z"/>
  </g>
</svg>