<svg width="16" height="16" viewBox="0 0 16 16" fill="none" xmlns="http://www.w3.org/2000/svg">
<path d="M7.99935 3.89109C10.526 3.89109 12.7793 5.27829 13.8793 7.47305C13.486 8.26759 12.9327 8.95142 12.2727 9.505L13.2127 10.4233C14.1393 9.62223 14.8727 8.61928 15.3327 7.47305C14.1793 4.614 11.3327 2.58856 7.99935 2.58856C7.15268 2.58856 6.33935 2.71882 5.57268 2.95978L6.67268 4.03437C7.10602 3.94971 7.54602 3.89109 7.99935 3.89109ZM7.28602 4.63353L8.66602 5.98165C9.04602 6.14447 9.35268 6.44405 9.51935 6.81527L10.8993 8.16339C10.9527 7.94196 10.9927 7.70751 10.9927 7.46654C10.9993 5.8514 9.65268 4.54236 7.99935 4.54236C7.75268 4.54236 7.51935 4.57492 7.28602 4.63353ZM1.33935 2.5039L3.12602 4.24929C2.03935 5.08291 1.17935 6.19006 0.666016 7.47305C1.81935 10.3321 4.66602 12.3575 7.99935 12.3575C9.01268 12.3575 9.98602 12.1687 10.8793 11.8235L13.1593 14.0508L14.0993 13.1325L2.27935 1.5791L1.33935 2.5039ZM6.33935 7.38839L8.07935 9.08819C8.05268 9.0947 8.02602 9.10121 7.99935 9.10121C7.07935 9.10121 6.33268 8.3718 6.33268 7.47305C6.33268 7.44049 6.33935 7.42095 6.33935 7.38839ZM4.07268 5.17408L5.23935 6.3138C5.08602 6.672 4.99935 7.06275 4.99935 7.47305C4.99935 9.08819 6.34602 10.4037 7.99935 10.4037C8.41935 10.4037 8.81935 10.3191 9.17935 10.1693L9.83268 10.8075C9.24602 10.9638 8.63268 11.055 7.99935 11.055C5.47268 11.055 3.21935 9.66781 2.11935 7.47305C2.58602 6.54174 3.26602 5.77325 4.07268 5.17408Z" fill="#8F8F8F"/>
</svg>
