<svg width="50" height="50" viewBox="0 0 50 50" fill="none" xmlns="http://www.w3.org/2000/svg">
<path fill-rule="evenodd" clip-rule="evenodd" d="M25 0C11.1813 0 0 11.1823 0 25C0 38.8187 11.1823 50 25 50C38.8187 50 50 38.8177 50 25C50 11.1813 38.8177 0 25 0ZM25 12.5879C23.9213 12.5879 23.0469 13.4623 23.0469 14.541V27.1185C23.0469 28.1972 23.9213 29.0716 25 29.0716C26.0787 29.0716 26.9531 28.1972 26.9531 27.1185V14.541C26.9531 13.4623 26.0787 12.5879 25 12.5879ZM25 36.7363C26.4562 36.7363 27.6367 35.5558 27.6367 34.0996C27.6367 32.6434 26.4562 31.4629 25 31.4629C23.5438 31.4629 22.3633 32.6434 22.3633 34.0996C22.3633 35.5558 23.5438 36.7363 25 36.7363Z" fill="#F5A300"/>
</svg>
