<svg width="21" height="20" viewBox="0 0 21 20" fill="none" xmlns="http://www.w3.org/2000/svg">
<path d="M10.3233 0C4.80325 0 0.333252 4.48 0.333252 10C0.333252 15.52 4.80325 20 10.3233 20C15.8533 20 20.3333 15.52 20.3333 10C20.3333 4.48 15.8533 0 10.3233 0ZM17.2533 6H14.3033C13.9833 4.75 13.5233 3.55 12.9233 2.44C14.7633 3.07 16.2933 4.35 17.2533 6ZM10.3333 2.04C11.1633 3.24 11.8133 4.57 12.2433 6H8.42325C8.85325 4.57 9.50325 3.24 10.3333 2.04ZM2.59325 12C2.43325 11.36 2.33325 10.69 2.33325 10C2.33325 9.31 2.43325 8.64 2.59325 8H5.97325C5.89325 8.66 5.83325 9.32 5.83325 10C5.83325 10.68 5.89325 11.34 5.97325 12H2.59325ZM3.41325 14H6.36325C6.68325 15.25 7.14325 16.45 7.74325 17.56C5.90325 16.93 4.37325 15.66 3.41325 14ZM6.36325 6H3.41325C4.37325 4.34 5.90325 3.07 7.74325 2.44C7.14325 3.55 6.68325 4.75 6.36325 6ZM10.3333 17.96C9.50325 16.76 8.85325 15.43 8.42325 14H12.2433C11.8133 15.43 11.1633 16.76 10.3333 17.96ZM12.6733 12H7.99325C7.90325 11.34 7.83325 10.68 7.83325 10C7.83325 9.32 7.90325 8.65 7.99325 8H12.6733C12.7633 8.65 12.8333 9.32 12.8333 10C12.8333 10.68 12.7633 11.34 12.6733 12ZM12.9233 17.56C13.5233 16.45 13.9833 15.25 14.3033 14H17.2533C16.2933 15.65 14.7633 16.93 12.9233 17.56ZM14.6933 12C14.7733 11.34 14.8333 10.68 14.8333 10C14.8333 9.32 14.7733 8.66 14.6933 8H18.0733C18.2333 8.64 18.3333 9.31 18.3333 10C18.3333 10.69 18.2333 11.36 18.0733 12H14.6933Z" fill="#8F8F8F"/>
</svg>
