<svg width="50" height="50" viewBox="0 0 50 50" fill="none" xmlns="http://www.w3.org/2000/svg">
<path fill-rule="evenodd" clip-rule="evenodd" d="M25 0C11.1813 0 0 11.1823 0 25C0 38.8187 11.1823 50 25 50C38.8187 50 50 38.8177 50 25C50 11.1813 38.8177 0 25 0ZM25 12.5871C23.9213 12.5871 23.0469 13.4615 23.0469 14.5402V27.1177C23.0469 28.1964 23.9213 29.0708 25 29.0708C26.0787 29.0708 26.9531 28.1964 26.9531 27.1177V14.5402C26.9531 13.4615 26.0787 12.5871 25 12.5871ZM25 36.736C26.4562 36.736 27.6367 35.5555 27.6367 34.0993C27.6367 32.643 26.4562 31.4625 25 31.4625C23.5438 31.4625 22.3633 32.643 22.3633 34.0993C22.3633 35.5555 23.5438 36.736 25 36.736Z" fill="#FFBB33"/>
</svg>
