<svg xmlns="http://www.w3.org/2000/svg" width="84.844" height="83.86" viewBox="0 0 84.844 83.86"><defs><style>.a{fill:#5c6bdd;}</style></defs><g transform="translate(-1 -1)"><path class="a" d="M23,52h2.737v2.737H23Z" transform="translate(8.106 18.791)"/><path class="a" d="M23,48h2.737v2.737H23Z" transform="translate(8.106 17.317)"/><path class="a" d="M57.275,38.729l-2.463.018L53.989,36.3l-.769-.159a6.623,6.623,0,0,0-2.715,0l-.775.16-.806,2.443-2.619-.011-.39.717a8.271,8.271,0,0,0-.885,2.856l-.085.775L47.089,44.7l-.822,2.625.515.579a6.9,6.9,0,0,0,2.187,1.653l.75.359,2.144-1.619,2.146,1.618.75-.359A6.86,6.86,0,0,0,56.945,47.9l.515-.579-.822-2.625,2.144-1.615L58.7,42.3a8.071,8.071,0,0,0-1.03-2.856Zm-3.826,4.94.914,2.92c-.033.027-.068.055-.1.081l-2.4-1.8-2.4,1.8c-.036-.026-.071-.053-.1-.081l.914-2.92-2.385-1.8c.036-.134.077-.267.12-.4l2.89.012.906-2.752c.038,0,.077,0,.115,0l.928,2.762,2.77-.021c.066.149.125.291.172.427Z" transform="translate(16.191 12.896)"/><path class="a" d="M53.316,32A12.316,12.316,0,1,0,65.632,44.316,12.33,12.33,0,0,0,53.316,32Zm0,21.9A9.579,9.579,0,1,1,62.9,44.316,9.591,9.591,0,0,1,53.316,53.9Z" transform="translate(14.738 11.422)"/><path class="a" d="M68.054,37.948A17.814,17.814,0,0,0,51.693,48.76a14.831,14.831,0,0,0-2.05-1.148c.089-.1.163-.2.261-.307a5.246,5.246,0,0,0,0-7.788,2.561,2.561,0,0,1,0-4.067,5.238,5.238,0,0,0,0-7.784,2.651,2.651,0,0,1-1-2.035V19A18,18,0,0,0,16.832,7.757l-.2.255a8.585,8.585,0,0,0-6.049,8.209v9.411a2.651,2.651,0,0,1-1,2.035,5.238,5.238,0,0,0,0,7.784,2.561,2.561,0,0,1,0,4.067,5.248,5.248,0,0,0-.005,7.788c.1.109.174.205.263.307A15.077,15.077,0,0,0,1,61.314V79H55.738V84.86l12.316-3.079L80.37,84.86V68.545a17.769,17.769,0,0,0-12.316-30.6Zm-56.47,3.428a5.238,5.238,0,0,0,0-7.784,2.562,2.562,0,0,1,0-4.068,5.3,5.3,0,0,0,1.732-3.892V16.221a5.85,5.85,0,0,1,4.437-5.683l.449-.112.768-.959A15.268,15.268,0,0,1,46.159,19v6.627a5.3,5.3,0,0,0,1.732,3.892,2.562,2.562,0,0,1,0,4.068,5.238,5.238,0,0,0,0,7.784,2.572,2.572,0,0,1,0,4.078,8.968,8.968,0,0,0-.924,1.148l-9.929-3.5a2.721,2.721,0,0,1-1.787-2.332,19.343,19.343,0,0,0,8.171-15.8V18.79H39.648a12.562,12.562,0,0,1-8.943-3.7l-.967-.967-.967.967a12.562,12.562,0,0,1-8.943,3.7H16.053v6.176a19.347,19.347,0,0,0,8.171,15.8A2.725,2.725,0,0,1,22.437,43.1l-9.929,3.5a8.852,8.852,0,0,0-.924-1.148,2.573,2.573,0,0,1,0-4.079ZM29.737,59.643A25.981,25.981,0,0,1,27.443,57.2l2.295-3.212L32.032,57.2A25.981,25.981,0,0,1,29.737,59.643Zm0-19.039A16.621,16.621,0,0,1,18.79,24.966V21.527h1.037a15.264,15.264,0,0,0,9.91-3.617,15.266,15.266,0,0,0,9.91,3.617h1.037v3.439A16.621,16.621,0,0,1,29.737,40.6ZM29.3,43.352l.432.144.432-.144a19.618,19.618,0,0,0,2.6-1.088,5.5,5.5,0,0,0,.675,1.348l-3.7,5.553-3.7-5.556a5.441,5.441,0,0,0,.673-1.347,19.385,19.385,0,0,0,2.6,1.089Zm-5.957,2.326a5.733,5.733,0,0,0,.6-.265l4.129,6.192-2.333,3.266a26.065,26.065,0,0,1-3.624-8.759Zm10.385,9.195L31.4,51.607l4.129-6.192a5.587,5.587,0,0,0,.6.265l1.23.434A26.065,26.065,0,0,1,33.733,54.873Zm-30,6.441A12.334,12.334,0,0,1,11.954,49.7l7.563-2.67a28.809,28.809,0,0,0,8.193,14.456l-2.079,1.847v12.93H14.684V57.106H11.948V76.265H3.737Zm43.79,14.95V58.475H44.79v17.79H28.369v-11.7l2.67-2.374A28.811,28.811,0,0,0,39.957,47.03L47.52,49.7A12.181,12.181,0,0,1,50.8,51.475a17.593,17.593,0,0,0,4.936,17.07v7.719Zm30.106,5.089-9.579-2.395-9.579,2.395V70.7a17.663,17.663,0,0,0,19.158,0ZM68.054,70.791A15.053,15.053,0,1,1,83.107,55.738,15.071,15.071,0,0,1,68.054,70.791Z" transform="translate(0 0)"/><path class="a" d="M68.106,1h-26A4.11,4.11,0,0,0,38,5.105V22.9A4.11,4.11,0,0,0,42.105,27h8.211v4.168a4.043,4.043,0,0,0,7.406,2.243L62,27h6.11A4.11,4.11,0,0,0,72.211,22.9V5.105A4.11,4.11,0,0,0,68.106,1Zm1.368,21.9a1.37,1.37,0,0,1-1.368,1.368H60.531l-5.087,7.629a1.306,1.306,0,0,1-2.392-.724V24.264H42.105A1.37,1.37,0,0,1,40.737,22.9V5.105a1.37,1.37,0,0,1,1.368-1.368h26a1.37,1.37,0,0,1,1.368,1.368Z" transform="translate(13.633)"/><path class="a" d="M50.366,15.273l-3.138-3.138L45.293,14.07l5.073,5.073L62.281,7.228,60.346,5.293Z" transform="translate(16.32 1.582)"/></g></svg>