<svg xmlns="http://www.w3.org/2000/svg" width="82.489" height="82.489" viewBox="0 0 82.489 82.489"><defs><style>.a{fill:#5c6bdd;}</style></defs><g transform="translate(-1 -1)"><path class="a" d="M78.168,43.575V31.6a6.66,6.66,0,0,0-6.652-6.652H36.923a6.567,6.567,0,0,0-2.892.691A17.121,17.121,0,0,0,26.687,20.6a10.645,10.645,0,1,0-11.437.013A17.311,17.311,0,0,0,3.661,36.923v6.652H1V83.489H83.489V43.575ZM44.906,64.863V59.541H63.532v5.322ZM36.923,56.88a4,4,0,0,1-3.991-3.991v-1.33H75.507v1.33a4,4,0,0,1-3.991,3.991Zm34.592-29.27A4,4,0,0,1,75.507,31.6V48.9H32.931V31.6a4,4,0,0,1,3.991-3.991ZM12.974,11.644a7.983,7.983,0,1,1,7.983,7.983A7.991,7.991,0,0,1,12.974,11.644ZM6.322,36.923A14.653,14.653,0,0,1,20.957,22.288a14.494,14.494,0,0,1,10.966,4.973A6.6,6.6,0,0,0,30.27,31.6V43.575h-17.3V31.6H10.313V43.575H6.322ZM30.27,46.236v6.652a6.66,6.66,0,0,0,6.652,6.652h5.322v5.322H36.923v2.661H71.515V64.863H66.193V59.541h5.322a6.66,6.66,0,0,0,6.652-6.652V46.236h2.661V72.846H3.661V46.236ZM3.661,80.828V75.507H80.828v5.322Z"/><path class="a" d="M16.974,58.288c4.045,0,11.974-1.607,11.974-5.322V42.322c0-3.715-7.93-5.322-11.974-5.322S5,38.607,5,42.322V52.966C5,56.68,12.93,58.288,16.974,58.288Zm0-2.661c-4.574,0-9.054-1.8-9.313-2.661V50.925a22.829,22.829,0,0,0,9.313,2.041,22.817,22.817,0,0,0,9.316-2.042v2.012C26.028,53.823,21.548,55.627,16.974,55.627Zm0-15.966c4.522,0,8.951,1.764,9.307,2.661-.355.9-4.784,2.661-9.307,2.661-4.565,0-9.033-1.8-9.313-2.624v-.012C7.942,41.458,12.409,39.661,16.974,39.661ZM7.661,45.6a22.829,22.829,0,0,0,9.313,2.041A22.83,22.83,0,0,0,26.289,45.6v2.013c-.271.889-4.744,2.689-9.315,2.689S7.92,48.5,7.661,47.644Z" transform="translate(1.322 11.897)"/><path class="a" d="M29.991,14.3a3.966,3.966,0,0,0,2.21-.672l4.642,3.482a3.907,3.907,0,0,0-.2,1.181,3.991,3.991,0,1,0,7.983,0,3.926,3.926,0,0,0-.4-1.71l5.342-5.342a3.858,3.858,0,0,0,3.421,0l2.681,2.681a3.954,3.954,0,0,0-.4,1.711,3.991,3.991,0,0,0,7.983,0,3.926,3.926,0,0,0-.4-1.71l5.342-5.342a3.954,3.954,0,0,0,1.711.4,3.991,3.991,0,1,0-3.991-3.991,3.926,3.926,0,0,0,.4,1.71l-5.342,5.342a3.858,3.858,0,0,0-3.421,0L54.871,9.363a3.954,3.954,0,0,0,.4-1.711,3.991,3.991,0,0,0-7.983,0,3.926,3.926,0,0,0,.4,1.71L42.346,14.7a3.925,3.925,0,0,0-3.921.273l-4.642-3.482a3.907,3.907,0,0,0,.2-1.181A3.991,3.991,0,1,0,29.991,14.3ZM69.906,3.661a1.33,1.33,0,1,1-1.33,1.33A1.333,1.333,0,0,1,69.906,3.661ZM60.592,15.635a1.33,1.33,0,1,1-1.33-1.33A1.333,1.333,0,0,1,60.592,15.635ZM51.279,6.322a1.33,1.33,0,1,1-1.33,1.33A1.333,1.333,0,0,1,51.279,6.322ZM40.635,16.966A1.33,1.33,0,1,1,39.3,18.3,1.333,1.333,0,0,1,40.635,16.966ZM29.991,8.983a1.33,1.33,0,1,1-1.33,1.33A1.333,1.333,0,0,1,29.991,8.983Z" transform="translate(8.262 0)"/><path class="a" d="M62.592,36.3H59.931V23H51.949V36.3H49.288V28.322H41.3V36.3H38.644V25.661H30.661V36.3H28v2.661H62.592ZM54.609,25.661H57.27V36.3H54.609ZM43.966,30.983h2.661V36.3H43.966ZM33.322,28.322h2.661V36.3H33.322Z" transform="translate(8.923 7.27)"/></g></svg>