<svg xmlns="http://www.w3.org/2000/svg" width="76.561" height="76.511" viewBox="0 0 76.561 76.511"><defs><style>.a{fill:#2E31BE;}</style></defs><g transform="translate(-0.004 -0.99)"><path class="a" d="M34.423,48.177l-1.343-3.843a4.756,4.756,0,0,0,4.877-6.357l-6.212-17.5a6.389,6.389,0,0,0-5.98-4.176h-.409a8.925,8.925,0,1,0-12.467,0h-.409A6.394,6.394,0,0,0,6.5,20.491L.295,37.954a4.756,4.756,0,0,0,4.867,6.375L3.824,48.177a3.825,3.825,0,0,0,3.608,5.1H8.924V72.859A4.575,4.575,0,0,0,13.367,77.5a4.473,4.473,0,0,0,4.482-4.462V53.277H20.4V72.859a4.463,4.463,0,1,0,8.925.178V53.277h1.492a3.825,3.825,0,0,0,3.608-5.1ZM12.749,9.928A6.375,6.375,0,1,1,19.124,16.3,6.375,6.375,0,0,1,12.749,9.928ZM15.3,73.039a1.923,1.923,0,0,1-2.1,1.906,2.04,2.04,0,0,1-1.72-2.086V53.277H15.3Zm11.475,0a1.923,1.923,0,0,1-2.1,1.906,2.04,2.04,0,0,1-1.72-2.086V53.277h3.825Zm4.042-22.312H7.432a1.275,1.275,0,0,1-1.2-1.708c3.58-10.258,5.085-14.548,7.725-22.1a1.275,1.275,0,0,0-2.407-.841L6.269,41.165a2.187,2.187,0,0,1-3.578-2.333L8.9,21.364a3.784,3.784,0,0,1,3.584-2.512H25.766a3.782,3.782,0,0,1,3.58,2.493l6.216,17.5a2.187,2.187,0,0,1-3.584,2.323L26.7,26.08a1.275,1.275,0,0,0-2.407.844c8.211,23.46,5.162,14.748,7.728,22.1a1.275,1.275,0,0,1-1.206,1.707Z" transform="translate(0)"/><path class="a" d="M40.1,59.575v-1.51a3.816,3.816,0,0,0-1.275-7.415,1.275,1.275,0,1,1,1.105-1.912,1.275,1.275,0,1,0,2.207-1.275A3.816,3.816,0,0,0,40.1,45.8v-1.53a1.275,1.275,0,0,0-2.55,0v1.51A3.816,3.816,0,0,0,38.825,53.2a1.275,1.275,0,1,1-1.105,1.912,1.275,1.275,0,0,0-2.207,1.275,3.816,3.816,0,0,0,2.04,1.657v1.53a1.275,1.275,0,1,0,2.55,0Z" transform="translate(9.623 11.552)"/><path class="a" d="M66.118,20.561a4.891,4.891,0,0,0,.4-2.452A4.113,4.113,0,0,0,62.412,14H41.306A4.113,4.113,0,0,0,37.2,18.109v.706a4.1,4.1,0,0,0,2.953,3.923,4.891,4.891,0,0,0-.4,2.452,4.088,4.088,0,0,0,1.147,2.834,4.088,4.088,0,0,0-1.147,2.834v.706A4.088,4.088,0,0,0,40.894,34.4a4.088,4.088,0,0,0-1.147,2.834,4.8,4.8,0,0,0,.4,2.452A4.1,4.1,0,0,0,37.2,43.609a4.661,4.661,0,0,0,.524,2.677,14.017,14.017,0,0,0,3.3,27.638H65.246A3.825,3.825,0,0,0,69.071,70.1c0-1.571.121-2.588-.994-3.825a4.832,4.832,0,0,0,.994-3.825,3.825,3.825,0,0,0-2.83-3.677,6.344,6.344,0,0,0,.28-2.7,3.779,3.779,0,0,0-.329-1.538,4.3,4.3,0,0,0,2.879-4.047v-.306a4.3,4.3,0,0,0-2.978-4.08,4.833,4.833,0,0,0,.428-2.5,4.071,4.071,0,0,0-.4-1.745,4.1,4.1,0,0,0,2.953-3.923v-.706A4.088,4.088,0,0,0,67.923,34.4a4.088,4.088,0,0,0,1.147-2.834v-.706a4.088,4.088,0,0,0-1.147-2.834,4.088,4.088,0,0,0,1.147-2.834v-.706a4.1,4.1,0,0,0-2.953-3.923Zm.4,4.629a1.561,1.561,0,0,1-1.559,1.559H43.856A1.561,1.561,0,0,1,42.3,25.191v-.706a1.561,1.561,0,0,1,1.559-1.559H64.962a1.561,1.561,0,0,1,1.559,1.559Zm0,5.669v.706a1.561,1.561,0,0,1-1.559,1.559H43.856A1.561,1.561,0,0,1,42.3,31.565v-.706A1.561,1.561,0,0,1,43.856,29.3H64.962A1.561,1.561,0,0,1,66.521,30.859ZM39.746,18.109a1.561,1.561,0,0,1,1.559-1.559H62.412a1.561,1.561,0,0,1,1.559,1.559v.706a1.561,1.561,0,0,1-1.559,1.559H41.306a1.561,1.561,0,0,1-1.559-1.559Zm0,25.5a1.561,1.561,0,0,1,1.559-1.559H62.412a1.561,1.561,0,0,1,1.559,1.559v.706a1.561,1.561,0,0,1-1.559,1.559H41.306a1.561,1.561,0,0,1-1.559-1.559ZM29.546,59.9A11.475,11.475,0,1,1,41.021,71.374,11.475,11.475,0,0,1,29.546,59.9Zm34.424-3.825v1.275A1.275,1.275,0,0,1,62.7,58.624H54.981a13.87,13.87,0,0,0-.909-3.825H62.7A1.275,1.275,0,0,1,63.971,56.074ZM66.521,70.1a1.275,1.275,0,0,1-1.275,1.275H49.06a14.152,14.152,0,0,0,3.7-3.825H65.246a1.275,1.275,0,0,1,1.275,1.275Zm0-6.375A1.275,1.275,0,0,1,65.246,65H54.072a13.87,13.87,0,0,0,.909-3.825H65.246a1.275,1.275,0,0,1,1.275,1.275Zm0-13.234a1.74,1.74,0,0,1-1.759,1.759h-12a14.152,14.152,0,0,0-3.7-3.825h15.7a1.74,1.74,0,0,1,1.759,1.759Zm0-12.55A1.561,1.561,0,0,1,64.962,39.5H43.856A1.561,1.561,0,0,1,42.3,37.94v-.706a1.561,1.561,0,0,1,1.559-1.559H64.962a1.561,1.561,0,0,1,1.559,1.559Z" transform="translate(7.427 3.577)"/></g></svg>