<svg xmlns="http://www.w3.org/2000/svg" width="83.851" height="93.176" viewBox="0 0 83.851 93.176"><defs><style>.a{fill:#5c6bdd;}</style></defs><path class="a" d="M83.182,12.526,79.2,9.02l3.982-3.505a1.965,1.965,0,0,0-1.3-3.441H65.407V1.366a1.366,1.366,0,1,0-2.731,0V19.783L51.46,25.873a4.321,4.321,0,0,0-.444-1.435l-1.58-3.085a4.32,4.32,0,0,0-5.808-1.874l-1.222.626a4.315,4.315,0,0,0-1.874,5.809L42.113,29a4.289,4.289,0,0,0,1.555,1.69,11.963,11.963,0,0,0-1.646,3.962l-.294,1.042a1.365,1.365,0,0,0,.943,1.685,1.344,1.344,0,0,0,.372.052,1.366,1.366,0,0,0,1.314-.995l.294-1.04c.6-2.111.966-3.241,2.136-3.876l2.1-1.14.259-.132c.086-.044.166-.094.248-.143l14.951-8.119a5.779,5.779,0,0,1-2.757,4.641l-9.723,5.907-.033.02L48.8,34.392a1.366,1.366,0,0,0,1.305,2.4l-2.3,6.941-1.678.688-4.564,1.87,1.315-4.649a1.366,1.366,0,1,0-2.629-.744l-2.078,7.348a1.311,1.311,0,0,0-.049.3l-.544,9.989A4.571,4.571,0,0,1,37.474,60l-6.04,12.706H27.045a4.667,4.667,0,0,0-4.663,4.662v3.942a4.626,4.626,0,0,0-1.931-.42H9.306a4.667,4.667,0,0,0-4.662,4.662v4.891H1.366a1.366,1.366,0,1,0,0,2.731H81.882a1.366,1.366,0,0,0,0-2.731H78.331v-35.2a4.667,4.667,0,0,0-4.662-4.662H65.407V26.76a8.516,8.516,0,0,0,1.372-7.3,1.366,1.366,0,0,0-1.372-1V15.966H81.883a1.966,1.966,0,0,0,1.3-3.441ZM42.866,23.46a1.573,1.573,0,0,1,.786-.924l1.222-.626a1.584,1.584,0,0,1,2.132.687l1.581,3.086a1.587,1.587,0,0,1-.526,2.036l-.445.241-.939.481a1.586,1.586,0,0,1-2.132-.688l-1.581-3.085a1.574,1.574,0,0,1-.1-1.208ZM40.122,73.129a4.635,4.635,0,0,0-1.5-.4l1.5-1.991Zm6.484-11a5.146,5.146,0,0,0,.985-2.447c.037-.176.711-3.857.711-3.857s.638.4.7.426a.145.145,0,0,1,.084.119l.743,7.552H45.256Zm8.076-7.537-1.153,9.324h-.952L51.808,56.1A2.877,2.877,0,0,0,50.2,53.79l-1.373-.871.915-5.071s3.854,4.579,3.944,4.7c.8,1.037,1.071,1.452,1,2.044ZM39.931,61.2a7.4,7.4,0,0,0,.382-2.535l.5-9.111,6.316-2.588-1.148,6.359c0,.017-.007.035-.009.052l-.95,5.258a5.2,5.2,0,0,1-.572,1.819L35.219,72.708h-.761ZM7.375,85.553a1.932,1.932,0,0,1,1.931-1.93H20.452a1.933,1.933,0,0,1,1.931,1.93v4.892H7.375Zm17.738,0V77.37a1.933,1.933,0,0,1,1.931-1.931H38.191a1.933,1.933,0,0,1,1.931,1.931V90.445H25.115V85.553ZM75.6,55.246v35.2H60.592V82.257a1.366,1.366,0,0,0-2.732,0v8.188H42.853V68.579a1.932,1.932,0,0,1,1.931-1.93H55.93a1.932,1.932,0,0,1,1.931,1.93v6.846a1.366,1.366,0,1,0,2.731,0V55.246a1.933,1.933,0,0,1,1.931-1.931H73.668A1.934,1.934,0,0,1,75.6,55.246ZM62.523,50.584a4.667,4.667,0,0,0-4.662,4.662v9.092a4.623,4.623,0,0,0-1.583-.406l1.114-9.008c.219-1.756-.677-2.92-1.543-4.046-.092-.119-5.4-6.422-5.4-6.422l3.257-9.846,8.97-5.45V50.584Zm2.884-37.349V4.806H79.854l-3.112,2.74a1.965,1.965,0,0,0,0,2.95l3.112,2.74H65.407Zm0,0" transform="translate(0)"/></svg>