<svg xmlns="http://www.w3.org/2000/svg" width="95" height="94.209" viewBox="0 0 95 94.209"><defs><style>.a{fill:#5c6bdd;}</style></defs><g transform="translate(-0.001 -2.016)"><g transform="translate(5.502 80.523)"><path class="a" d="M42.162,402.016H29.6a1.57,1.57,0,0,0-1.57,1.57v12.561a1.57,1.57,0,0,0,1.57,1.57H42.162a1.57,1.57,0,0,0,1.57-1.57V403.586A1.57,1.57,0,0,0,42.162,402.016Zm-1.57,12.561H31.171v-9.421h9.421Z" transform="translate(-28.031 -402.016)"/></g><g transform="translate(29.055 75.813)"><path class="a" d="M162.162,378.016H149.6a1.57,1.57,0,0,0-1.57,1.57v17.272a1.57,1.57,0,0,0,1.57,1.57h12.561a1.57,1.57,0,0,0,1.57-1.57V379.586A1.57,1.57,0,0,0,162.162,378.016Zm-1.57,17.272h-9.421V381.156h9.421Z" transform="translate(-148.031 -378.016)"/></g><g transform="translate(52.607 69.532)"><path class="a" d="M282.162,346.016H269.6a1.57,1.57,0,0,0-1.57,1.57v23.552a1.57,1.57,0,0,0,1.57,1.57h12.561a1.57,1.57,0,0,0,1.57-1.57V347.586A1.57,1.57,0,0,0,282.162,346.016Zm-1.57,23.552h-9.421V349.156h9.421Z" transform="translate(-268.031 -346.016)"/></g><g transform="translate(76.159 55.401)"><path class="a" d="M402.162,274.016H389.6a1.57,1.57,0,0,0-1.57,1.57V313.27a1.57,1.57,0,0,0,1.57,1.57h12.561a1.57,1.57,0,0,0,1.57-1.57V275.586A1.57,1.57,0,0,0,402.162,274.016Zm-1.57,37.684h-9.421V277.156h9.421Z" transform="translate(-388.031 -274.016)"/></g><g transform="translate(54.177 8.784)"><path class="a" d="M305.862,43.862h-3.74l.188-.376a4.828,4.828,0,0,0-8.457-4.643L291.781,42.3l-2.072-3.454a4.828,4.828,0,0,0-8.457,4.643l.188.376H277.6a1.57,1.57,0,0,0-1.57,1.57v7.851a1.57,1.57,0,0,0,1.57,1.57h1.57V68.985a1.57,1.57,0,0,0,1.57,1.57h21.982a1.57,1.57,0,0,0,1.57-1.57V54.853h1.57a1.57,1.57,0,0,0,1.57-1.57V45.433A1.569,1.569,0,0,0,305.862,43.862ZM287.02,67.415h-4.71V54.853h4.71Zm0-15.7H279.17V47h7.851Zm-2.07-7.851-.89-1.781a1.687,1.687,0,0,1,2.955-1.622l2.042,3.4Zm8.35,23.552h-3.14V54.853h3.14Zm0-15.7h-3.14V47h3.14Zm3.245-11.254a1.687,1.687,0,0,1,2.956,1.622l-.89,1.781H294.5Zm4.606,26.956h-4.71V54.853h4.71Zm3.14-15.7h-7.851V47h7.851Z" transform="translate(-276.029 -36.499)"/></g><g transform="translate(48.09 9.418)"><path class="a" d="M249,39.73a25.23,25.23,0,0,0-3.981,5.206l2.722,1.567a22.054,22.054,0,0,1,3.485-4.558Z" transform="translate(-245.016 -39.73)"/></g><g transform="translate(63.405 48.384)"><path class="a" d="M329.521,239a22.032,22.032,0,0,1-5.666-.737l-.808,3.035a25.2,25.2,0,0,0,6.474.843h.024Z" transform="translate(-323.047 -238.262)"/></g><g transform="translate(69.807 2.016)"><g transform="translate(0 0)"><path class="a" d="M355.739,2.016h-.071l.071,3.14a22.036,22.036,0,0,1,5.623.725l.8-3.036A25.178,25.178,0,0,0,355.739,2.016Z" transform="translate(-355.668 -2.016)"/></g></g><g transform="translate(52.141 42.705)"><path class="a" d="M267.873,209.328l-2.217,2.223a25.2,25.2,0,0,0,5.2,3.986l1.569-2.72A22.1,22.1,0,0,1,267.873,209.328Z" transform="translate(-265.656 -209.328)"/></g><g transform="translate(44.755 20.689)"><path class="a" d="M228.864,97.156a24.943,24.943,0,0,0-.833,6.371l0,.126,3.141-.048a22.022,22.022,0,0,1,.731-5.644Z" transform="translate(-228.027 -97.156)"/></g><g transform="translate(45.619 32.871)"><path class="a" d="M235.459,159.223l-3.033.816a24.982,24.982,0,0,0,2.522,6.053l2.716-1.578A21.8,21.8,0,0,1,235.459,159.223Z" transform="translate(-232.426 -159.223)"/></g><g transform="translate(75.589 46.173)"><path class="a" d="M390.419,227a21.849,21.849,0,0,1-5.294,2.2l.814,3.033a25.013,25.013,0,0,0,6.055-2.516Z" transform="translate(-385.125 -226.996)"/></g><g transform="translate(85.429 38.123)"><path class="a" d="M438.756,185.984a22.056,22.056,0,0,1-3.494,4.551l2.222,2.22a25.231,25.231,0,0,0,3.991-5.2Z" transform="translate(-435.262 -185.984)"/></g><g transform="translate(57.257 2.884)"><path class="a" d="M297.774,6.441a24.973,24.973,0,0,0-6.051,2.528l1.579,2.714a21.837,21.837,0,0,1,5.29-2.21Z" transform="translate(-291.723 -6.441)"/></g><g transform="translate(88.879 14.494)"><path class="a" d="M455.552,65.594l-2.712,1.582a21.856,21.856,0,0,1,2.216,5.288l3.03-.823A24.98,24.98,0,0,0,455.552,65.594Z" transform="translate(-452.84 -65.594)"/></g><g transform="translate(91.118 27.043)"><path class="a" d="M464.989,129.627a22.048,22.048,0,0,1-.743,5.688l3.035.81a25.215,25.215,0,0,0,.849-6.5v-.095Z" transform="translate(-464.246 -129.532)"/></g><g transform="translate(80.806 5.337)"><path class="a" d="M413.27,18.937l-1.562,2.723a22.061,22.061,0,0,1,4.562,3.48l2.213-2.228A25.193,25.193,0,0,0,413.27,18.937Z" transform="translate(-411.707 -18.937)"/></g><g transform="translate(0.001 49.142)"><g transform="translate(0)"><path class="a" d="M48.155,243.7l-9.421-1.57-.517,3.1,5.8.967-9.208,6.905H19.634a1.565,1.565,0,0,0-.791.214L0,264.3l1.583,2.712,18.475-10.777H35.336a1.572,1.572,0,0,0,.942-.314l9.426-7.069-.926,5.555,3.1.517,1.57-9.421A1.571,1.571,0,0,0,48.155,243.7Z" transform="translate(-0.001 -242.125)"/></g></g></g></svg>