<svg width="19" height="20" viewBox="0 0 19 20" fill="none" xmlns="http://www.w3.org/2000/svg">
<path d="M17.3949 8.9093L9.26314 17.041C8.513 17.7912 7.49558 18.2126 6.43472 18.2126C5.37385 18.2126 4.35643 17.7912 3.60629 17.041C2.85614 16.2909 2.43472 15.2735 2.43472 14.2126C2.43472 13.1517 2.85614 12.1343 3.60629 11.3842L12.4451 2.54534C12.914 2.0765 13.5498 1.8131 14.2129 1.8131C14.8759 1.8131 15.5118 2.0765 15.9807 2.54534C16.4495 3.01418 16.7129 3.65006 16.7129 4.3131C16.7129 4.97615 16.4495 5.61203 15.9807 6.08087L8.55604 13.5055C8.3685 13.693 8.11415 13.7984 7.84893 13.7984C7.58371 13.7984 7.32936 13.693 7.14182 13.5055C6.95429 13.318 6.84893 13.0636 6.84893 12.7984C6.84893 12.5332 6.95429 12.2788 7.14182 12.0913L13.8593 5.37376L12.7987 4.3131L6.08116 11.0306C5.61232 11.4995 5.34893 12.1353 5.34893 12.7984C5.34893 13.4614 5.61232 14.0973 6.08116 14.5662C6.55 15.035 7.18589 15.2984 7.84893 15.2984C8.51197 15.2984 9.14786 15.035 9.6167 14.5662L17.0413 7.14153C17.7915 6.39139 18.2129 5.37397 18.2129 4.3131C18.2129 3.25224 17.7915 2.23482 17.0413 1.48468C16.2912 0.734532 15.2738 0.313104 14.2129 0.313104C13.152 0.313104 12.1346 0.734532 11.3845 1.48468L2.54563 10.3235C1.51418 11.355 0.934716 12.7539 0.934716 14.2126C0.934716 15.6713 1.51418 17.0702 2.54563 18.1017C3.57708 19.1331 4.97603 19.7126 6.43472 19.7126C7.89341 19.7126 9.29235 19.1331 10.3238 18.1017L18.4555 9.96996L17.3949 8.9093Z" fill="#979797"/>
</svg>
