<?xml version="1.0" encoding="UTF-8"?>
<svg xmlns="http://www.w3.org/2000/svg" xmlns:xlink="http://www.w3.org/1999/xlink" width="40pt" height="40pt" viewBox="0 0 40 40" version="1.1">
<g id="surface1">
<rect x="0" y="0" width="40" height="40" style="fill:rgb(100%,100%,100%);fill-opacity:0.0117647;stroke:none;"/>
<path style="fill:none;stroke-width:1;stroke-linecap:butt;stroke-linejoin:miter;stroke:rgb(36.078431%,41.960784%,86.666667%);stroke-opacity:1;stroke-miterlimit:4;" d="M 0.571094 1.452344 C 0.392969 1.754687 0.414062 2.174219 0.491406 2.610156 C 1.274219 7.002344 3.395313 10.935156 6.383594 13.921094 C 9.369531 16.909375 13.4125 19.138281 17.664062 19.782812 C 18.1 19.846094 18.519531 19.878906 18.821875 19.700781 C 18.929688 19.6375 19.063281 19.525 19.100781 19.351562 L 19.799219 16.222656 C 19.855469 15.955469 19.759375 15.676562 19.536719 15.453906 C 19.428906 15.346094 17.059375 14.490625 15.939062 13.944531 C 15.477344 13.721875 14.938281 13.846094 14.713281 14.223437 L 14.279687 14.973437 C 14.129687 15.228906 13.883594 15.416406 13.597656 15.486719 C 12.500781 15.765625 9.107031 12.641406 8.36875 11.905469 C 7.604687 11.139062 4.375 7.663281 4.653906 6.566406 C 4.726562 6.280469 4.914062 6.032031 5.167187 5.884375 C 5.821094 5.507031 5.645312 5.607812 5.910156 5.453125 C 6.294531 5.223437 6.421094 4.684375 6.198437 4.225 C 5.708594 3.224219 5.429688 2.284375 5.10625 1.215625 C 4.963281 0.746875 4.510937 0.376562 4.058594 0.472656 C 4.058594 0.472656 4.004688 0.484375 0.915625 1.175781 C 0.746875 1.210938 0.636719 1.344531 0.571094 1.452344 Z M 0.571094 1.452344 " transform="matrix(1.666667,0,0,1.666667,3.333333,3.333333)"/>
<path style="fill:none;stroke-width:1;stroke-linecap:round;stroke-linejoin:round;stroke:rgb(36.078431%,41.960784%,86.666667%);stroke-opacity:1;stroke-miterlimit:4;" d="M 10.114844 3.053125 C 13.529687 3.053125 16.297656 5.823437 16.297656 9.235938 " transform="matrix(1.666667,0,0,1.666667,3.333333,3.333333)"/>
<path style="fill:none;stroke-width:1;stroke-linecap:round;stroke-linejoin:round;stroke:rgb(36.078431%,41.960784%,86.666667%);stroke-opacity:1;stroke-miterlimit:4;" d="M 10.114844 0.435156 C 14.975781 0.435156 18.915625 4.375 18.915625 9.238281 " transform="matrix(1.666667,0,0,1.666667,3.333333,3.333333)"/>
</g>
</svg>
