<?xml version="1.0" encoding="UTF-8"?>
<svg width="200px" height="200px" viewBox="0 0 200 200" version="1.1" xmlns="http://www.w3.org/2000/svg" xmlns:xlink="http://www.w3.org/1999/xlink">
    <!-- Generator: Sketch 55.1 (78136) - https://sketchapp.com -->
    <title>coming-soon</title>
    <desc>Created with Sketch.</desc>
    <defs>
        <polygon id="path-1" points="117 10.472 0 10.472 1.5704085e-14 0.472 117 0.472"></polygon>
    </defs>
    <g id="coming-soon" stroke="none" stroke-width="1" fill="none" fill-rule="evenodd">
        <path d="M159.9619,122.9928 L170.9659,122.9928" id="Stroke-1" stroke="#C9C9C9" stroke-linecap="round" stroke-linejoin="round" stroke-dasharray="6,2"></path>
        <g id="Group-4" transform="translate(49.000000, 160.528000)">
            <mask id="mask-2" fill="white">
                <use xlink:href="#path-1"></use>
            </mask>
            <g id="Clip-3"></g>
            <path d="M117,5.47250715 C117,8.23445055 90.8085762,10.472 58.4994475,10.472 C26.1914238,10.472 0,8.23445055 0,5.47250715 C0,2.71056375 26.1914238,0.472 58.4994475,0.472 C90.8085762,0.472 117,2.71056375 117,5.47250715" id="Fill-2" fill="#F4F3F1" mask="url(#mask-2)"></path>
        </g>
        <path d="M54.5522,129.0954 C52.4502,129.0954 50.7412,127.3864 50.7412,125.2844 C50.7412,123.1864 52.4502,121.4774 54.5522,121.4774 C56.6522,121.4774 58.3602,123.1864 58.3602,125.2844 C58.3602,127.3864 56.6522,129.0954 54.5522,129.0954" id="Fill-5" fill="#F4F4F4"></path>
        <path d="M83.9849,121.3698 C83.9059,121.3428 83.8209,121.3238 83.7339,121.3238 L83.4229,121.3238 L65.5169,121.3238 C65.5169,121.3238 65.0349,121.3428 64.9539,121.3698 C63.1209,121.6428 61.7079,123.2238 61.7079,125.1338 C61.7079,127.2318 63.4159,128.9418 65.5169,128.9418 L70.0099,128.9418 L78.9309,128.9418 L83.4229,128.9418 C85.5239,128.9418 87.2319,127.2318 87.2319,125.1338 C87.2319,123.2238 85.8189,121.6428 83.9849,121.3698" id="Fill-7" fill="#F4F4F4"></path>
        <path d="M176.5737,102.6696 C174.6757,102.6696 173.1327,101.1256 173.1327,99.2286 C173.1327,97.3316 174.6757,95.7876 176.5737,95.7876 C178.4727,95.7876 180.0157,97.3316 180.0157,99.2286 C180.0157,101.1256 178.4727,102.6696 176.5737,102.6696" id="Fill-9" fill="#F4F4F4"></path>
        <path d="M174.9507,106.7253 L152.9737,106.7253 C151.8577,106.7253 150.9477,105.8153 150.9477,104.6983 C150.9477,103.5803 151.8577,102.6693 152.9737,102.6693 L167.4987,102.6693 C169.3967,102.6693 170.9407,101.1253 170.9407,99.2283 C170.9407,97.3313 169.3967,95.7873 167.4987,95.7873 L138.7837,95.7873 C136.8847,95.7873 135.3407,97.3313 135.3407,99.2283 C135.3407,101.1253 136.8847,102.6693 138.7837,102.6693 L140.4337,102.6693 C141.5507,102.6693 142.4607,103.5803 142.4607,104.6983 C142.4607,105.8153 141.5507,106.7253 140.4337,106.7253 L135.0057,106.7253 C134.8067,106.7253 134.6157,106.8093 134.4817,106.9543 C134.4727,106.9643 134.4697,106.9793 134.4597,106.9933 L128.1917,106.9933 C128.1917,106.9933 127.7557,107.0083 127.6817,107.0343 C126.0257,107.2803 124.7487,108.7093 124.7487,110.4343 C124.7487,112.3313 126.2937,113.8743 128.1917,113.8743 L132.2507,113.8743 L140.3097,113.8743 L144.3717,113.8743 C144.8417,113.8743 145.2917,113.7813 145.7007,113.6083 L174.9507,113.6083 C176.8467,113.6083 178.3927,112.0623 178.3927,110.1643 C178.3927,108.2683 176.8467,106.7253 174.9507,106.7253" id="Fill-11" fill="#F4F4F4"></path>
        <path d="M35.563,30.9997 C40.693,30.9997 44.859,35.1627 44.859,40.2977 L26.267,40.2977 C26.267,35.1627 30.429,30.9997 35.563,30.9997" id="Fill-13" fill="#9B9B9B"></path>
        <polygon id="Clip-17" points="104.7066 31 35.5626 31 35.5626 96.0477 104.7066 96.0477 104.7066 31"></polygon>
        <path d="M95.4126,30.9997 C100.5466,30.9997 104.7066,35.1627 104.7066,40.2977 L104.7066,96.0477 L54.1556,96.0477 C49.0226,96.0477 44.8596,91.8847 44.8596,86.7517 L44.8596,40.2977 C44.8596,35.1627 40.6936,30.9997 35.5626,30.9997 L95.4126,30.9997 Z" id="Fill-16" fill="#E4E5E6"></path>
        <path d="M149.3491,73.5534 L146.5181,73.4854" id="Stroke-19" stroke="#FFFFFF" stroke-width="1.638" stroke-linecap="round"></path>
        <path d="M145.3325,66.0055 L143.2795,67.9595" id="Stroke-21" stroke="#FFFFFF" stroke-width="1.638" stroke-linecap="round"></path>
        <path d="M137.6724,62.4089 L138.0184,65.2219" id="Stroke-23" stroke="#FFFFFF" stroke-width="1.638" stroke-linecap="round"></path>
        <path d="M72.7471,68.1696 C77.8811,68.1696 82.0451,72.3336 82.0451,77.4676 L82.0451,143.5326 C82.0451,148.6686 86.2041,152.8296 91.3361,152.8296 L141.8931,152.8296 L141.8931,77.4676 C141.8931,72.3336 137.7271,68.1696 132.5961,68.1696 L72.7471,68.1696 Z" id="Fill-25" fill="#FFFFFF"></path>
        <path d="M63.4507,86.7516 L63.4507,77.4676 C63.4507,72.3336 67.6107,68.1696 72.7467,68.1696 C77.8807,68.1696 82.0457,72.3336 82.0457,77.4676 L82.0457,96.0476 L54.1557,96.0476 C59.2867,96.0476 63.4507,91.8846 63.4507,86.7516" id="Fill-27" fill="#9B9B9B"></path>
        <path d="M72.7471,68.1696 C71.9431,68.1696 71.1681,68.2816 70.4221,68.4766 C74.4291,69.5096 77.3971,73.1376 77.3971,77.4676 L77.3971,96.0476 L82.0451,96.0476 L82.0451,77.4676 C82.0451,72.3336 77.8811,68.1696 72.7471,68.1696" id="Fill-29" fill="#65676F"></path>
        <path d="M103.1348,86.0495 L132.0928,86.0495" id="Stroke-31" stroke="#E4E5E6" stroke-width="2.048" stroke-linecap="round"></path>
        <path d="M103.1348,91.5514 L115.6608,91.5514" id="Stroke-33" stroke="#E4E5E6" stroke-width="2.048" stroke-linecap="round"></path>
        <path d="M103.1348,96.8786 L132.0928,96.8786" id="Stroke-35" stroke="#E4E5E6" stroke-width="2.048" stroke-linecap="round"></path>
        <path d="M103.1348,102.3805 L115.6608,102.3805" id="Stroke-37" stroke="#E4E5E6" stroke-width="2.048" stroke-linecap="round"></path>
        <path d="M103.1348,107.7448 L132.0928,107.7448" id="Stroke-39" stroke="#E4E5E6" stroke-width="2.048" stroke-linecap="round"></path>
        <path d="M103.1348,113.2477 L115.6608,113.2477" id="Stroke-41" stroke="#E4E5E6" stroke-width="2.048" stroke-linecap="round"></path>
        <path d="M103.1348,118.612 L132.0928,118.612" id="Stroke-43" stroke="#E4E5E6" stroke-width="2.048" stroke-linecap="round"></path>
        <path d="M103.1348,124.1139 L115.6608,124.1139" id="Stroke-45" stroke="#E4E5E6" stroke-width="2.048" stroke-linecap="round"></path>
        <path d="M103.1348,129.4821 L132.0928,129.4821" id="Stroke-47" stroke="#E4E5E6" stroke-width="2.048" stroke-linecap="round"></path>
        <path d="M103.1348,134.9841 L115.6608,134.9841" id="Stroke-49" stroke="#E4E5E6" stroke-width="2.048" stroke-linecap="round"></path>
        <polygon id="Fill-51" fill="#9B9B9B" points="67.1621 58.3317 127.3851 58.3357 127.3851 48.6267 67.1621 48.6267"></polygon>
        <polygon id="Fill-53" fill="#FFFFFF" points="64.8267 58.3317 67.1587 58.3357 67.1587 48.6267 64.8267 48.6267"></polygon>
        <path d="M64.8267,48.6237 L63.1137,48.6237 C60.4327,48.6237 58.2607,50.7957 58.2607,53.4757 C58.2607,56.1587 60.4327,58.3357 63.1137,58.3357 L64.8267,58.3357 L64.8267,48.6237 Z" id="Fill-55" fill="#65676F"></path>
        <polygon id="Fill-57" fill="#FFFFFF" points="127.3853 48.6266 133.5973 51.8686 133.5983 55.0966 127.3853 58.3356"></polygon>
        <path d="M133.5977,51.8688 L135.3077,52.7638 C135.8947,53.0678 135.8927,53.9088 135.3057,54.2138 L133.5987,55.0968 L133.5977,51.8688 Z" id="Fill-59" fill="#65676F"></path>
        <polygon id="Fill-61" fill="#65676F" points="67.1621 58.3327 127.3871 58.3357 127.3871 55.4297 67.1621 55.4297"></polygon>
        <polygon id="Fill-63" fill="#E4E5E6" points="127.3867 55.4294 133.5977 54.1224 133.5987 55.0964 127.3867 58.3354"></polygon>
        <path d="M133.5986,54.1276 L133.5986,55.0966 L135.3066,54.2136 C135.5266,54.0996 135.6636,53.9076 135.7206,53.6986 L133.5986,54.1276 Z" id="Fill-65" fill="#41434C"></path>
        <path d="M31.0332,76.03 L31.0332,75.945 L30.9892,75.945 L30.9892,75.988 C30.9892,81.56 26.3892,86.079 20.7142,86.079 L20.6592,86.079 L20.6592,86.134 L20.7142,86.134 C26.3642,86.134 30.9372,90.612 30.9812,96.149 L31.0752,96.149 L31.0752,96.143 C31.0752,90.696 35.4772,86.285 40.9742,86.089 C35.4562,85.913 31.0332,81.492 31.0332,76.03" id="Fill-67" fill="#F4F4F4"></path>
        <path d="M152.5215,131.7438 L152.5215,131.6888 L152.4935,131.6888 L152.4935,131.7178 C152.4935,135.2978 149.5365,138.2028 145.8895,138.2028 L145.8535,138.2028 L145.8535,138.2388 L145.8895,138.2388 C149.5205,138.2388 152.4605,141.1188 152.4885,144.6778 L152.5485,144.6778 L152.5485,144.6718 C152.5485,141.1708 155.3795,138.3358 158.9115,138.2098 C155.3645,138.0968 152.5215,135.2558 152.5215,131.7438" id="Fill-69" fill="#F4F4F4"></path>
        <path d="M132.5957,68.1696 L72.7467,68.1696 C77.8807,68.1696 82.0457,72.3336 82.0457,77.4676 L82.0457,143.5326 C82.0457,148.6686 86.2037,152.8296 91.3357,152.8296 L141.8927,152.8296 L141.8927,77.4676 C141.8927,72.3336 137.7267,68.1696 132.5957,68.1696 M132.5957,68.9886 C137.2707,68.9886 141.0737,72.7926 141.0737,77.4676 L141.0737,152.0106 L91.3357,152.0106 C86.6647,152.0106 82.8647,148.2076 82.8647,143.5326 L82.8647,77.4676 C82.8647,73.9216 81.0307,70.7956 78.2617,68.9886 L132.5957,68.9886" id="Fill-71" fill="#C9C9C9"></path>
        <path d="M100.6299,143.5329 L160.4829,143.5329 C160.4829,148.6689 156.3199,152.8299 151.1879,152.8299 L91.3359,152.8299 C96.4719,152.8289 100.6299,148.6689 100.6299,143.5329" id="Fill-73" fill="#9B9B9B"></path>
        <path d="M98.1401,149.8532 C96.4431,151.6782 94.0271,152.8302 91.3361,152.8302 L151.1871,152.8302 C153.8781,152.8302 156.2931,151.6782 157.9911,149.8532 L98.1401,149.8532 Z" id="Fill-75" fill="#65676F"></path>
        <path d="M29.2666,77.0632 L29.2666,76.9892 L29.2286,76.9892 L29.2286,77.0262 C29.2286,81.8932 25.2106,85.8422 20.2546,85.8422 L20.2046,85.8422 L20.2046,85.8882 L20.2546,85.8882 C25.1886,85.8882 29.1836,89.8022 29.2216,94.6382 L29.3056,94.6382 L29.3056,94.6322 C29.3056,89.8752 33.1496,86.0212 37.9536,85.8502 C33.1326,85.6962 29.2666,81.8342 29.2666,77.0632" id="Stroke-77" stroke="#C9C9C9" stroke-width="0.41"></path>
        <path d="M58.4829,52.0251 C58.3379,52.4821 58.2599,52.9711 58.2599,53.4751 C58.2599,56.1591 60.4329,58.3361 63.1139,58.3361 L64.8269,58.3361 L64.8269,55.4291 L63.1139,55.4291 C60.9389,55.4291 59.0989,53.9981 58.4829,52.0251" id="Fill-79" fill="#41434C"></path>
        <path d="M35.563,30.9997 C34.742,30.9997 33.949,31.1167 33.19,31.3167 C37.17,32.3677 40.112,35.9837 40.112,40.2977 L44.859,40.2977 C44.859,35.1627 40.693,30.9997 35.563,30.9997" id="Fill-81" fill="#65676F"></path>
        <path d="M152.5508,74.8063 L149.0528,74.7223" id="Stroke-84" stroke="#9B9B9B" stroke-width="2.458" stroke-linecap="round"></path>
        <path d="M147.5894,65.4811 L145.0544,67.8951" id="Stroke-86" stroke="#9B9B9B" stroke-width="2.458" stroke-linecap="round"></path>
        <path d="M138.126,61.0378 L138.551,64.5138" id="Stroke-88" stroke="#9B9B9B" stroke-width="2.458" stroke-linecap="round"></path>
        <path d="M54.5469,36.7321 C54.5469,36.7321 53.7919,35.7431 52.8029,35.9761 C51.8149,36.2091 51.4649,36.9641 51.4649,36.9641 C51.4649,36.9641 51.0579,37.6631 51.4649,38.7671 C51.8729,39.8731 52.6869,40.2211 52.6869,40.2801 C52.6869,40.3371 53.8499,41.1511 53.8499,41.1511 L54.5469,41.6741 L55.7689,40.8031 C55.7689,40.8031 56.5249,40.2801 56.6989,40.0471 C56.8739,39.8141 57.1059,39.8141 57.5129,39.0011 C57.9199,38.1861 57.9199,37.6631 57.5129,36.7901 C57.1059,35.9181 55.5939,35.5101 54.5469,36.7321" id="Fill-90" fill="#41434C"></path>
        <path d="M150.208,39.9899 C150.208,39.9899 149.452,39.0009 148.464,39.2339 C147.475,39.4669 147.126,40.2219 147.126,40.2219 C147.126,40.2219 146.719,40.9209 147.126,42.0239 C147.533,43.1299 148.347,43.4779 148.347,43.5369 C148.347,43.5939 149.511,44.4089 149.511,44.4089 L150.208,44.9319 L151.429,44.0599 C151.429,44.0599 152.186,43.5369 152.36,43.3049 C152.534,43.0709 152.767,43.0709 153.173,42.2589 C153.581,41.4439 153.581,40.9209 153.173,40.0479 C152.767,39.1759 151.255,38.7679 150.208,39.9899" id="Fill-92" fill="#41434C"></path>
        <path d="M98.5186,74.3483 C98.5186,74.3483 97.5576,73.0883 96.2986,73.3853 C95.0406,73.6813 94.5966,74.6433 94.5966,74.6433 C94.5966,74.6433 94.0786,75.5323 94.5966,76.9373 C95.1146,78.3433 96.1506,78.7873 96.1506,78.8623 C96.1506,78.9353 97.6306,79.9713 97.6306,79.9713 L98.5186,80.6373 L100.0726,79.5283 C100.0726,79.5283 101.0356,78.8623 101.2566,78.5653 C101.4786,78.2693 101.7746,78.2693 102.2936,77.2343 C102.8116,76.1973 102.8116,75.5323 102.2936,74.4213 C101.7746,73.3103 99.8516,72.7933 98.5186,74.3483" id="Fill-94" fill="#41434C"></path>
        <path d="M114.7319,99.193 C114.7319,99.193 112.0009,95.622 108.4289,96.462 C104.8569,97.301 103.5959,100.033 103.5959,100.033 C103.5959,100.033 102.1259,102.553 103.5959,106.547 C105.0669,110.538 108.0089,111.797 108.0089,112.008 C108.0089,112.218 112.2109,115.161 112.2109,115.161 L114.7319,117.05 L119.1429,113.899 C119.1429,113.899 121.8759,112.008 122.5049,111.168 C123.1359,110.329 123.9769,110.329 125.4469,107.386 C126.9179,104.446 126.9179,102.553 125.4469,99.402 C123.9769,96.251 118.5139,94.78 114.7319,99.193" id="Fill-96" fill="#41434C"></path>
        <polygon id="Fill-98" fill="#E4E5E6" points="87.947 110.823 98.185 110.823 98.185 99.245 87.947 99.245"></polygon>
        <polygon id="Fill-100" fill="#E4E5E6" points="87.947 95.458 98.185 95.458 98.185 83.879 87.947 83.879"></polygon>
        <polygon id="Fill-101" fill="#E4E5E6" points="87.947 126.19 98.185 126.19 98.185 114.612 87.947 114.612"></polygon>
        <polygon id="Fill-102" fill="#E4E5E6" points="87.947 140.886 98.185 140.886 98.185 129.309 87.947 129.309"></polygon>
        <polygon id="Fill-103" fill="#C9C9C9" points="42.3496 108.611 44.3706 109.219 46.0176 107.896 46.0636 110.005 47.8276 111.164 45.8346 111.862 45.2766 113.899 44.0006 112.219 41.8916 112.321 43.0956 110.586"></polygon>
    </g>
</svg>