<svg width="73" height="72" viewBox="0 0 73 72" fill="none" xmlns="http://www.w3.org/2000/svg">
<circle cx="36.5" cy="36" r="36" fill="#F5F8FF"/>
<path d="M24.1618 61.476H52.6134C55.1788 61.476 57.2585 59.3963 57.2585 56.8309V23.7341L44.0489 10.5244H24.1618C21.5963 10.5244 19.5166 12.6041 19.5166 15.1696V56.8309C19.5166 59.3963 21.5963 61.476 24.1618 61.476Z" fill="#E0E0E0"/>
<path d="M44.0488 19.0889V10.5244L57.2585 23.7341H48.694C46.1285 23.7341 44.0488 21.6544 44.0488 19.0889Z" fill="#4C4C73"/>
<rect x="25.1777" y="34.1133" width="26.4194" height="1.8871" rx="0.943548" fill="#4C4C73"/>
<rect x="25.1777" y="28.4512" width="26.4194" height="1.8871" rx="0.943548" fill="#4C4C73"/>
<rect x="15.7422" y="38.8311" width="35.8548" height="18.871" rx="4.64516" fill="#6FACD6"/>
<path d="M28.9258 51.4869C28.9258 51.7513 28.7355 51.9784 28.4721 52.0016C28.1778 52.0276 27.8314 52.0406 27.433 52.0406C26.8105 52.0406 26.2477 51.9586 25.7445 51.7947C25.245 51.6307 24.8145 51.3884 24.453 51.0676C23.6777 50.3798 23.29 49.4211 23.29 48.1915C23.29 47.3897 23.4895 46.6947 23.8883 46.1066C24.4287 45.3119 25.2581 44.8058 26.3763 44.5884C26.7192 44.5243 27.1273 44.4922 27.6007 44.4922C27.8676 44.4922 28.1048 44.5 28.3123 44.5156C28.5646 44.5346 28.7469 44.7518 28.7469 45.0048C28.7469 45.2955 28.4621 45.5168 28.1724 45.4932C27.9872 45.478 27.7742 45.4705 27.5336 45.4705C26.9894 45.4705 26.5272 45.5346 26.147 45.6629C25.7669 45.7912 25.4519 45.9748 25.2022 46.2136C24.7027 46.6804 24.453 47.3398 24.453 48.1915C24.453 49.0504 24.699 49.7312 25.191 50.2337C25.724 50.7754 26.49 51.0462 27.4889 51.0462C27.8133 51.0462 28.1051 51.0331 28.3642 51.0068C28.6539 50.9774 28.9258 51.1957 28.9258 51.4869Z" fill="white"/>
<path d="M34.7572 51.4686C34.4925 51.6468 34.1534 51.7875 33.7396 51.8909C33.3259 51.9907 32.819 52.0406 32.2189 52.0406C31.7644 52.0406 31.3067 52.0209 30.8457 51.9816C30.599 51.9605 30.413 51.7517 30.413 51.5042C30.413 51.1944 30.699 50.9645 31.0059 51.0066C31.3547 51.0544 31.7049 51.0783 32.0567 51.0783C32.6084 51.0783 33.0221 51.0498 33.2979 50.9928C33.5738 50.9322 33.7955 50.8538 33.9633 50.7576C34.2726 50.5794 34.4273 50.3477 34.4273 50.0626C34.4273 49.8416 34.3677 49.6706 34.2484 49.5494C34.0583 49.3605 33.7844 49.1877 33.4265 49.0308L31.9952 48.4054C31.5032 48.1844 31.1547 47.9795 30.9497 47.7906C30.5099 47.3843 30.29 46.9139 30.29 46.3793C30.29 45.8304 30.5397 45.3867 31.0392 45.0482C31.5871 44.6775 32.3661 44.4922 33.3762 44.4922C33.8596 44.4922 34.3122 44.5059 34.7342 44.5333C34.9787 44.5492 35.1653 44.7545 35.1653 44.9995C35.1653 45.3021 34.8854 45.5274 34.5849 45.4918C34.2852 45.4562 33.9661 45.4384 33.6278 45.4384C33.065 45.4384 32.655 45.4669 32.3978 45.5239C32.1443 45.5774 31.9449 45.6469 31.7995 45.7324C31.5349 45.8892 31.4026 46.096 31.4026 46.3526C31.4026 46.602 31.4865 46.8087 31.6542 46.9727C31.8033 47.1117 32.0754 47.272 32.4705 47.4538L33.9409 48.122C34.4292 48.343 34.7702 48.5515 34.9641 48.7475C35.1616 48.9435 35.307 49.1413 35.4002 49.3409C35.4933 49.5369 35.5399 49.7739 35.5399 50.0519C35.5399 50.3263 35.4766 50.5865 35.3498 50.8324C35.2231 51.0748 35.0256 51.2868 34.7572 51.4686Z" fill="white"/>
<path d="M36.2079 45.2854C36.0627 44.9328 36.322 44.5456 36.7034 44.5456C36.9225 44.5456 37.1196 44.6791 37.2009 44.8827L39.5095 50.6613L41.8074 44.8833C41.8884 44.6794 42.0856 44.5456 42.305 44.5456C42.6861 44.5456 42.9452 44.9326 42.8001 45.285L40.245 51.4908C40.1214 51.7911 39.8287 51.9871 39.504 51.9871C39.1792 51.9871 38.8865 51.7911 38.7629 51.4908L36.2079 45.2854Z" fill="white"/>
<path d="M24.161 61.476H52.6126C55.1781 61.476 57.2578 59.3963 57.2578 56.8309V23.7341L44.0481 10.5244H24.161C21.5956 10.5244 19.5159 12.6041 19.5159 15.1696V56.8309C19.5159 59.3963 21.5956 61.476 24.161 61.476Z" fill="#E0E0E0"/>
<path d="M44.0481 19.0889V10.5244L57.2578 23.7341H48.6933C46.1278 23.7341 44.0481 21.6544 44.0481 19.0889Z" fill="#4C4C73"/>
<rect x="25.1772" y="34.1133" width="26.4194" height="1.8871" rx="0.943548" fill="#4C4C73"/>
<rect x="25.1772" y="28.4521" width="26.4194" height="1.8871" rx="0.943548" fill="#4C4C73"/>
<rect x="15.7417" y="38.8311" width="35.8548" height="18.871" rx="4.64516" fill="#55AAE3"/>
<path d="M28.9258 51.4869C28.9258 51.7513 28.7355 51.9784 28.4721 52.0016C28.1778 52.0276 27.8314 52.0406 27.433 52.0406C26.8105 52.0406 26.2477 51.9586 25.7445 51.7947C25.245 51.6307 24.8145 51.3884 24.453 51.0676C23.6777 50.3798 23.29 49.4211 23.29 48.1915C23.29 47.3897 23.4895 46.6947 23.8883 46.1066C24.4287 45.3119 25.2581 44.8058 26.3763 44.5884C26.7192 44.5243 27.1273 44.4922 27.6007 44.4922C27.8676 44.4922 28.1048 44.5 28.3123 44.5156C28.5646 44.5346 28.7469 44.7518 28.7469 45.0048C28.7469 45.2955 28.4621 45.5168 28.1724 45.4932C27.9872 45.478 27.7742 45.4705 27.5336 45.4705C26.9894 45.4705 26.5272 45.5346 26.147 45.6629C25.7669 45.7912 25.4519 45.9748 25.2022 46.2136C24.7027 46.6804 24.453 47.3398 24.453 48.1915C24.453 49.0504 24.699 49.7312 25.191 50.2337C25.724 50.7754 26.49 51.0462 27.4889 51.0462C27.8133 51.0462 28.1051 51.0331 28.3642 51.0068C28.6539 50.9774 28.9258 51.1957 28.9258 51.4869Z" fill="white"/>
<path d="M34.7572 51.4686C34.4925 51.6468 34.1534 51.7875 33.7396 51.8909C33.3259 51.9907 32.819 52.0406 32.2189 52.0406C31.7644 52.0406 31.3067 52.0209 30.8457 51.9816C30.599 51.9605 30.413 51.7517 30.413 51.5042C30.413 51.1944 30.699 50.9645 31.0059 51.0066C31.3547 51.0544 31.7049 51.0783 32.0567 51.0783C32.6084 51.0783 33.0221 51.0498 33.2979 50.9928C33.5738 50.9322 33.7955 50.8538 33.9633 50.7576C34.2726 50.5794 34.4273 50.3477 34.4273 50.0626C34.4273 49.8416 34.3677 49.6706 34.2484 49.5494C34.0583 49.3605 33.7844 49.1877 33.4265 49.0308L31.9952 48.4054C31.5032 48.1844 31.1547 47.9795 30.9497 47.7906C30.5099 47.3843 30.29 46.9139 30.29 46.3793C30.29 45.8304 30.5397 45.3867 31.0392 45.0482C31.5871 44.6775 32.3661 44.4922 33.3762 44.4922C33.8596 44.4922 34.3122 44.5059 34.7342 44.5333C34.9787 44.5492 35.1653 44.7545 35.1653 44.9995C35.1653 45.3021 34.8854 45.5274 34.5849 45.4918C34.2852 45.4562 33.9661 45.4384 33.6278 45.4384C33.065 45.4384 32.655 45.4669 32.3978 45.5239C32.1443 45.5774 31.9449 45.6469 31.7995 45.7324C31.5349 45.8892 31.4026 46.096 31.4026 46.3526C31.4026 46.602 31.4865 46.8087 31.6542 46.9727C31.8033 47.1117 32.0754 47.272 32.4705 47.4538L33.9409 48.122C34.4292 48.343 34.7702 48.5515 34.9641 48.7475C35.1616 48.9435 35.307 49.1413 35.4002 49.3409C35.4933 49.5369 35.5399 49.7739 35.5399 50.0519C35.5399 50.3263 35.4766 50.5865 35.3498 50.8324C35.2231 51.0748 35.0256 51.2868 34.7572 51.4686Z" fill="white"/>
<path d="M36.2079 45.2854C36.0627 44.9328 36.322 44.5456 36.7034 44.5456C36.9225 44.5456 37.1196 44.6791 37.2009 44.8827L39.5095 50.6613L41.8074 44.8833C41.8884 44.6794 42.0856 44.5456 42.305 44.5456C42.6861 44.5456 42.9452 44.9326 42.8001 45.285L40.245 51.4908C40.1214 51.7911 39.8287 51.9871 39.5039 51.9871C39.1792 51.9871 38.8865 51.7911 38.7629 51.4908L36.2079 45.2854Z" fill="white"/>
</svg>
