<?xml version="1.0" encoding="UTF-8"?>
<svg width="86px" height="86px" viewBox="0 0 86 86" version="1.1" xmlns="http://www.w3.org/2000/svg" xmlns:xlink="http://www.w3.org/1999/xlink">
    <title>Customer_Support</title>
    <g id="Icons" stroke="none" stroke-width="1" fill="none" fill-rule="evenodd">
        <g id="Customer_Support">
            <rect id="Rectangle-Copy-5" fill-opacity="0.01" fill="#FFFFFF" x="0" y="0" width="86" height="86"></rect>
            <g id="Group-11" transform="translate(23.000000, 23.000000)" stroke="#4D4D4E" stroke-linecap="round" stroke-linejoin="round" stroke-width="2">
                <path d="M7.5,29.1666667 L9.16666667,29.1666667 L9.16666667,15.8333333 L7.5,15.8333333 C3.81833333,15.8333333 0.833333333,18.8183333 0.833333333,22.5 C0.833333333,26.1816667 3.81833333,29.1666667 7.5,29.1666667 Z" id="Stroke-1"></path>
                <path d="M32.5,29.1666667 L30.8333333,29.1666667 L30.8333333,15.8333333 L32.5,15.8333333 C36.1816667,15.8333333 39.1666667,18.8183333 39.1666667,22.5 C39.1666667,26.1816667 36.1816667,29.1666667 32.5,29.1666667 Z" id="Stroke-3"></path>
                <path d="M7.5,15.8333333 L7.5,13.3333333 C7.5,6.42833333 13.0966667,0.833333333 20,0.833333333 C26.9033333,0.833333333 32.5,6.42833333 32.5,13.3333333 L32.5,15.8333333" id="Stroke-5"></path>
                <path d="M32.5,29.1666667 C32.5,32.5 30.8333333,35.8333333 25.8333333,35.8333333" id="Stroke-7"></path>
                <path d="M23.3333333,39.1666667 L20,39.1666667 C18.6183333,39.1666667 17.5,38.0466667 17.5,36.6666667 C17.5,35.2866667 18.6183333,34.1666667 20,34.1666667 L23.3333333,34.1666667 C24.715,34.1666667 25.8333333,35.2866667 25.8333333,36.6666667 C25.8333333,38.0466667 24.715,39.1666667 23.3333333,39.1666667 Z" id="Stroke-9"></path>
            </g>
        </g>
    </g>
</svg>