<?xml version="1.0" encoding="UTF-8"?>
<svg width="24px" height="24px" viewBox="0 0 24 24" version="1.1" xmlns="http://www.w3.org/2000/svg" xmlns:xlink="http://www.w3.org/1999/xlink">
    <!-- Generator: Sketch 55.1 (78136) - https://sketchapp.com -->
    <title>dashboard</title>
    <desc>Created with Sketch.</desc>
    <g id="dashboard" stroke="none" stroke-width="1" fill="none" fill-rule="evenodd">
        <rect id="Rectangle" x="0" y="0" width="24" height="24"></rect>
        <g id="Group-9" transform="translate(4.000000, 3.000000)" stroke="#41434C">
            <path d="M7.5,6.6064 C7.5,7.1004 7.1,7.5004 6.606,7.5004 L1.394,7.5004 C0.9,7.5004 0.5,7.1004 0.5,6.6064 L0.5,1.3934 C0.5,0.8994 0.9,0.5004 1.394,0.5004 L6.606,0.5004 C7.1,0.5004 7.5,0.8994 7.5,1.3934 L7.5,6.6064 Z" id="Stroke-1"></path>
            <path d="M7.5,15.6064 C7.5,16.1004 7.1,16.5004 6.606,16.5004 L1.394,16.5004 C0.9,16.5004 0.5,16.1004 0.5,15.6064 L0.5,10.3934 C0.5,9.8994 0.9,9.5004 1.394,9.5004 L6.606,9.5004 C7.1,9.5004 7.5,9.8994 7.5,10.3934 L7.5,15.6064 Z" id="Stroke-3"></path>
            <path d="M16.5,6.6064 C16.5,7.1004 16.1,7.5004 15.605,7.5004 L10.395,7.5004 C9.9,7.5004 9.5,7.1004 9.5,6.6064 L9.5,1.3934 C9.5,0.8994 9.9,0.5004 10.395,0.5004 L15.605,0.5004 C16.1,0.5004 16.5,0.8994 16.5,1.3934 L16.5,6.6064 Z" id="Stroke-5"></path>
            <path d="M16.5,15.6064 C16.5,16.1004 16.1,16.5004 15.605,16.5004 L10.395,16.5004 C9.9,16.5004 9.5,16.1004 9.5,15.6064 L9.5,10.3934 C9.5,9.8994 9.9,9.5004 10.395,9.5004 L15.605,9.5004 C16.1,9.5004 16.5,9.8994 16.5,10.3934 L16.5,15.6064 Z" id="Stroke-7"></path>
        </g>
    </g>
</svg>