<svg width="282" height="284" viewBox="0 0 282 284" fill="none" xmlns="http://www.w3.org/2000/svg">
<path d="M97.6135 210.006V101.682C97.6135 101.682 97.3171 82.1318 117.374 70.6935C120.925 68.6679 125.013 67.4835 129.24 67.2554C133.468 67.0274 137.69 67.7634 141.497 69.392L229.116 106.914C229.116 106.914 221.152 101.032 208.44 109.997C195.728 118.963 194.57 131.428 193.746 145.628V232.594V248.5C193.746 248.5 191.672 262.209 182.351 270.191C173.031 278.173 169.03 279.648 169.03 279.648C169.03 279.648 159.611 283.524 153.815 281.817C148.018 280.111 131.37 252.086 131.37 252.086L101.055 230.396L97.6135 210.006Z" fill="#CCDBFF"/>
<path d="M167.911 235.109C167.911 235.109 180.939 235.645 186.118 244.288C191.298 252.932 182.447 267.365 182.447 267.365C180.407 271.117 174 276.658 170.002 279.008C166.004 281.358 161.339 282.752 156.492 283.047C136.482 276.463 147.234 253.305 147.234 253.305L155.505 242.553L167.911 235.109Z" fill="#C8D0F1"/>
<path d="M167.908 235.109C167.908 235.109 180.936 235.645 186.116 244.288C191.295 252.932 181.968 262.402 181.968 262.402C179.928 266.155 177.696 267.496 173.698 269.846C169.7 272.196 161.292 270.673 161.292 270.673L144.75 259.921L147.232 253.305L155.502 242.553L167.908 235.109Z" fill="#ABC2FF"/>
<path d="M186.849 248.342C187.487 256.755 182.002 264.083 177.834 267.364C170.118 273.437 160.892 270.666 160.892 270.666L145.578 260.408" stroke="#9EB6F3" stroke-width="1.5" stroke-miterlimit="10" stroke-linecap="round"/>
<path d="M195.202 130.898L242.345 154.055C242.345 154.055 243.769 122.183 238.209 114.356C225.803 102.777 218.56 106.744 212.57 107.74C208.576 108.47 198.51 117.665 195.202 130.898Z" fill="#7EA0F9"/>
<path d="M86.441 199.154L178.663 235.938C178.663 235.938 156.985 232.518 146.408 255.787C138.137 273.982 154.653 283.482 154.653 283.482L54.8134 236.028C54.8134 236.028 44.1738 226.013 54.8135 206.99C65.4533 187.968 86.441 199.154 86.441 199.154Z" fill="#DCE6FF"/>
<path d="M162.947 282.476C162.947 282.476 183.177 277.06 186.932 255.783C189.413 241.723 177.007 230.145 161.293 238.415C149.287 244.734 138.805 262.471 147.233 277.287C155.66 292.103 193.548 278.114 193.269 241.723V139.643C193.269 139.643 193.269 123.187 205.712 112.318C218.154 101.448 232.627 105.248 239.388 116.655C241.895 120.886 242.577 127.25 242.362 132.199V153.228" stroke="#9EB6F3" stroke-width="1.5" stroke-miterlimit="10" stroke-linecap="round"/>
<path d="M112.734 189.461L124.247 195.173M158.787 212.308L153.031 209.452L150.152 208.024M130.004 198.028L135.761 200.884L147.274 206.596" stroke="#2E31BE" stroke-width="1.5" stroke-miterlimit="10" stroke-linecap="round" stroke-linejoin="round"/>
<path d="M112.734 175L124.247 180.712M158.787 197.847L153.031 194.991L150.152 193.563M130.004 183.568L135.761 186.423L147.274 192.135" stroke="#2E31BE" stroke-width="1.5" stroke-miterlimit="10" stroke-linecap="round" stroke-linejoin="round"/>
<path d="M112.734 144.973L177.559 177.474" stroke="#2E31BE" stroke-width="1.5" stroke-miterlimit="10" stroke-linecap="round" stroke-linejoin="round"/>
<path d="M112.734 133.025L120.837 137.088L124.889 139.119M177.559 165.527L169.456 161.464L165.405 159.433M145.147 149.276L161.353 157.402" stroke="#2E31BE" stroke-width="1.5" stroke-miterlimit="10" stroke-linecap="round" stroke-linejoin="round"/>
<path d="M112.734 121.064L120.837 125.129L124.889 127.161M177.559 153.581L169.456 149.517M128.94 129.194L145.147 137.323L161.353 145.452L165.405 147.484" stroke="#2E31BE" stroke-width="1.5" stroke-miterlimit="10" stroke-linecap="round" stroke-linejoin="round"/>
<path d="M112.734 109.117L116.786 111.149M177.559 141.619L161.353 133.493L153.25 129.431M145.147 125.368L137.044 121.305L132.992 119.274M128.94 117.243L124.889 115.211L120.837 113.18" stroke="#2E31BE" stroke-width="1.5" stroke-miterlimit="10" stroke-linecap="round" stroke-linejoin="round"/>
<path d="M130.912 144.895V153.466L134.029 147.344L130.912 144.895Z" fill="#5682F1"/>
<path fill-rule="evenodd" clip-rule="evenodd" d="M174.156 178.664C150.27 178.664 130.907 167.267 130.907 153.208C130.907 139.149 150.27 125.154 174.156 125.154C198.042 125.154 217.405 139.149 217.405 153.208C217.405 167.267 198.042 178.664 174.156 178.664ZM174.155 170.872C155.72 170.872 140.776 162.731 140.776 152.689C140.776 142.647 155.72 134.506 174.155 134.506C192.589 134.506 207.533 142.647 207.533 152.689C207.533 162.731 192.589 170.872 174.155 170.872Z" fill="#5682F1"/>
<path d="M199.356 173.987V166.324H211.045L234.902 176.912V183.253C234.902 185.331 233.773 186.455 231.046 188.274C228.864 189.728 225.634 188.88 224.292 188.274L199.356 173.987Z" fill="#8AACFF"/>
<path d="M217.407 145.154V153.337L214.16 147.492L217.407 145.154Z" fill="#5682F1"/>
<ellipse opacity="0.8" cx="173.398" cy="149.014" rx="33.6072" ry="18.3889" fill="url(#paint0_linear_921_56018)"/>
<path d="M139.042 146.606L138.517 147.744C138.517 147.744 138.674 147.32 139.042 146.606L146.126 131.258L173.392 123.648L198.756 127.453L210.17 138.867L207.634 150.915C207.634 150.915 208.907 130.624 171.49 130.624C149.049 130.624 141.015 142.779 139.042 146.606Z" fill="#2E31BE"/>
<path fill-rule="evenodd" clip-rule="evenodd" d="M174.156 170.871C150.27 170.871 130.907 159.59 130.907 145.675C130.907 131.759 150.27 120.479 174.156 120.479C198.042 120.479 217.405 131.759 217.405 145.675C217.405 159.59 198.042 170.871 174.156 170.871ZM174.156 165.157C155.673 165.157 140.69 156.435 140.69 145.675C140.69 134.916 155.673 126.193 174.156 126.193C192.639 126.193 207.623 134.916 207.623 145.675C207.623 156.435 192.639 165.157 174.156 165.157Z" fill="#E8EEFF"/>
<path d="M233.513 174.896L208.706 160.35L198.576 165.804C206.239 170.264 222.084 179.494 224.162 180.74C226.24 181.987 228.405 181.953 229.227 181.779C230.223 181.563 232.604 180.663 234.163 178.792C235.788 176.842 234.379 175.415 233.513 174.896Z" fill="#E8EEFF"/>
<circle cx="66.2293" cy="124.283" r="3.80459" fill="#2E31BE"/>
<circle cx="278.652" cy="185.792" r="3.17049" fill="#EAF0FF"/>
<circle cx="64.3247" cy="3.17049" r="3.17049" fill="#EAF0FF"/>
<circle cx="47.2101" cy="178.816" r="3.05459" stroke="#B5CAFD" stroke-width="1.5"/>
<circle cx="216.509" cy="52.6294" r="6.22509" stroke="#B5CAFD" stroke-width="1.5"/>
<path d="M5.67065 84.9707V93.214" stroke="#B5CAFD" stroke-width="1.5" stroke-linecap="round"/>
<path d="M9.79016 89.0918L1.54687 89.0918" stroke="#B5CAFD" stroke-width="1.5" stroke-linecap="round"/>
<path d="M229.322 205.178L224.791 215.396" stroke="#2E31BE" stroke-width="1.5" stroke-linecap="round"/>
<path d="M232.167 212.551L221.949 208.02" stroke="#2E31BE" stroke-width="1.5" stroke-linecap="round"/>
<defs>
<linearGradient id="paint0_linear_921_56018" x1="173.398" y1="130.625" x2="173.398" y2="167.403" gradientUnits="userSpaceOnUse">
<stop stop-color="white"/>
<stop offset="1" stop-color="white" stop-opacity="0"/>
</linearGradient>
</defs>
</svg>
