<svg width="50" height="50" viewBox="0 0 50 50" fill="none" xmlns="http://www.w3.org/2000/svg">
<rect width="50" height="50" rx="25" fill="#FA4754"/>
<path fill-rule="evenodd" clip-rule="evenodd" d="M10.3625 25.2999C14.175 21.6874 19.325 19.4624 25 19.4624C30.675 19.4624 35.825 21.6874 39.6375 25.2999C39.8625 25.5249 40 25.8374 40 26.1874C40 26.5374 39.8625 26.8499 39.6375 27.0749L36.5375 30.1749C36.3125 30.3999 36 30.5374 35.65 30.5374C35.3125 30.5374 35 30.3999 34.775 30.1874C33.7875 29.2624 32.6625 28.4874 31.4375 27.8749C31.025 27.6749 30.7375 27.2499 30.7375 26.7499V22.8749C28.9375 22.2749 27 21.9624 25 21.9624C23 21.9624 21.0625 22.2749 19.25 22.8624V26.7374C19.25 27.2249 18.9625 27.6624 18.55 27.8624C17.325 28.4749 16.2125 29.2624 15.225 30.1749C15 30.3999 14.6875 30.5249 14.35 30.5249C14 30.5249 13.6875 30.3874 13.4625 30.1624L10.3625 27.0624C10.1375 26.8499 10 26.5374 10 26.1874C10 25.8374 10.1375 25.5249 10.3625 25.2999ZM16.75 23.8624V25.9874C15.9375 26.4499 15.15 26.9749 14.4125 27.5749L13.075 26.2374C14.2125 25.2999 15.45 24.5124 16.75 23.8624ZM33.2375 23.8624L33.25 23.8685V25.9999C34.0875 26.4749 34.875 26.9999 35.6 27.5874L36.9375 26.2499C35.7912 25.3029 34.5579 24.505 33.25 23.8685V23.8624H33.2375Z" fill="white"/>
</svg>
