<svg width="72" height="72" viewBox="0 0 72 72" fill="none" xmlns="http://www.w3.org/2000/svg">
<circle cx="36" cy="36" r="36" fill="#F5F8FF"/>
<path d="M23.0161 61.4758H52.7581C54.9672 61.4758 56.7581 59.6849 56.7581 57.4758V23.7338L43.5484 10.5242H23.0161C20.807 10.5242 19.0161 12.315 19.0161 14.5242V57.4758C19.0161 59.6849 20.807 61.4758 23.0161 61.4758Z" fill="#E0E0E0"/>
<path d="M43.5484 19.7338V10.5242L56.7581 23.7338H47.5484C45.3392 23.7338 43.5484 21.943 43.5484 19.7338Z" fill="#4C4C73"/>
<rect x="24.6774" y="34.1129" width="26.4194" height="1.8871" rx="0.943548" fill="#4C4C73"/>
<rect x="24.6774" y="28.4517" width="26.4194" height="1.8871" rx="0.943548" fill="#4C4C73"/>
<rect x="15.2419" y="38.8307" width="35.8548" height="18.871" rx="4" fill="#6FACD6"/>
<path d="M28.4261 51.4867C28.4261 51.7511 28.2358 51.9781 27.9724 52.0014C27.6781 52.0273 27.3317 52.0403 26.9333 52.0403C26.3108 52.0403 25.748 51.9584 25.2448 51.7944C24.7453 51.6305 24.3148 51.3881 23.9533 51.0674C23.178 50.3795 22.7903 49.4208 22.7903 48.1913C22.7903 47.3894 22.9897 46.6944 23.3886 46.1064C23.929 45.3116 24.7584 44.8056 25.8766 44.5882C26.2195 44.524 26.6276 44.4919 27.101 44.4919C27.3679 44.4919 27.6051 44.4998 27.8126 44.5154C28.0649 44.5344 28.2471 44.7515 28.2471 45.0046C28.2471 45.2952 27.9624 45.5166 27.6727 45.4929C27.4875 45.4778 27.2745 45.4702 27.0339 45.4702C26.4897 45.4702 26.0275 45.5344 25.6473 45.6627C25.2671 45.791 24.9522 45.9745 24.7025 46.2133C24.203 46.6802 23.9533 47.3395 23.9533 48.1913C23.9533 49.0502 24.1993 49.7309 24.6913 50.2334C25.2243 50.7751 25.9902 51.046 26.9892 51.046C27.3136 51.046 27.6054 51.0329 27.8645 51.0066C28.1542 50.9772 28.4261 51.1955 28.4261 51.4867Z" fill="white"/>
<path d="M34.2575 51.4683C33.9928 51.6465 33.6536 51.7873 33.2399 51.8906C32.8262 51.9904 32.3193 52.0403 31.7192 52.0403C31.2647 52.0403 30.807 52.0207 30.346 51.9813C30.0993 51.9603 29.9133 51.7515 29.9133 51.5039C29.9133 51.1942 30.1993 50.9642 30.5062 51.0063C30.855 51.0542 31.2052 51.0781 31.557 51.0781C32.1087 51.0781 32.5224 51.0496 32.7982 50.9925C33.074 50.932 33.2958 50.8535 33.4636 50.7573C33.7729 50.5791 33.9276 50.3475 33.9276 50.0624C33.9276 49.8414 33.868 49.6703 33.7487 49.5491C33.5586 49.3603 33.2846 49.1874 32.9268 49.0306L31.4955 48.4051C31.0035 48.1842 30.655 47.9792 30.45 47.7904C30.0102 47.3841 29.7903 46.9136 29.7903 46.379C29.7903 45.8302 30.04 45.3865 30.5395 45.0479C31.0874 44.6773 31.8664 44.4919 32.8765 44.4919C33.3599 44.4919 33.8125 44.5056 34.2345 44.533C34.479 44.5489 34.6656 44.7542 34.6656 44.9993C34.6656 45.3018 34.3857 45.5272 34.0852 45.4915C33.7854 45.456 33.4664 45.4382 33.1281 45.4382C32.5653 45.4382 32.1553 45.4667 31.8981 45.5237C31.6446 45.5772 31.4452 45.6467 31.2998 45.7322C31.0352 45.889 30.9029 46.0957 30.9029 46.3523C30.9029 46.6018 30.9867 46.8085 31.1545 46.9724C31.3036 47.1114 31.5757 47.2718 31.9708 47.4536L33.4412 48.1218C33.9295 48.3428 34.2705 48.5513 34.4643 48.7473C34.6619 48.9433 34.8073 49.1411 34.9004 49.3407C34.9936 49.5367 35.0402 49.7737 35.0402 50.0517C35.0402 50.3261 34.9769 50.5863 34.8501 50.8322C34.7234 51.0745 34.5258 51.2866 34.2575 51.4683Z" fill="white"/>
<path d="M35.7082 45.2852C35.563 44.9325 35.8223 44.5454 36.2037 44.5454C36.4228 44.5454 36.6199 44.6789 36.7012 44.8824L39.0098 50.6611L41.3077 44.883C41.3887 44.6792 41.5859 44.5454 41.8053 44.5454C42.1864 44.5454 42.4455 44.9323 42.3004 45.2848L39.7453 51.4906C39.6217 51.7909 39.329 51.9869 39.0042 51.9869C38.6795 51.9869 38.3868 51.7909 38.2632 51.4906L35.7082 45.2852Z" fill="white"/>
<path d="M23.0161 61.4758H52.7581C54.9672 61.4758 56.7581 59.6849 56.7581 57.4758V23.7338L43.5484 10.5242H23.0161C20.807 10.5242 19.0161 12.315 19.0161 14.5242V57.4758C19.0161 59.6849 20.807 61.4758 23.0161 61.4758Z" fill="#E0E0E0"/>
<path d="M43.5484 19.7338V10.5242L56.7581 23.7338H47.5484C45.3393 23.7338 43.5484 21.943 43.5484 19.7338Z" fill="#999999"/>
<rect x="24.6774" y="34.1128" width="26.4194" height="1.8871" rx="0.943548" fill="#999999"/>
<rect x="24.6774" y="28.4515" width="26.4194" height="1.8871" rx="0.943548" fill="#999999"/>
<rect x="15.2419" y="38.8306" width="35.8548" height="18.871" rx="4" fill="#2E31BE"/>
<path d="M26.3047 48.3453L24.3815 45.3425C24.1613 44.9986 24.4083 44.5471 24.8167 44.5471C24.9959 44.5471 25.1623 44.6399 25.2564 44.7924L26.9239 47.4939L28.6402 44.7713C28.7281 44.6317 28.8815 44.5471 29.0465 44.5471C29.4298 44.5471 29.6587 44.9741 29.4465 45.2933L27.4657 48.2734L29.6225 51.4532C29.8503 51.789 29.6097 52.2429 29.2039 52.2429C29.0334 52.2429 28.8745 52.1571 28.781 52.0146L26.8631 49.0916L25.0909 52.0027C25.0001 52.1519 24.8381 52.2429 24.6634 52.2429C24.2649 52.2429 24.0262 51.7997 24.2457 51.467L26.3047 48.3453Z" fill="white"/>
<path d="M31.0869 45.1C31.0869 44.7946 31.3344 44.5471 31.6398 44.5471C31.9451 44.5471 32.1926 44.7946 32.1926 45.1V51.2699H35.0012C35.2699 51.2699 35.4877 51.4877 35.4877 51.7564C35.4877 52.0251 35.2699 52.2429 35.0012 52.2429H31.5869C31.3108 52.2429 31.0869 52.0191 31.0869 51.7429V45.1Z" fill="white"/>
<path d="M41.1435 51.7066C40.8818 51.8909 40.5464 52.0365 40.1372 52.1434C39.7281 52.2466 39.2269 52.2982 38.6335 52.2982C38.1892 52.2982 37.7418 52.2783 37.2913 52.2386C37.0381 52.2163 36.8477 52.0015 36.8477 51.7473C36.8477 51.4261 37.146 51.1888 37.4641 51.2331C37.799 51.2797 38.1354 51.3031 38.4731 51.3031C39.0186 51.3031 39.4277 51.2736 39.7005 51.2146C39.9732 51.1519 40.1925 51.0709 40.3584 50.9713C40.6643 50.7871 40.8173 50.5475 40.8173 50.2526C40.8173 50.0241 40.7583 49.8472 40.6404 49.7219C40.4524 49.5265 40.1815 49.3478 39.8276 49.1856L38.4123 48.5388C37.9258 48.3102 37.5812 48.0983 37.3785 47.903C36.9436 47.4828 36.7261 46.9963 36.7261 46.4434C36.7261 45.8758 36.973 45.4169 37.4669 45.0668C38.0087 44.6835 38.7791 44.4918 39.7779 44.4918C40.2498 44.4918 40.6921 44.5056 41.1049 44.5333C41.356 44.5501 41.547 44.7612 41.547 45.0129C41.547 45.3265 41.2552 45.5592 40.9438 45.522C40.6559 45.4876 40.3502 45.4704 40.0267 45.4704C39.4701 45.4704 39.0647 45.4999 38.8104 45.5588C38.5598 45.6141 38.3626 45.686 38.2188 45.7745C37.9571 45.9366 37.8263 46.1504 37.8263 46.4158C37.8263 46.6738 37.9092 46.8875 38.0751 47.0571C38.2225 47.2008 38.4916 47.3667 38.8823 47.5547L40.3363 48.2457C40.8191 48.4743 41.1564 48.6899 41.348 48.8926C41.5434 49.0953 41.6871 49.2999 41.7792 49.5063C41.8714 49.709 41.9175 49.9541 41.9175 50.2416C41.9175 50.5254 41.8548 50.7944 41.7295 51.0487C41.6042 51.2994 41.4088 51.5187 41.1435 51.7066Z" fill="white"/>
</svg>
