<?xml version="1.0" encoding="UTF-8"?>
<svg width="24px" height="24px" viewBox="0 0 24 24" version="1.1" xmlns="http://www.w3.org/2000/svg" xmlns:xlink="http://www.w3.org/1999/xlink">
    <!-- Generator: Sketch 55.1 (78136) - https://sketchapp.com -->
    <title>invite</title>
    <desc>Created with Sketch.</desc>
    <g id="invite" stroke="none" stroke-width="1" fill="none" fill-rule="evenodd" stroke-linecap="round" stroke-linejoin="round">
        <g id="Imported-Layers-+-Path-661" transform="translate(3.350000, 3.350000)" stroke="#41434C" stroke-width="0.9">
            <path d="M10.4923121,12.5278586 C11.5881813,12.0721493 12.5502862,11.4359077 12.5502862,11.4359077 C12.6626181,11.5925317 13.1401018,15.2969989 9.2288092,16.8854076 C9.22880919,15.80073 9.66060391,14.3372897 8.13847526,13.3423185 C8.50235199,13.191003 9.53685579,12.9251783 10.4923121,12.5278586 Z M16.1595129,1.21835963 C15.6336706,0.781266452 13.5229699,0.864999962 13.5229699,0.864999962 C13.5229699,0.864999962 7.30620756,1.06074273 4.85065307,7.17296864 C4.64789443,7.67951445 4.42549135,8.19377772 4.29499617,8.77819968 C4.29499617,8.77819968 4.15257401,9.15425031 4.08943118,9.58221838 C4.01646613,10.0796436 3.72211013,10.4856882 4.52121771,10.7957896 C4.52121771,10.7957896 6.21687333,9.48457103 6.97973397,10.0022135 C7.74259462,10.519856 6.41752863,12.5546327 6.41752863,12.5546327 C6.72833167,13.3530387 7.24516949,13.3083469 7.74259467,13.2346803 C8.16915956,13.1715374 8.54591178,13.0291153 8.54591178,13.0291153 C9.13103533,12.8986201 9.64459701,12.6769186 10.1511428,12.4734584 C16.2626671,10.0179039 16.6046384,3.84649304 16.6046384,3.41776875 C16.6046384,3.41776875 16.6853552,1.65545281 16.1595129,1.21835963 Z M12.8957511,6.87549575 C12.1541737,7.61637162 10.9516536,7.61567003 10.2114793,6.87549575 C9.46990185,6.1339183 9.46920026,4.93139819 10.2107777,4.18982073 C10.9516536,3.44894487 12.1541737,3.44964645 12.8964527,4.19122391 C13.6359254,4.93139819 13.636627,6.1339183 12.8957511,6.87549575 L12.8957511,6.87549575 Z M0.064080906,8.29367134 C0.064080906,8.29367134 2.99232706,7.35163246 4.15748512,9.18020903 C4.15748512,9.18020903 4.59317064,6.76324183 5.92057324,5.19449331 C5.92057324,5.19449331 1.50864853,4.73452051 0.064080906,8.29367134 Z" id="Imported-Layers"></path>
            <path d="M7.21974172,9.76939729 C7.21974172,9.76939729 7.47205199,11.6686175 6.09997904,12.8535594 C4.72790609,14.0385014 3.40462711,13.8095162 3.3275301,13.8095162 C3.16927665,13.8095162 3.3275301,10.0610791 7.21974172,9.76939729 Z" id="Path-661"></path>
        </g>
    </g>
</svg>