<svg width="18" height="19" viewBox="0 0 18 19" fill="none" xmlns="http://www.w3.org/2000/svg">
<g opacity="0.668158">
<path d="M9.00044 8.70276C8.56011 8.70276 8.20312 9.05974 8.20312 9.50007C8.20312 9.94041 8.56011 10.2974 9.00044 10.2974C9.44077 10.2974 9.79775 9.94041 9.79775 9.50007C9.79775 9.05974 9.44077 8.70276 9.00044 8.70276Z" stroke="#2E31BE" stroke-width="0.159923"/>
</g>
<path d="M8.99976 6.89673C7.56205 6.89673 6.39648 8.06229 6.39648 9.5C6.39648 10.9377 7.56205 12.1033 8.99976 12.1033C10.4375 12.1033 11.603 10.9377 11.603 9.5C11.603 8.06229 10.4375 6.89673 8.99976 6.89673Z" stroke="#2E31BE" stroke-width="0.522158"/>
<path d="M8.99978 5.03345C6.53302 5.03345 4.5332 7.03326 4.5332 9.50002C4.5332 11.9668 6.53302 13.9666 8.99978 13.9666C11.4665 13.9666 13.4664 11.9668 13.4664 9.50002C13.4664 7.03326 11.4665 5.03345 8.99978 5.03345Z" stroke="#2E31BE" stroke-width="0.895895"/>
<path d="M8.99949 3.18604C5.51248 3.18604 2.68555 6.01297 2.68555 9.49998C2.68555 12.987 5.51248 15.8139 8.99949 15.8139C12.4865 15.8139 15.3134 12.987 15.3134 9.49998C15.3134 6.01297 12.4865 3.18604 8.99949 3.18604Z" stroke="#2E31BE" stroke-width="1.26644"/>
<g opacity="0.01">
<path d="M9 1.5C4.58184 1.5 1 5.08184 1 9.5C1 13.9182 4.58184 17.5 9 17.5C13.4182 17.5 17 13.9182 17 9.5C17 5.08184 13.4182 1.5 9 1.5Z" stroke="#2E31BE" stroke-width="1.60462"/>
</g>
</svg>
