<svg width="50" height="50" viewBox="0 0 50 50" fill="none" xmlns="http://www.w3.org/2000/svg">
<rect width="50" height="50" rx="25" fill="#FA4754"/>
<rect width="50" height="50" rx="25" fill="#FA4754"/>
<path fill-rule="evenodd" clip-rule="evenodd" d="M23.3999 16.7373C23.3999 15.9123 24.0749 15.2373 24.8999 15.2373C25.7249 15.2373 26.3999 15.9123 26.3999 16.7373L26.3874 21.6248L28.6499 23.8623V16.8623C28.6499 14.7873 26.9749 13.1123 24.8999 13.1123C22.9749 13.1123 21.4124 14.5623 21.1999 16.4248L23.3999 18.6248V16.7373ZM33.6499 24.3623H31.5249C31.5249 25.0873 31.3999 25.7748 31.1874 26.4123L32.7749 27.9998C33.3249 26.8998 33.6499 25.6623 33.6499 24.3623ZM13.6499 15.9498L15.4124 14.1873L36.3499 35.1248L34.5874 36.8873L29.3374 31.6373C28.3624 32.1998 27.2874 32.5998 26.1499 32.7623V36.8623H23.6499V32.7623C19.5499 32.1498 16.1499 28.6248 16.1499 24.3623H18.2749C18.2749 28.1123 21.4499 30.7373 24.8999 30.7373C25.9124 30.7373 26.8999 30.4998 27.7874 30.0873L25.7124 28.0123C25.4499 28.0748 25.1874 28.1123 24.8999 28.1123C22.8249 28.1123 21.1499 26.4373 21.1499 24.3623V23.4498L13.6499 15.9498Z" fill="white"/>
</svg>