<svg width="52" height="52" viewBox="0 0 52 52" fill="none" xmlns="http://www.w3.org/2000/svg">
<rect x="1" y="1" width="50" height="50" rx="25" fill="white" fill-opacity="0.05" stroke="white"/>
<path d="M25.5395 28.9605C27.5053 28.9605 29.0803 27.3737 29.0803 25.4079L29.0921 18.3026C29.0921 16.3368 27.5053 14.75 25.5395 14.75C23.5737 14.75 21.9868 16.3368 21.9868 18.3026V25.4079C21.9868 27.3737 23.5737 28.9605 25.5395 28.9605ZM31.8158 25.4079C31.8158 28.9605 28.8079 31.4474 25.5395 31.4474C22.2711 31.4474 19.2632 28.9605 19.2632 25.4079H17.25C17.25 29.4461 20.4711 32.7855 24.3553 33.3658V37.25H26.7237V33.3658C30.6079 32.7974 33.8289 29.4579 33.8289 25.4079H31.8158Z" fill="white"/>
</svg>