<svg width="12" height="14" viewBox="0 0 12 14" fill="none" xmlns="http://www.w3.org/2000/svg">
<path d="M5.99935 13.5C6.73268 13.5 7.33268 12.9 7.33268 12.1667H4.66602C4.66602 12.9 5.26602 13.5 5.99935 13.5ZM9.99935 9.5V6.16667C9.99935 4.12 8.91268 2.40667 6.99935 1.95333V1.5C6.99935 0.946667 6.55268 0.5 5.99935 0.5C5.44602 0.5 4.99935 0.946667 4.99935 1.5V1.95333C3.09268 2.40667 1.99935 4.11333 1.99935 6.16667V9.5L0.666016 10.8333V11.5H11.3327V10.8333L9.99935 9.5ZM8.66602 10.1667H3.33268V6.16667C3.33268 4.51333 4.33935 3.16667 5.99935 3.16667C7.65935 3.16667 8.66602 4.51333 8.66602 6.16667V10.1667Z" fill="#2E31BE"/>
</svg>
