<svg width="12" height="14" viewBox="0 0 12 14" fill="none" xmlns="http://www.w3.org/2000/svg">
<path d="M11 1.33337L10 0.333374L9 1.33337L8 0.333374L7 1.33337L6 0.333374L5 1.33337L4 0.333374L3 1.33337L2 0.333374V9.66671H0V11.6667C0 12.7734 0.893333 13.6667 2 13.6667H10C11.1067 13.6667 12 12.7734 12 11.6667V0.333374L11 1.33337ZM10.6667 11.6667C10.6667 12.0334 10.3667 12.3334 10 12.3334C9.63333 12.3334 9.33333 12.0334 9.33333 11.6667V9.66671H3.33333V2.33337H10.6667V11.6667Z" fill="#979797"/>
<path d="M8 3.66675H4V5.00008H8V3.66675Z" fill="#979797"/>
<path d="M10 3.66675H8.66669V5.00008H10V3.66675Z" fill="#979797"/>
<path d="M8 5.66675H4V7.00008H8V5.66675Z" fill="#979797"/>
<path d="M10 5.66675H8.66669V7.00008H10V5.66675Z" fill="#979797"/>
</svg>
