<svg width="28" height="27" viewBox="0 0 28 27" fill="none" xmlns="http://www.w3.org/2000/svg">
<g opacity="0.668158">
<path d="M13.9997 12.5273C13.3392 12.5273 12.8037 13.0491 12.8037 13.6926C12.8037 14.3362 13.3392 14.8579 13.9997 14.8579C14.6602 14.8579 15.1957 14.3362 15.1957 13.6926C15.1957 13.0491 14.6602 12.5273 13.9997 12.5273Z" stroke="#2E31BE" stroke-width="0.239885"/>
</g>
<path d="M14.0006 9.88672C11.844 9.88672 10.0957 11.5902 10.0957 13.6914C10.0957 15.7926 11.844 17.4961 14.0006 17.4961C16.1572 17.4961 17.9055 15.7926 17.9055 13.6914C17.9055 11.5902 16.1572 9.88672 14.0006 9.88672Z" stroke="#2E31BE" stroke-width="0.783237"/>
<path d="M13.9997 7.16406C10.2995 7.16406 7.2998 10.0868 7.2998 13.6919C7.2998 17.2971 10.2995 20.2198 13.9997 20.2198C17.6998 20.2198 20.6995 17.2971 20.6995 13.6919C20.6995 10.0868 17.6998 7.16406 13.9997 7.16406Z" stroke="#2E31BE" stroke-width="1.34384"/>
<path d="M14.0002 4.46484C8.7697 4.46484 4.5293 8.5964 4.5293 13.6926C4.5293 18.7889 8.7697 22.9204 14.0002 22.9204C19.2307 22.9204 23.4711 18.7889 23.4711 13.6926C23.4711 8.5964 19.2307 4.46484 14.0002 4.46484Z" stroke="#2E31BE" stroke-width="1.89965"/>
<g opacity="0.01">
<path d="M14 2C7.37275 2 2 7.23483 2 13.692C2 20.1491 7.37275 25.3839 14 25.3839C20.6272 25.3839 26 20.1491 26 13.692C26 7.23483 20.6272 2 14 2Z" stroke="#2E31BE" stroke-width="2.40693"/>
</g>
</svg>
