<svg width="16" height="16" viewBox="0 0 16 16" fill="none" xmlns="http://www.w3.org/2000/svg">
<path d="M7.33329 7.33329H8.73329L12.8666 3.19996L11.4666 1.79996L7.33329 5.93329V7.33329ZM13.3333 2.73329L13.8 2.26663C13.9333 2.13329 14 1.97774 14 1.79996C14 1.62218 13.9333 1.46663 13.8 1.33329L13.3333 0.866626C13.2 0.733293 13.0444 0.666626 12.8666 0.666626C12.6888 0.666626 12.5333 0.733293 12.4 0.866626L11.9333 1.33329L13.3333 2.73329ZM7.99996 14.6666C6.21107 13.1444 4.87507 11.7304 3.99196 10.4246C3.1084 9.11929 2.66663 7.91107 2.66663 6.79996C2.66663 5.13329 3.20285 3.80551 4.27529 2.81663C5.34729 1.82774 6.58885 1.33329 7.99996 1.33329C8.29996 1.33329 8.59729 1.35818 8.89196 1.40796C9.18618 1.45818 9.47218 1.52774 9.74996 1.61663L8.66663 2.71663C8.55551 2.6944 8.44707 2.6804 8.34129 2.67463C8.23596 2.66929 8.12218 2.66663 7.99996 2.66663C6.87774 2.66663 5.9304 3.05263 5.15796 3.82463C4.38596 4.59707 3.99996 5.58885 3.99996 6.79996C3.99996 7.58885 4.32774 8.49152 4.98329 9.50796C5.63885 10.5248 6.6444 11.6555 7.99996 12.9C9.35551 11.6555 10.3611 10.5248 11.0166 9.50796C11.6722 8.49152 12 7.58885 12 6.79996C12 6.66663 11.9944 6.53596 11.9833 6.40796C11.9722 6.2804 11.9555 6.15552 11.9333 6.03329L13.0333 4.93329C13.1333 5.22218 13.2084 5.52218 13.2586 5.83329C13.3084 6.1444 13.3333 6.46663 13.3333 6.79996C13.3333 7.91107 12.8917 9.11929 12.0086 10.4246C11.1251 11.7304 9.78885 13.1444 7.99996 14.6666Z" fill="#979797"/>
</svg>
