<?xml version="1.0" encoding="UTF-8"?>
<svg xmlns="http://www.w3.org/2000/svg" xmlns:xlink="http://www.w3.org/1999/xlink" width="32pt" height="32pt" viewBox="0 0 32 32" version="1.1">
<g id="surface652256">
<path style=" stroke:none;fill-rule:nonzero;fill:rgb(40%,40%,40%);fill-opacity:1;" d="M 18 4 L 18 6 L 24.585938 6 L 12.046875 18.546875 L 13.453125 19.953125 L 26 7.414062 L 26 14 L 28 14 L 28 4 Z M 8 8 C 5.789062 8 4 9.789062 4 12 L 4 24 C 4 26.210938 5.789062 28 8 28 L 20 28 C 22.210938 28 24 26.210938 24 24 L 24 14 L 22 16 L 22 24 C 22 25.101562 21.101562 26 20 26 L 8 26 C 6.898438 26 6 25.101562 6 24 L 6 12 C 6 10.898438 6.898438 10 8 10 L 16 10 L 18 8 Z M 8 8 "/>
</g>
</svg>