<svg width="16" height="16" viewBox="0 0 16 16" fill="none" xmlns="http://www.w3.org/2000/svg">
<g clip-path="url(#clip0_2632_35704)">
<path d="M12.444 13.3317H2.66623V3.55393H8.54179L9.43068 2.66504H2.66623C2.43048 2.66504 2.20439 2.75869 2.03769 2.92539C1.87099 3.09209 1.77734 3.31818 1.77734 3.55393V13.3317C1.77734 13.5675 1.87099 13.7935 2.03769 13.9602C2.20439 14.1269 2.43048 14.2206 2.66623 14.2206H12.444C12.6798 14.2206 12.9058 14.1269 13.0725 13.9602C13.2392 13.7935 13.3329 13.5675 13.3329 13.3317V6.66504L12.444 7.55393V13.3317Z" fill="#2E31BE"/>
<path d="M14.904 2.59624L13.4063 1.09846C13.3398 1.03181 13.2608 0.978922 13.1739 0.94284C13.0869 0.906757 12.9937 0.888184 12.8996 0.888184C12.8055 0.888184 12.7123 0.906757 12.6253 0.94284C12.5384 0.978922 12.4594 1.03181 12.3929 1.09846L6.2996 7.22735L5.80627 9.36513C5.78525 9.46875 5.78746 9.57575 5.81274 9.67842C5.83802 9.78109 5.88573 9.87688 5.95246 9.9589C6.01918 10.0409 6.10326 10.1071 6.19863 10.1528C6.29401 10.1984 6.39831 10.2224 6.50405 10.2229C6.5587 10.2289 6.61384 10.2289 6.66849 10.2229L8.82405 9.74735L14.904 3.60957C14.9707 3.5431 15.0236 3.46413 15.0597 3.37719C15.0957 3.29024 15.1143 3.19704 15.1143 3.1029C15.1143 3.00877 15.0957 2.91556 15.0597 2.82862C15.0236 2.74168 14.9707 2.66271 14.904 2.59624ZM8.36183 8.92513L6.73516 9.28512L7.11294 7.67179L11.6996 3.05401L12.9529 4.30735L8.36183 8.92513ZM13.4552 3.80513L12.2018 2.55179L12.8907 1.84957L14.1529 3.11179L13.4552 3.80513Z" fill="#2E31BE"/>
</g>
<defs>
<clipPath id="clip0_2632_35704">
<rect width="16" height="16" fill="white"/>
</clipPath>
</defs>
</svg>