<svg width="16" height="16" viewBox="0 0 16 16" fill="none" xmlns="http://www.w3.org/2000/svg">
<path d="M2.35 2.35023C0.899999 3.80023 -4.45856e-07 5.79023 -3.49254e-07 8.00023C-1.5605e-07 12.4202 3.58 15.9902 8 15.9902C12.42 15.9902 16 12.4202 16 8.00023C16 4.27023 13.45 1.16023 10 0.270235L10 2.35023C12.33 3.17023 14 5.39023 14 8.00023C14 11.3102 11.31 14.0002 8 14.0002C4.69 14.0002 2 11.3102 2 8.00023C2 6.34023 2.69 4.86024 3.78 3.78024L7 7.00023L7 0.000234298L-6.98945e-07 0.000234604L2.35 2.35023Z" fill="#2E31BE"/>
</svg>
