<?xml version="1.0" encoding="UTF-8"?>
<svg width="40px" height="40px" viewBox="0 0 40 40" version="1.1" xmlns="http://www.w3.org/2000/svg" xmlns:xlink="http://www.w3.org/1999/xlink">
    <title>Schedule</title>
    <g id="Collection" stroke="none" stroke-width="1" fill="none" fill-rule="evenodd">
        <g id="Schedule">
            <g id="Group-15" transform="translate(4.000000, 6.000000)" stroke="#5C6BDD" stroke-linecap="round" stroke-linejoin="round" stroke-width="2">
                <path d="M14.7864,26 L1.99973333,26 C1.2624,26 0.6664,25.404 0.6664,24.6666667 L0.6664,4.66666667 C0.6664,3.92933333 1.2624,3.33333333 1.99973333,3.33333333 L25.9997333,3.33333333 C26.7370667,3.33333333 27.3330667,3.92933333 27.3330667,4.66666667 L27.3330667,11.6666667" id="Stroke-1"></path>
                <line x1="0.666666667" y1="10" x2="27.3333333" y2="10" id="Stroke-3"></line>
                <line x1="6" y1="0.666666667" x2="6" y2="4.66666667" id="Stroke-5"></line>
                <line x1="22" y1="0.666666667" x2="22" y2="4.66666667" id="Stroke-7"></line>
                <path d="M31.3333333,22 C31.3333333,25.6826667 28.3493333,28.6666667 24.6666667,28.6666667 C20.984,28.6666667 18,25.6826667 18,22 C18,18.3173333 20.984,15.3333333 24.6666667,15.3333333 C28.3493333,15.3333333 31.3333333,18.3173333 31.3333333,22 Z" id="Stroke-9"></path>
                <line x1="24.6666667" y1="18" x2="24.6666667" y2="22" id="Stroke-11"></line>
                <line x1="27.3333333" y1="24.6666667" x2="24.6666667" y2="22" id="Stroke-13"></line>
            </g>
        </g>
    </g>
</svg>