<?xml version="1.0" encoding="UTF-8"?>
<svg width="24px" height="24px" viewBox="0 0 24 24" version="1.1" xmlns="http://www.w3.org/2000/svg" xmlns:xlink="http://www.w3.org/1999/xlink">
    <!-- Generator: Sketch 55.1 (78136) - https://sketchapp.com -->
    <title>settings</title>
    <desc>Created with Sketch.</desc>
    <defs>
        <path d="M10.9430875,2.44826499 L13.2148175,2.44826499 C13.4157375,2.44803527 13.5876675,2.59239527 13.6222175,2.79031527 L14.0546275,5.26212527 C14.5384775,5.40482527 14.9983875,5.59764527 15.4317075,5.83570527 L17.4654575,4.37311527 C17.6296775,4.25480527 17.8554375,4.27290527 17.9987075,4.41586527 L19.6056975,6.02205527 C19.7474575,6.16391527 19.7668475,6.38709527 19.6516875,6.55127527 L18.2028075,8.61568527 C18.4378375,9.04652527 18.6275975,9.50256527 18.7691275,9.98146527 L21.2506175,10.3872553 C21.4501375,10.4200453 21.596698,10.5924453 21.596698,10.7946453 L21.596698,13.0663853 C21.5969975,13.2670453 21.4530575,13.4388853 21.2554575,13.4737853 L18.7699375,13.9094153 C18.6293375,14.3888853 18.4401175,14.8457483 18.2052275,15.2768153 L19.6742775,17.3162173 C19.7925875,17.4804373 19.7744775,17.7061923 19.6315175,17.8494623 L18.0253275,19.4572673 C17.8834675,19.5990233 17.6602975,19.6184153 17.4961175,19.5032503 L15.4357375,18.0575983 C15.0025975,18.2966183 14.5429875,18.4904593 14.0602675,18.6344063 L13.6222175,21.1070203 C13.5873275,21.3046173 13.4154775,21.4485603 13.2148175,21.448265 L10.9430875,21.448265 C10.7411475,21.448265 10.5688375,21.3021873 10.5356875,21.1029863 L10.1266775,18.6400533 C9.64195751,18.4982793 9.18018151,18.3072683 8.74475551,18.0696983 L6.69809351,19.5024433 C6.53388851,19.6169403 6.31121951,19.5972233 6.16968851,19.4556533 L4.56349751,17.8486563 C4.42117351,17.7058273 4.40275951,17.4811163 4.51993451,17.3170243 L5.96558651,15.2945623 C5.72537151,14.8573573 5.53278451,14.3937853 5.38958451,13.9069953 L2.93875251,13.4729753 C2.74147551,13.4377353 2.59795051,13.2659753 2.59831283,13.0655753 L2.59831283,10.7938453 C2.59831283,10.5921553 2.74390551,10.4199453 2.94278651,10.3864453 L5.39200451,9.97904527 C5.53598551,9.49140527 5.72980351,9.02815527 5.96962051,8.59148527 L4.54171651,6.54885527 C4.42655151,6.38467527 4.44594351,6.16149527 4.58769951,6.01963527 L6.19469651,4.41425527 C6.33752551,4.27193527 6.56223651,4.25351527 6.72632851,4.37069527 L8.75605051,5.82037527 C9.19019451,5.58420527 9.65084751,5.39458527 10.1339375,5.25405527 L10.5356875,2.79435527 C10.5684775,2.59482527 10.7408875,2.44826499 10.9430875,2.44826499 Z M11.2948175,3.27435527 L10.9132375,5.60901527 C10.8866475,5.77245527 10.7650375,5.90422527 10.6042575,5.94380527 C9.99918751,6.09216527 9.42796951,6.32851527 8.90932851,6.64001527 C8.76838351,6.72469527 8.59063551,6.71772527 8.45675551,6.62226527 L6.53110151,5.24598527 L5.41701351,6.35927527 L6.77392551,8.29863527 C6.86768251,8.43280527 6.87337751,8.60967527 6.78844651,8.74959527 C6.47322851,9.27121527 6.23405551,9.84097527 6.08175551,10.4501753 C6.04184751,10.6098553 5.91095251,10.7306153 5.74857751,10.7575353 L3.42440151,11.1439553 L3.42440151,12.7194953 L5.75019051,13.1325353 C5.91048751,13.1610853 6.03906151,13.2811353 6.07852851,13.4390953 C6.22953051,14.0462053 6.46882051,14.6160533 6.78521951,15.1388643 C6.87085351,15.2800403 6.86419051,15.4586483 6.76827851,15.5930513 L5.39523151,17.5122513 L6.50851251,18.6271463 L8.45110851,17.2662003 C8.58458751,17.1726353 8.76060851,17.1663153 8.90045451,17.2500653 C9.42185051,17.5630583 9.99174751,17.8013213 10.5961875,17.9503033 C10.7561875,17.9899323 10.8773075,18.1208853 10.9043575,18.2834813 L11.2931975,20.6221783 L12.8687375,20.6221783 L13.2858175,18.2729933 C13.3142375,18.1129163 13.4339175,17.9843973 13.5915675,17.9446563 C14.1935975,17.7920163 14.7615375,17.5522683 15.2768175,17.2387713 C15.4169275,17.1534883 15.5942275,17.1591863 15.7285775,17.2532923 L17.6864975,18.6271463 L18.7989775,17.5138643 L17.4033375,15.5769163 C17.3069275,15.4428413 17.2996275,15.2642243 17.3847875,15.1227303 C17.6951675,14.6060713 17.9307375,14.0423153 18.0793775,13.4423253 C18.1184075,13.2834953 18.2474775,13.1626553 18.4085175,13.1341553 L20.7706175,12.7194953 L20.7706175,11.1463753 L18.4133575,10.7607653 C18.2506775,10.7341353 18.1194075,10.6133253 18.0793775,10.4534053 C17.9289975,9.85263527 17.6935675,9.28887527 17.3831775,8.77218527 C17.2990675,8.63214527 17.3053975,8.45569527 17.3993075,8.32203527 L18.7755775,6.36088527 L17.6631075,5.24840527 L15.7301975,6.63759527 C15.5957775,6.73410527 15.4167275,6.74109527 15.2751975,6.65533527 C14.7573475,6.34183527 14.1899975,6.10321527 13.5859175,5.95268527 C13.4274875,5.91297527 13.3073275,5.78364527 13.2793575,5.62273527 L12.8679275,3.27435527 L11.2948175,3.27435527 Z M12.0975075,8.64391527 C13.9175575,8.64391527 15.4018575,10.1282153 15.4018575,11.9482653 C15.4018575,13.7683153 13.9175575,15.2526133 12.0975075,15.2526133 C10.2774575,15.2526133 8.79315951,13.7683153 8.79315951,11.9482653 C8.79315951,10.1282153 10.2774575,8.64391527 12.0975075,8.64391527 Z M12.0975075,9.47000527 C10.7239075,9.47000527 9.61924751,10.5746653 9.61924751,11.9482653 C9.61924751,13.3218653 10.7239075,14.4265253 12.0975075,14.4265253 C13.4711075,14.4265253 14.5757675,13.3218653 14.5757675,11.9482653 C14.5757675,10.5746653 13.4711075,9.47000527 12.0975075,9.47000527 Z" id="path-1"></path>
    </defs>
    <g id="settings" stroke="none" stroke-width="1" fill="none" fill-rule="evenodd">
        <g id="Group">
            <rect id="Rectangle" x="0" y="0" width="24" height="24"></rect>
            <mask id="mask-2" fill="white">
                <use xlink:href="#path-1"></use>
            </mask>
            <use id="Clip-2" stroke="#41434C" stroke-width="0.2" fill="#41434C" xlink:href="#path-1"></use>
        </g>
    </g>
</svg>