<?xml version="1.0" encoding="UTF-8"?>
<svg width="24px" height="24px" viewBox="0 0 24 24" version="1.1" xmlns="http://www.w3.org/2000/svg" xmlns:xlink="http://www.w3.org/1999/xlink">
    <!-- Generator: Sketch 55.1 (78136) - https://sketchapp.com -->
    <title>staff</title>
    <desc>Created with Sketch.</desc>
    <g id="staff" stroke="none" stroke-width="1" fill="none" fill-rule="evenodd">
        <g id="Group">
            <rect id="Rectangle" x="0" y="0" width="24" height="24"></rect>
            <g id="Imported-Layers" transform="translate(5.000000, 3.000000)" stroke="#41434C" stroke-linecap="round" stroke-linejoin="round">
                <path d="M7.25372308,0.354738462 C9.24355385,0.354738462 10.8563538,1.96656923 10.8563538,3.9564 C10.8563538,5.94526154 9.24355385,7.55903077 7.25372308,7.55903077 C5.26583077,7.55903077 3.65303077,5.94526154 3.65303077,3.9564 C3.65303077,1.96656923 5.26583077,0.354738462 7.25372308,0.354738462" id="Stroke-1"></path>
                <path d="M13.3967077,16.4585077 C14.0268928,16.1637632 14.3039077,15.5883399 14.3039077,15.0531231 C14.3039077,11.7297262 11.3845846,9.0342 7.65498462,9.0342 C7.50378462,9.0342 7.41267692,9.0468 7.41267692,9.05455385 C7.26147692,9.0468 7.11124615,9.0342 6.95907692,9.0342 C3.23044615,9.0342 0.205476923,11.7296308 0.205476923,15.0531231 C0.205476923,15.6449518 0.688131893,16.1923295 1.27163077,16.4585077 C3.19674084,17.3366969 4.68816923,17.5314462 7.41267692,17.5072154 C9.35113846,17.5314462 11.4680463,17.3605639 13.3967077,16.4585077 Z" id="Stroke-2"></path>
            </g>
        </g>
    </g>
</svg>