<svg width="29" height="28" viewBox="0 0 29 28" fill="none" xmlns="http://www.w3.org/2000/svg">
        <g id="Group">
        <path d="M28.7191 10.4994C28.4921 9.76747 27.8899 9.23723 27.1642 9.12617L19.8156 8.00692L16.5289 1.03433C15.8803 -0.344778 13.7272 -0.344778 13.0786 1.03433L9.7919 8.00692L2.46067 9.12617C1.73531 9.23692 1.13306 9.76932 0.907803 10.4994C0.680778 11.2313 0.871196 12.032 1.39669 12.5662L6.71156 17.9803L5.45894 25.6427C5.33583 26.3988 5.63223 27.165 6.22474 27.6167C6.81932 28.0665 7.60431 28.125 8.25291 27.768L14.803 24.1485L21.3726 27.768C21.6536 27.9233 21.9615 28 22.2674 28C22.6656 28 23.0639 27.871 23.4028 27.617C23.9956 27.1632 24.2917 26.3991 24.1686 25.643L22.916 17.9806L28.2308 12.5665C28.7557 12.0338 28.9462 11.2295 28.7191 10.4994Z" fill="#F1F1F1"/>

</g>
</svg>
