<svg width="15" height="16" viewBox="0 0 15 16" fill="none" xmlns="http://www.w3.org/2000/svg">
<path fill-rule="evenodd" clip-rule="evenodd" d="M14.0438 7.99994C14.0438 11.878 10.9 15.0219 7.02191 15.0219C3.14382 15.0219 0 11.878 0 7.99994C0 4.12184 3.14382 0.978027 7.02191 0.978027C10.9 0.978027 14.0438 4.12184 14.0438 7.99994ZM8.01671 11.2182C8.01671 11.7676 7.57134 12.213 7.02194 12.213C6.47254 12.213 6.02717 11.7676 6.02717 11.2182C6.02717 10.6688 6.47254 10.2234 7.02194 10.2234C7.57134 10.2234 8.01671 10.6688 8.01671 11.2182ZM7.77191 4.957C7.77191 4.54278 7.43613 4.207 7.02191 4.207C6.6077 4.207 6.27191 4.54278 6.27191 4.957V8.46795C6.27191 8.88217 6.6077 9.21795 7.02191 9.21795C7.43613 9.21795 7.77191 8.88217 7.77191 8.46795V4.957Z" fill="#EB5757"/>
</svg>
