<?xml version="1.0" encoding="UTF-8"?>
<svg width="24px" height="24px" viewBox="0 0 24 24" version="1.1" xmlns="http://www.w3.org/2000/svg" xmlns:xlink="http://www.w3.org/1999/xlink">
    <!-- Generator: Sketch 55.1 (78136) - https://sketchapp.com -->
    <title>theme</title>
    <desc>Created with Sketch.</desc>
    <g id="theme" stroke="none" stroke-width="1" fill="none" fill-rule="evenodd" stroke-linecap="round" stroke-linejoin="round">
        <g id="Imported-Layers" transform="translate(3.000000, 3.000000)" stroke="#41434C">
            <path d="M17.9145358,8.24262654 C17.9274271,13.994245 12.4543767,10.0610009 10.789687,12.3795889 C9.59681698,14.0423103 11.4975597,17.1872289 8.95597878,17.285036 C4.14324668,17.4708696 0.235193634,13.441495 0.235193634,8.69980503 C0.235193634,3.95811507 4.13980902,0.114294625 8.95597878,0.114294625 C13.7727215,0.114294625 17.9062281,3.95671783 17.9145358,8.24262654 L17.9145358,8.24262654 Z" id="Stroke-1"></path>
            <path d="M15.6663024,6.99851976 C15.6663024,7.74492794 15.0458037,8.34965549 14.2812095,8.34965549 C13.5163289,8.34965549 12.8964032,7.74492794 12.8964032,6.99851976 C12.8964032,6.25239104 13.5163289,5.64738404 14.2812095,5.64738404 C15.0458037,5.64738404 15.6663024,6.25239104 15.6663024,6.99851976 L15.6663024,6.99851976 Z" id="Stroke-3"></path>
            <path d="M12.6523289,3.82342068 C12.6523289,4.43094272 12.1472785,4.92389068 11.5239151,4.92389068 C10.9008382,4.92389068 10.3957878,4.43094272 10.3957878,3.82342068 C10.3957878,3.21561919 10.9008382,2.72267122 11.5239151,2.72267122 C12.1472785,2.72267122 12.6523289,3.21561919 12.6523289,3.82342068 L12.6523289,3.82342068 Z" id="Stroke-5"></path>
            <path d="M8.37816446,3.1438008 C8.37816446,3.60405324 7.99543767,3.97655871 7.52447745,3.97655871 C7.05265782,3.97655871 6.67050398,3.60405324 6.67050398,3.1438008 C6.67050398,2.68382782 7.05265782,2.3110429 7.52447745,2.3110429 C7.99543767,2.3110429 8.37816446,2.68382782 8.37816446,3.1438008 L8.37816446,3.1438008 Z" id="Stroke-7"></path>
            <path d="M4.97029178,4.92389068 C4.97029178,5.22150382 4.72277984,5.46266828 4.41797347,5.46266828 C4.11316711,5.46266828 3.86565517,5.22150382 3.86565517,4.92389068 C3.86565517,4.62655699 4.11316711,4.38511309 4.41797347,4.38511309 C4.72277984,4.38511309 4.97029178,4.62655699 4.97029178,4.92389068 L4.97029178,4.92389068 Z" id="Stroke-9"></path>
            <path d="M3.58099735,8.18364558 C3.58099735,8.36802312 3.43095135,8.51759741 3.24664706,8.51759741 C3.0620772,8.51759741 2.91256233,8.36802312 2.91256233,8.18364558 C2.91256233,7.99900236 3.0620772,7.8491624 3.24664706,7.8491624 C3.43095135,7.8491624 3.58099735,7.99900236 3.58099735,8.18364558 L3.58099735,8.18364558 Z" id="Stroke-10"></path>
            <path d="M8.09713528,13.5395816 C8.09713528,14.3818407 7.39671088,15.0645346 6.53357029,15.0645346 C5.67071618,15.0645346 4.97029178,14.3818407 4.97029178,13.5395816 C4.97029178,12.6973224 5.67071618,12.0146286 6.53357029,12.0146286 C7.39671088,12.0146286 8.09713528,12.6973224 8.09713528,13.5395816 L8.09713528,13.5395816 Z" id="Path"></path>
        </g>
    </g>
</svg>