<svg width="62" height="62" viewBox="0 0 62 62" fill="none" xmlns="http://www.w3.org/2000/svg">
<path d="M18.6613 56.4751H47.1129C49.6783 56.4751 51.758 54.3953 51.758 51.8299V18.7331L38.5484 5.52344H18.6613C16.0958 5.52344 14.0161 7.60314 14.0161 10.1686V51.8299C14.0161 54.3953 16.0958 56.4751 18.6613 56.4751Z" fill="#E0E0E0"/>
<path d="M38.5483 14.088V5.52344L51.758 18.7331H43.1935C40.628 18.7331 38.5483 16.6534 38.5483 14.088Z" fill="#999999"/>
<rect x="19.6772" y="29.1133" width="26.4194" height="1.8871" rx="0.943548" fill="#999999"/>
<rect x="19.6772" y="23.4512" width="26.4194" height="1.8871" rx="0.943548" fill="#999999"/>
<rect x="10.2417" y="33.8301" width="35.8548" height="18.871" rx="4.64516" fill="#2E31BE"/>
<path d="M23.4263 46.4869C23.4263 46.7513 23.236 46.9784 22.9726 47.0016C22.6783 47.0276 22.3319 47.0406 21.9335 47.0406C21.311 47.0406 20.7482 46.9586 20.245 46.7947C19.7455 46.6307 19.315 46.3884 18.9535 46.0676C18.1782 45.3798 17.7905 44.4211 17.7905 43.1915C17.7905 42.3897 17.9899 41.6947 18.3888 41.1066C18.9292 40.3119 19.7586 39.8058 20.8768 39.5884C21.2197 39.5243 21.6278 39.4922 22.1012 39.4922C22.3681 39.4922 22.6053 39.5 22.8128 39.5156C23.0651 39.5346 23.2473 39.7518 23.2473 40.0048C23.2473 40.2955 22.9626 40.5168 22.6729 40.4932C22.4876 40.478 22.2747 40.4705 22.0341 40.4705C21.4899 40.4705 21.0277 40.5346 20.6475 40.6629C20.2673 40.7912 19.9524 40.9748 19.7027 41.2136C19.2032 41.6804 18.9535 42.3398 18.9535 43.1915C18.9535 44.0504 19.1995 44.7312 19.6915 45.2337C20.2245 45.7754 20.9904 46.0462 21.9894 46.0462C22.3138 46.0462 22.6056 46.0331 22.8647 46.0068C23.1544 45.9774 23.4263 46.1957 23.4263 46.4869Z" fill="white"/>
<path d="M29.2577 46.4686C28.993 46.6468 28.6538 46.7875 28.2401 46.8909C27.8264 46.9907 27.3195 47.0406 26.7194 47.0406C26.2649 47.0406 25.8072 47.0209 25.3462 46.9816C25.0995 46.9605 24.9135 46.7517 24.9135 46.5042C24.9135 46.1944 25.1995 45.9645 25.5064 46.0066C25.8552 46.0544 26.2054 46.0783 26.5572 46.0783C27.1089 46.0783 27.5226 46.0498 27.7984 45.9928C28.0742 45.9322 28.296 45.8538 28.4638 45.7576C28.7731 45.5794 28.9278 45.3477 28.9278 45.0626C28.9278 44.8416 28.8682 44.6706 28.7489 44.5494C28.5588 44.3605 28.2848 44.1877 27.927 44.0308L26.4957 43.4054C26.0037 43.1844 25.6552 42.9795 25.4502 42.7906C25.0104 42.3843 24.7905 41.9139 24.7905 41.3793C24.7905 40.8304 25.0402 40.3867 25.5397 40.0482C26.0876 39.6775 26.8666 39.4922 27.8767 39.4922C28.3601 39.4922 28.8127 39.5059 29.2347 39.5333C29.4792 39.5492 29.6658 39.7545 29.6658 39.9995C29.6658 40.3021 29.3859 40.5274 29.0854 40.4918C28.7856 40.4562 28.4666 40.4384 28.1283 40.4384C27.5655 40.4384 27.1555 40.4669 26.8983 40.5239C26.6448 40.5774 26.4454 40.6469 26.3 40.7324C26.0354 40.8892 25.9031 41.096 25.9031 41.3526C25.9031 41.602 25.9869 41.8087 26.1547 41.9727C26.3038 42.1117 26.5759 42.272 26.971 42.4538L28.4414 43.122C28.9297 43.343 29.2707 43.5515 29.4645 43.7475C29.6621 43.9435 29.8075 44.1413 29.9006 44.3409C29.9938 44.5369 30.0404 44.7739 30.0404 45.0519C30.0404 45.3263 29.9771 45.5865 29.8503 45.8324C29.7236 46.0748 29.526 46.2868 29.2577 46.4686Z" fill="white"/>
<path d="M30.7084 40.2854C30.5632 39.9328 30.8225 39.5456 31.2038 39.5456C31.423 39.5456 31.6201 39.6791 31.7014 39.8827L34.01 45.6613L36.3079 39.8833C36.3889 39.6794 36.5861 39.5456 36.8054 39.5456C37.1866 39.5456 37.4457 39.9326 37.3006 40.285L34.7455 46.4908C34.6219 46.7911 34.3292 46.9871 34.0044 46.9871C33.6797 46.9871 33.387 46.7911 33.2634 46.4908L30.7084 40.2854Z" fill="white"/>
</svg>
