<svg width="14" height="13" viewBox="0 0 14 13" fill="none" xmlns="http://www.w3.org/2000/svg">
<path d="M8 0.5C4.68667 0.5 2 3.18667 2 6.5H0L2.59333 9.09333L2.64 9.18667L5.33333 6.5H3.33333C3.33333 3.92 5.42 1.83333 8 1.83333C10.58 1.83333 12.6667 3.92 12.6667 6.5C12.6667 9.08 10.58 11.1667 8 11.1667C6.71333 11.1667 5.54667 10.64 4.70667 9.79333L3.76 10.74C4.84667 11.8267 6.34 12.5 8 12.5C11.3133 12.5 14 9.81333 14 6.5C14 3.18667 11.3133 0.5 8 0.5ZM7.33333 3.83333V7.16667L10.1667 8.84667L10.68 7.99333L8.33333 6.6V3.83333H7.33333Z" fill="#2E31BE"/>
</svg>
