<svg width="50" height="50" viewBox="0 0 50 50" fill="none" xmlns="http://www.w3.org/2000/svg">
<rect width="50" height="50" rx="25" fill="#FA4754"/>
<path fill-rule="evenodd" clip-rule="evenodd" d="M19.9876 18.2126L14.8001 13.0376L13.0376 14.8001L16.4501 18.2126H15.5376C14.8501 18.2126 14.2876 18.7751 14.2876 19.4626V31.9626C14.2876 32.6501 14.8501 33.2126 15.5376 33.2126H30.5376C30.8001 33.2126 31.0251 33.1126 31.2251 32.9876L35.2001 36.9626L36.9626 35.2001L25.8876 24.1251L22.4876 20.7126L19.9876 18.2126ZM16.7876 30.7126V20.7126H18.9501L28.9501 30.7126H16.7876ZM29.2876 23.9751V20.7126H26.0251L23.5251 18.2126H30.5376C31.2251 18.2126 31.7876 18.7751 31.7876 19.4626V23.8376L36.7876 18.8376V31.4751L29.2876 23.9751Z" fill="white"/>
</svg>