<svg width="30" height="30" viewBox="0 0 30 30" fill="none" xmlns="http://www.w3.org/2000/svg">
<rect x="0.5" y="0.5" width="29" height="29" rx="3.5" stroke="#2E31BE"/>
<path fill-rule="evenodd" clip-rule="evenodd" d="M18.376 6.75098L9.37598 6.75098C8.55098 6.75098 7.87598 7.42598 7.87598 8.25098L7.87598 18.751H9.37598L9.37598 8.25098L18.376 8.25098L18.376 6.75098ZM20.626 9.75098L12.376 9.75098C11.551 9.75098 10.876 10.426 10.876 11.251L10.876 21.751C10.876 22.576 11.551 23.251 12.376 23.251H20.626C21.451 23.251 22.126 22.576 22.126 21.751L22.126 11.251C22.126 10.426 21.451 9.75098 20.626 9.75098ZM12.376 21.751H20.626L20.626 11.251L12.376 11.251L12.376 21.751Z" fill="#2E31BE"/>
</svg>
