<svg height="480pt" viewBox="0 -40 480.02517 480" width="480pt" xmlns="http://www.w3.org/2000/svg"><g fill="#231f20"><path d="m470.640625 139.371094c-12.671875-12.085938-32.609375-12.085938-45.28125 0l-79.199219 79.203125-5.679687-5.601563c-9.476563-9.101562-24.445313-9.101562-33.921875 0-8.371094 8.449219-9.289063 21.757813-2.160156 31.28125l-52.078126 23.597656c-2.683593 1.238282-4.46875 3.851563-4.640624 6.800782l-5.679688 84.800781c-.171875 2.316406.675781 4.59375 2.320312 6.238281 1.507813 1.5 3.554688 2.332032 5.679688 2.320313h.558594l84.800781-5.679688c2.949219-.171875 5.566406-1.957031 6.800781-4.640625l24-52.078125c4.101563 3.109375 9.09375 4.820313 14.238282 4.878907 6.390624.015624 12.527343-2.519532 17.042968-7.039063 9.355469-9.371094 9.355469-24.550781 0-33.921875l-6-5.519531 34.878906-34.878907c1.515626-1.503906 2.367188-3.546874 2.367188-5.679687s-.851562-4.179687-2.367188-5.679687c-3.121093-3.101563-8.160156-3.101563-11.28125 0l-34.960937 34.960937-22.558594-22.640625 79.199219-79.199219c6.242188-6.207031 16.320312-6.207031 22.5625 0 3.003906 3 4.691406 7.070313 4.691406 11.316407 0 4.25-1.6875 8.320312-4.691406 11.320312l-21.679688 21.519531c-3.101562 3.121094-3.101562 8.160157 0 11.28125 1.5 1.515625 3.546876 2.367188 5.679688 2.367188s4.175781-.851563 5.679688-2.367188l21.679687-21.679687c6.007813-6 9.382813-14.148438 9.382813-22.640625 0-8.492188-3.375-16.636719-9.382813-22.640625zm-141.121094 207.28125-58.800781 3.921875 25.28125-25.523438c3.195312 1.550781 6.691406 2.367188 10.238281 2.402344 13.257813 0 24-10.746094 24-24-.003906-6.363281-2.535156-12.464844-7.039062-16.960937-9.371094-9.359376-24.550781-9.359376-33.917969 0-7.125 7.183593-8.980469 18.0625-4.640625 27.199218l-25.519531 25.601563 3.917968-58.800781 52.800782-24 37.441406 37.441406zm-28.558593-37.601563c-1.507813-1.476562-2.371094-3.488281-2.402344-5.597656 0-4.417969 3.582031-8 8-8 2.128906-.011719 4.171875.820313 5.679687 2.320313 2.285157 1.953124 3.277344 5.023437 2.578125 7.945312-.703125 2.921875-2.988281 5.207031-5.910156 5.910156-2.921875.699219-5.992188-.292968-7.945312-2.578125zm84.800781-16.957031c-3.121094 3.101562-8.160157 3.101562-11.28125 0l-56.558594-56.5625c-3.105469-3.117188-3.105469-8.160156 0-11.277344 3.117187-3.101562 8.15625-3.101562 11.277344 0l56.5625 56.558594c3.101562 3.121094 3.101562 8.160156 0 11.28125zm0 0"/><path d="m56 40.011719c0 4.417969-3.582031 8-8 8s-8-3.582031-8-8 3.582031-8 8-8 8 3.582031 8 8zm0 0"/><path d="m88 40.011719c0 4.417969-3.582031 8-8 8s-8-3.582031-8-8 3.582031-8 8-8 8 3.582031 8 8zm0 0"/><path d="m120 40.011719c0 4.417969-3.582031 8-8 8s-8-3.582031-8-8 3.582031-8 8-8 8 3.582031 8 8zm0 0"/><path d="m168 32.011719c-4.417969 0-8 3.582031-8 8s3.582031 8 8 8h208c4.417969 0 8-3.582031 8-8s-3.582031-8-8-8zm0 0"/><path d="m408 315.933594c-4.417969 0-8 3.582031-8 8v60.078125h-384v-304h360c4.417969 0 8-3.582031 8-8s-3.582031-8-8-8h-360v-48h384v104c0 4.417969 3.582031 8 8 8s8-3.582031 8-8v-112c0-4.417969-3.582031-8.0000002-8-8.0000002h-400c-4.417969 0-8 3.5820312-8 8.0000002v384c0 4.417969 3.582031 8 8 8h400c4.417969 0 8-3.582031 8-8v-68.078125c0-4.417969-3.582031-8-8-8zm0 0"/><path d="m376 168.011719v-64c0-4.417969-3.582031-8-8-8h-320c-4.417969 0-8 3.582031-8 8v16c0 4.417969 3.582031 8 8 8s8-3.582031 8-8v-8h304v48h-304v-8c0-4.417969-3.582031-8-8-8s-8 3.582031-8 8v16c0 4.417969 3.582031 8 8 8h320c4.417969 0 8-3.582031 8-8zm0 0"/><path d="m176 200.011719c0-4.417969-3.582031-8-8-8h-48c-4.417969 0-8 3.582031-8 8s3.582031 8 8 8h40v80h-96v-80h24c4.417969 0 8-3.582031 8-8s-3.582031-8-8-8h-32c-4.417969 0-8 3.582031-8 8v96c0 4.417969 3.582031 8 8 8h112c4.417969 0 8-3.582031 8-8zm0 0"/><path d="m56 352.011719c-4.417969 0-8 3.582031-8 8s3.582031 8 8 8h112c4.417969 0 8-3.582031 8-8v-32c0-4.417969-3.582031-8-8-8h-112c-4.417969 0-8 3.582031-8 8s3.582031 8 8 8h104v16zm0 0"/><path d="m272 200.011719c0-4.417969-3.582031-8-8-8h-56c-4.417969 0-8 3.582031-8 8s3.582031 8 8 8h56c4.417969 0 8-3.582031 8-8zm0 0"/><path d="m208 224.011719c-4.417969 0-8 3.582031-8 8v56c0 4.417969 3.582031 8 8 8s8-3.582031 8-8v-48h32c4.417969 0 8-3.582031 8-8s-3.582031-8-8-8zm0 0"/></g></svg>